{"glyphs":{"0":{"ha":784,"x_min":75,"x_max":709,"o":"m 75 312 q 159 71 75 163 q 392 -20 243 -20 q 625 71 540 -20 q 709 312 709 163 l 709 675 q 625 916 709 825 q 392 1008 540 1008 q 159 916 243 1008 q 75 675 75 825 l 75 312 m 206 305 l 206 682 q 252 839 206 777 q 392 901 297 901 q 532 839 487 901 q 578 682 578 777 l 578 305 q 532 149 578 210 q 392 87 487 87 q 252 149 297 87 q 206 305 206 210 z "},"1":{"ha":784,"x_min":117,"x_max":496,"o":"m 366 0 l 496 0 l 496 1001 l 476 1001 l 117 865 l 117 739 l 366 844 l 366 0 z "},"2":{"ha":784,"x_min":75,"x_max":726,"o":"m 75 0 l 726 0 l 726 113 l 236 113 l 512 404 q 644 564 590 486 q 699 739 699 643 q 615 928 699 848 q 397 1008 532 1008 q 167 921 260 1008 q 75 699 75 834 l 75 692 l 203 692 l 203 699 q 259 847 203 793 q 397 901 315 901 q 524 850 478 901 q 570 732 570 800 q 534 607 570 665 q 427 475 498 549 l 75 95 l 75 0 z "},"3":{"ha":784,"x_min":54,"x_max":707,"o":"m 54 258 q 141 58 54 136 q 378 -20 228 -20 q 614 58 521 -20 q 707 272 707 136 q 655 431 707 366 q 518 517 604 495 l 518 519 q 634 616 597 553 q 671 746 671 678 q 589 935 671 861 q 378 1008 507 1008 q 163 931 245 1008 q 81 746 81 854 l 81 739 l 208 739 l 208 746 q 254 861 208 821 q 378 901 300 901 q 497 861 453 901 q 541 739 541 821 q 490 612 541 658 q 346 567 439 567 l 275 567 l 275 463 l 353 463 q 515 414 454 463 q 575 271 575 366 q 522 132 575 176 q 378 87 468 87 q 235 132 289 87 q 180 258 180 176 l 180 264 l 54 264 l 54 258 z "},"4":{"ha":784,"x_min":34,"x_max":751,"o":"m 491 0 l 613 0 l 613 987 l 496 987 l 34 317 l 34 232 l 751 232 l 751 339 l 578 339 l 526 339 l 182 339 l 483 779 l 491 779 l 491 305 l 491 270 l 491 0 z "},"5":{"ha":784,"x_min":68,"x_max":716,"o":"m 68 248 q 151 56 68 132 q 387 -20 235 -20 q 623 70 529 -20 q 716 315 716 159 q 626 558 716 471 q 407 646 536 646 q 307 630 353 646 q 228 594 262 614 l 258 872 l 665 872 l 665 987 l 152 987 l 102 495 l 191 453 q 279 516 232 494 q 387 538 326 538 q 531 481 475 538 q 587 315 587 424 q 531 147 587 207 q 387 87 475 87 q 245 130 298 87 q 193 248 193 173 l 193 254 l 68 254 l 68 248 z "},"6":{"ha":784,"x_min":60,"x_max":735,"o":"m 60 416 q 162 83 60 186 q 407 -20 264 -20 q 642 73 549 -20 q 735 315 735 165 q 652 556 735 464 q 434 648 570 648 q 217 556 298 648 q 136 315 136 464 l 183 315 q 251 482 183 423 q 407 541 319 541 q 554 482 502 541 q 606 315 606 423 q 554 146 606 206 q 407 87 502 87 q 250 160 312 87 q 187 410 187 233 l 187 444 q 297 791 187 681 q 597 901 407 901 l 610 901 l 610 1008 l 597 1008 q 199 851 339 1008 q 60 437 60 694 l 60 416 z "},"7":{"ha":784,"x_min":53,"x_max":713,"o":"m 199 0 l 332 0 l 713 917 l 713 987 l 53 987 l 53 878 l 578 878 l 199 0 z "},"8":{"ha":784,"x_min":71,"x_max":713,"o":"m 71 262 q 164 54 71 127 q 393 -20 257 -20 q 621 54 528 -20 q 713 262 713 127 q 665 413 713 350 q 541 506 617 475 l 541 509 q 641 597 600 538 q 682 737 682 656 q 598 934 682 861 q 393 1008 515 1008 q 186 933 271 1008 q 102 737 102 859 q 143 597 102 656 q 243 509 185 538 l 243 506 q 119 413 168 475 q 71 262 71 350 m 198 269 q 251 401 198 350 q 393 452 304 452 q 533 401 481 452 q 586 269 586 350 q 533 137 586 187 q 393 87 481 87 q 251 137 304 87 q 198 269 198 187 m 227 730 q 272 853 227 805 q 393 901 318 901 q 512 853 467 901 q 557 730 557 805 q 512 607 557 656 q 393 559 467 559 q 272 607 318 559 q 227 730 227 656 z "},"9":{"ha":784,"x_min":49,"x_max":724,"o":"m 49 680 q 132 443 49 533 q 350 353 215 353 q 567 443 486 353 q 648 680 648 533 l 601 680 q 533 517 601 574 q 377 460 465 460 q 230 517 282 460 q 178 680 178 574 q 230 843 178 785 q 377 901 282 901 q 534 827 472 901 q 597 578 597 754 l 597 544 q 487 216 597 325 q 187 107 377 107 l 174 107 l 174 0 l 188 0 q 585 156 446 0 q 724 551 724 311 l 724 571 q 622 905 724 802 q 377 1008 519 1008 q 142 917 235 1008 q 49 680 49 826 z "},"\r":{"ha":345,"x_min":0,"x_max":0,"o":""}," ":{"ha":339,"x_min":0,"x_max":0,"o":""}," ":{"ha":339,"x_min":0,"x_max":0,"o":""},"!":{"ha":420,"x_min":126,"x_max":294,"o":"m 126 66 q 148 9 126 33 q 210 -15 170 -15 q 273 9 251 -15 q 294 66 294 33 q 273 123 294 99 q 210 146 251 146 q 148 123 170 146 q 126 66 126 99 m 155 278 l 266 278 l 276 987 l 144 987 l 155 278 z "},"\"":{"ha":515,"x_min":68,"x_max":448,"o":"m 78 655 l 180 655 l 190 895 l 190 987 l 68 987 l 68 895 l 78 655 m 336 655 l 437 655 l 448 895 l 448 987 l 326 987 l 326 895 l 336 655 z "},"#":{"ha":1047,"x_min":43,"x_max":987,"o":"m 146 -14 l 244 -14 l 541 1018 l 443 1018 l 146 -14 m 490 -14 l 587 -14 l 884 1018 l 786 1018 l 490 -14 m 43 274 l 953 274 l 953 368 l 43 368 l 43 274 m 78 637 l 987 637 l 987 730 l 78 730 l 78 637 z "},"$":{"ha":694,"x_min":14,"x_max":672,"o":"m 14 258 q 105 66 14 137 q 347 -4 196 -4 q 584 66 496 -4 q 672 248 672 137 q 605 434 672 357 q 393 551 538 510 q 199 641 246 592 q 152 745 152 690 q 198 850 152 813 q 340 887 243 887 q 486 844 437 887 q 534 730 534 801 l 534 722 l 654 722 l 654 730 q 569 913 654 838 q 340 989 484 989 q 115 920 196 989 q 33 745 33 850 q 95 569 33 642 q 306 454 157 496 q 504 360 455 412 q 553 248 553 309 q 500 138 553 180 q 347 97 446 97 q 190 137 246 97 q 134 258 134 177 l 134 266 l 14 266 l 14 258 m 296 -115 l 397 -115 l 397 47 l 388 54 l 388 514 l 296 514 l 296 -115 m 305 514 l 397 514 l 397 1076 l 296 1076 l 296 947 l 305 940 l 305 514 z "},"%":{"ha":1253,"x_min":46,"x_max":1207,"o":"m 46 703 q 102 528 46 594 q 267 461 159 461 q 432 528 376 461 q 489 703 489 594 l 489 773 q 432 948 489 882 q 267 1015 376 1015 q 102 948 159 1015 q 46 773 46 882 l 46 703 m 157 703 l 157 773 q 182 873 157 834 q 267 913 206 913 q 353 873 328 913 q 378 773 378 834 l 378 703 q 353 602 378 642 q 267 563 328 563 q 182 602 206 563 q 157 703 157 642 m 982 961 l 897 1020 l 273 30 l 357 -29 l 982 961 m 764 228 q 821 53 764 119 q 985 -14 877 -14 q 1151 53 1094 -14 q 1207 228 1207 119 l 1207 298 q 1151 473 1207 407 q 985 540 1094 540 q 821 473 877 540 q 764 298 764 407 l 764 228 m 876 228 l 876 298 q 900 399 876 359 q 985 438 924 438 q 1071 399 1046 438 q 1096 298 1096 359 l 1096 228 q 1071 127 1096 167 q 985 88 1046 88 q 900 127 924 88 q 876 228 876 167 z "},"&":{"ha":868,"x_min":54,"x_max":852,"o":"m 54 258 q 139 63 54 139 q 373 -14 224 -14 q 669 122 549 -14 q 788 457 788 258 l 671 457 q 583 187 671 285 q 373 90 495 90 q 232 136 285 90 q 179 258 179 183 q 229 387 179 332 q 373 502 278 442 l 481 570 q 586 665 547 610 q 625 800 625 719 q 560 948 625 888 q 390 1008 495 1008 q 214 945 285 1008 q 142 787 142 882 q 181 654 142 719 q 292 502 220 590 l 701 0 l 852 0 l 387 570 q 293 695 320 651 q 266 787 266 739 q 299 869 266 834 q 390 905 332 905 q 478 873 448 905 q 509 793 509 841 q 488 719 509 753 q 414 651 468 685 l 305 583 q 129 443 203 519 q 54 258 54 366 z "},"'":{"ha":271,"x_min":68,"x_max":203,"o":"m 85 655 l 186 655 l 203 895 l 203 987 l 68 987 l 68 895 l 85 655 z "},"(":{"ha":475,"x_min":84,"x_max":450,"o":"m 450 -296 l 450 -174 q 291 4 366 -122 q 216 345 216 131 l 216 361 q 291 706 216 584 q 450 879 366 827 l 450 1001 q 198 779 312 936 q 84 356 84 622 l 84 349 q 198 -68 84 95 q 450 -296 312 -231 z "},")":{"ha":475,"x_min":24,"x_max":391,"o":"m 24 -296 q 277 -68 163 -231 q 391 349 391 95 l 391 356 q 277 779 391 622 q 24 1001 163 936 l 24 879 q 183 706 109 827 q 258 361 258 584 l 258 345 q 183 4 258 131 q 24 -174 109 -122 l 24 -296 z "},"*":{"ha":732,"x_min":39,"x_max":693,"o":"m 39 717 l 303 657 l 124 455 l 229 379 l 366 612 l 504 379 l 608 455 l 429 657 l 693 717 l 653 839 l 405 732 l 431 1001 l 302 1001 l 328 732 l 79 839 l 39 717 z "},"+":{"ha":694,"x_min":39,"x_max":656,"o":"m 39 401 l 656 401 l 656 512 l 39 512 l 39 401 m 286 127 l 408 127 l 408 787 l 286 787 l 286 127 z "},",":{"ha":393,"x_min":75,"x_max":264,"o":"m 75 -148 l 146 -197 q 232 -90 199 -152 q 264 47 264 -27 l 264 149 l 142 149 l 142 47 q 125 -59 142 -14 q 75 -148 107 -104 z "},"-":{"ha":484,"x_min":51,"x_max":433,"o":"m 51 369 l 433 369 l 433 486 l 51 486 l 51 369 z "},".":{"ha":393,"x_min":109,"x_max":285,"o":"m 109 70 q 131 10 109 35 q 197 -15 154 -15 q 262 10 239 -15 q 285 70 285 35 q 262 130 285 105 q 197 155 239 155 q 131 130 154 155 q 109 70 109 105 z "},"/":{"ha":396,"x_min":-68,"x_max":464,"o":"m -68 -85 l 52 -85 l 464 987 l 345 987 l -68 -85 z "},":":{"ha":407,"x_min":119,"x_max":288,"o":"m 119 66 q 141 9 119 33 q 203 -15 163 -15 q 266 9 244 -15 q 288 66 288 33 q 266 123 288 99 q 203 146 244 146 q 141 123 163 146 q 119 66 119 99 m 119 644 q 141 587 119 610 q 203 563 163 563 q 266 587 244 563 q 288 644 288 610 q 266 701 288 677 q 203 724 244 724 q 141 701 163 724 q 119 644 119 677 z "},";":{"ha":407,"x_min":81,"x_max":288,"o":"m 81 -148 l 153 -197 q 239 -90 206 -152 q 271 47 271 -27 l 271 149 l 149 149 l 149 47 q 132 -59 149 -14 q 81 -148 114 -104 m 119 644 q 141 587 119 610 q 203 563 163 563 q 266 587 244 563 q 288 644 288 610 q 266 701 288 677 q 203 724 244 724 q 141 701 163 724 q 119 644 119 677 z "},"<":{"ha":694,"x_min":68,"x_max":623,"o":"m 623 150 l 623 288 l 220 459 l 623 631 l 623 762 l 68 505 l 68 407 l 623 150 z "},"=":{"ha":694,"x_min":39,"x_max":656,"o":"m 39 258 l 656 258 l 656 373 l 39 373 l 39 258 m 39 526 l 656 526 l 656 641 l 39 641 l 39 526 z "},">":{"ha":694,"x_min":72,"x_max":627,"o":"m 72 150 l 627 407 l 627 505 l 72 762 l 72 624 l 475 452 l 72 281 l 72 150 z "},"?":{"ha":656,"x_min":41,"x_max":593,"o":"m 217 66 q 239 9 217 33 q 301 -15 260 -15 q 363 9 342 -15 q 385 66 385 33 q 363 123 385 99 q 301 146 342 146 q 239 123 260 146 q 217 66 217 99 m 41 743 l 166 743 l 166 756 q 205 856 166 821 q 319 891 244 891 q 430 852 393 891 q 467 746 467 814 q 431 632 467 678 q 340 531 396 586 q 254 418 275 467 q 232 285 232 370 l 232 278 l 358 278 l 358 285 q 372 375 358 332 q 444 471 386 418 q 543 585 492 514 q 593 746 593 655 q 520 931 593 861 q 319 1001 448 1001 q 115 935 190 1001 q 41 756 41 868 l 41 743 z "},"@":{"ha":1431,"x_min":77,"x_max":1354,"o":"m 417 271 q 473 75 417 149 q 624 0 529 0 q 726 34 678 0 q 807 122 773 68 q 893 34 834 68 q 1031 0 952 0 q 1260 122 1166 0 q 1354 441 1354 244 q 1185 843 1354 678 q 746 1008 1017 1008 q 276 802 475 1008 q 77 312 77 597 q 256 -138 77 27 q 678 -302 434 -302 q 838 -287 773 -302 q 949 -241 902 -271 l 949 -136 q 839 -178 905 -160 q 678 -197 773 -197 q 339 -64 475 -197 q 203 312 203 68 q 359 729 203 556 q 746 902 515 902 q 1104 763 977 902 q 1232 441 1232 624 q 1172 189 1232 285 q 1017 92 1112 92 q 935 124 963 92 q 922 237 906 156 l 1004 642 l 943 642 q 858 691 909 668 q 746 713 807 713 q 517 587 617 713 q 417 271 417 461 m 546 271 q 608 519 546 420 q 766 618 671 618 q 821 611 793 618 q 868 590 848 604 l 800 264 q 744 141 782 176 q 658 106 705 106 q 575 148 604 106 q 546 271 546 190 z "},"A":{"ha":868,"x_min":0,"x_max":868,"o":"m 0 0 l 130 0 l 404 746 q 418 789 412 768 q 429 833 425 810 l 436 833 q 447 789 441 810 q 461 746 453 768 l 732 0 l 868 0 l 492 994 l 376 994 l 0 0 m 161 258 l 705 258 l 665 365 l 201 365 l 161 258 z "},"B":{"ha":854,"x_min":115,"x_max":787,"o":"m 115 0 l 461 0 q 697 75 608 0 q 787 285 787 149 q 739 438 787 380 q 617 518 692 496 l 617 521 q 720 593 678 543 q 761 726 761 644 q 675 924 761 861 q 441 987 590 987 l 115 987 l 115 0 m 243 107 l 243 461 l 461 461 q 610 414 563 461 q 658 285 658 366 q 610 155 658 203 q 461 107 563 107 l 243 107 m 243 567 l 243 880 l 441 880 q 587 840 543 880 q 632 726 632 800 q 587 609 632 651 q 441 567 543 567 l 243 567 z "},"C":{"ha":922,"x_min":78,"x_max":865,"o":"m 78 463 q 195 107 78 235 q 488 -20 312 -20 q 758 77 665 -20 q 864 309 850 174 l 865 316 l 734 316 l 734 309 q 665 154 724 217 q 488 91 605 91 q 288 190 366 91 q 210 463 210 289 l 210 525 q 288 805 210 713 q 488 897 367 897 q 673 834 612 897 q 734 678 734 772 l 734 671 l 865 671 l 865 678 q 765 911 865 814 q 488 1008 665 1008 q 195 880 312 1008 q 78 525 78 753 l 78 463 z "},"D":{"ha":929,"x_min":115,"x_max":851,"o":"m 115 0 l 408 0 q 725 125 598 0 q 851 463 851 251 l 851 525 q 725 862 851 736 q 408 987 598 987 l 115 987 l 115 0 m 245 107 l 245 880 l 408 880 q 635 786 551 880 q 720 525 720 692 l 720 463 q 635 201 720 296 q 408 107 551 107 l 245 107 z "},"E":{"ha":788,"x_min":115,"x_max":742,"o":"m 115 0 l 742 0 l 742 107 l 245 107 l 245 456 l 673 456 l 673 563 l 245 563 l 245 880 l 735 880 l 735 987 l 115 987 l 115 0 z "},"F":{"ha":766,"x_min":115,"x_max":727,"o":"m 115 0 l 245 0 l 245 436 l 660 436 l 660 543 l 245 543 l 245 880 l 727 880 l 727 987 l 115 987 l 115 0 z "},"G":{"ha":954,"x_min":78,"x_max":867,"o":"m 78 463 q 195 107 78 235 q 509 -20 312 -20 q 729 20 637 -20 q 867 109 821 61 l 867 494 l 495 494 l 495 387 l 741 387 l 741 156 q 637 106 692 122 q 509 91 583 91 q 288 190 366 91 q 210 463 210 289 l 210 525 q 288 798 210 699 q 496 897 366 897 q 673 835 610 897 q 736 705 736 773 l 736 699 l 867 699 l 866 706 q 760 918 855 828 q 497 1008 665 1008 q 195 880 312 1008 q 78 525 78 753 l 78 463 z "},"H":{"ha":989,"x_min":115,"x_max":873,"o":"m 115 0 l 245 0 l 245 456 l 743 456 l 743 0 l 873 0 l 873 987 l 743 987 l 743 563 l 245 563 l 245 987 l 115 987 l 115 0 z "},"I":{"ha":368,"x_min":119,"x_max":249,"o":"m 119 0 l 249 0 l 249 987 l 119 987 l 119 0 z "},"J":{"ha":746,"x_min":17,"x_max":641,"o":"m 17 271 q 103 58 17 136 q 329 -20 190 -20 q 554 63 468 -20 q 641 288 641 146 l 641 987 l 511 987 l 511 288 q 462 142 511 193 q 329 91 414 91 q 196 137 244 91 q 147 271 147 183 l 147 278 l 17 278 l 17 271 z "},"K":{"ha":859,"x_min":115,"x_max":872,"o":"m 115 0 l 245 0 l 245 339 l 842 987 l 685 987 l 245 502 l 245 987 l 115 987 l 115 0 m 712 0 l 872 0 l 414 604 l 330 513 l 712 0 z "},"L":{"ha":750,"x_min":115,"x_max":713,"o":"m 115 0 l 713 0 l 713 107 l 245 107 l 245 987 l 115 987 l 115 0 z "},"M":{"ha":1214,"x_min":115,"x_max":1099,"o":"m 115 0 l 239 0 l 239 712 q 238 758 239 732 q 235 804 237 783 l 240 804 q 252 758 244 783 q 269 712 260 732 l 549 0 l 662 0 l 943 712 q 959 758 951 732 q 971 804 967 783 l 977 804 q 973 758 974 783 q 972 712 972 732 l 972 0 l 1099 0 l 1099 987 l 930 987 l 637 245 q 622 202 629 224 q 610 160 615 180 l 604 160 q 592 202 599 180 q 576 245 585 224 l 283 987 l 115 987 l 115 0 z "},"N":{"ha":990,"x_min":115,"x_max":875,"o":"m 115 0 l 243 0 l 243 678 q 242 724 243 699 q 241 770 242 749 l 246 770 q 267 732 256 753 q 292 692 279 712 l 739 0 l 875 0 l 875 987 l 747 987 l 747 309 q 748 263 747 289 q 749 218 748 238 l 743 218 q 723 255 735 235 q 698 296 711 275 l 251 987 l 115 987 l 115 0 z "},"O":{"ha":990,"x_min":78,"x_max":912,"o":"m 78 463 q 195 107 78 235 q 495 -20 312 -20 q 795 107 678 -20 q 912 463 912 235 l 912 525 q 795 880 912 753 q 495 1008 678 1008 q 195 880 312 1008 q 78 525 78 753 l 78 463 m 210 463 l 210 525 q 288 798 210 699 q 495 897 366 897 q 702 798 624 897 q 781 525 781 699 l 781 463 q 702 190 781 289 q 495 91 624 91 q 288 190 366 91 q 210 463 210 289 z "},"P":{"ha":814,"x_min":115,"x_max":780,"o":"m 115 0 l 245 0 l 245 387 l 442 387 q 692 470 605 387 q 780 688 780 553 q 692 906 780 824 q 442 987 605 987 l 115 987 l 115 0 m 245 494 l 245 880 l 442 880 q 604 825 557 880 q 650 688 650 770 q 604 550 650 607 q 442 494 557 494 l 245 494 z "},"Q":{"ha":990,"x_min":78,"x_max":912,"o":"m 78 463 q 195 107 78 235 q 495 -20 312 -20 q 795 107 678 -20 q 912 463 912 235 l 912 525 q 795 880 912 753 q 495 1008 678 1008 q 195 880 312 1008 q 78 525 78 753 l 78 463 m 210 463 l 210 525 q 288 798 210 699 q 495 897 366 897 q 702 798 624 897 q 781 525 781 699 l 781 463 q 702 190 781 289 q 495 91 624 91 q 288 190 366 91 q 210 463 210 289 m 814 -170 l 902 -81 l 661 105 l 576 20 l 814 -170 z "},"R":{"ha":848,"x_min":115,"x_max":821,"o":"m 115 0 l 245 0 l 245 403 l 437 403 q 682 484 595 403 q 768 697 768 566 q 682 908 768 829 q 437 987 595 987 l 115 987 l 115 0 m 245 509 l 245 882 l 437 882 q 593 829 549 882 q 637 697 637 776 q 593 564 637 618 q 437 509 549 509 l 245 509 m 675 0 l 821 0 l 563 475 l 434 456 l 675 0 z "},"S":{"ha":827,"x_min":61,"x_max":773,"o":"m 61 270 q 159 58 61 136 q 420 -20 258 -20 q 678 58 583 -20 q 773 258 773 136 q 701 447 773 380 q 471 559 629 514 q 261 641 312 604 q 210 743 210 678 q 260 855 210 814 q 414 897 309 897 q 571 848 518 897 q 624 722 624 800 l 624 713 l 754 713 l 754 722 q 662 927 754 846 q 414 1008 570 1008 q 170 931 258 1008 q 81 739 81 854 q 149 561 81 624 q 377 452 216 498 q 588 366 532 407 q 644 258 644 326 q 587 137 644 183 q 420 91 529 91 q 252 136 312 91 q 191 270 191 180 l 191 278 l 61 278 l 61 270 z "},"T":{"ha":798,"x_min":16,"x_max":781,"o":"m 16 880 l 334 880 l 334 0 l 464 0 l 464 880 l 781 880 l 781 987 l 16 987 l 16 880 z "},"U":{"ha":925,"x_min":105,"x_max":820,"o":"m 105 319 q 209 64 105 149 q 463 -20 313 -20 q 716 64 612 -20 q 820 319 820 149 l 820 987 l 690 987 l 690 319 q 627 147 690 203 q 463 91 564 91 q 298 147 361 91 q 235 319 235 203 l 235 987 l 105 987 l 105 319 z "},"V":{"ha":854,"x_min":0,"x_max":854,"o":"m 0 987 l 369 -7 l 486 -7 l 854 987 l 722 987 l 457 256 q 443 217 449 234 q 431 179 437 199 l 425 179 q 414 217 419 199 q 400 256 408 234 l 138 987 l 0 987 z "},"W":{"ha":1229,"x_min":34,"x_max":1195,"o":"m 277 -7 l 403 -7 l 593 726 q 604 769 600 749 q 612 812 608 790 l 617 812 q 625 769 621 790 q 635 726 629 749 l 826 -7 l 952 -7 l 1195 987 l 1066 987 l 905 256 q 897 219 899 233 q 891 183 894 205 l 885 183 q 880 219 882 205 q 871 256 878 233 l 681 987 l 549 987 l 366 256 q 357 219 359 233 q 352 183 355 205 l 345 183 q 340 219 342 205 q 332 256 338 233 l 164 987 l 34 987 l 277 -7 z "},"X":{"ha":829,"x_min":17,"x_max":812,"o":"m 17 0 l 161 0 l 447 454 l 456 454 l 795 987 l 651 987 l 382 547 l 372 547 l 17 0 m 34 987 l 372 454 l 379 454 l 665 0 l 812 0 l 456 547 l 450 547 l 180 987 l 34 987 z "},"Y":{"ha":833,"x_min":10,"x_max":823,"o":"m 351 0 l 481 0 l 481 369 l 823 987 l 682 987 l 456 570 q 436 532 446 549 q 420 497 427 515 l 416 497 q 399 532 408 515 q 379 570 390 549 l 157 987 l 10 987 l 351 369 l 351 0 z "},"Z":{"ha":807,"x_min":44,"x_max":762,"o":"m 44 0 l 762 0 l 762 107 l 199 107 l 741 892 l 741 987 l 52 987 l 52 880 l 585 880 l 44 95 l 44 0 z "},"[":{"ha":475,"x_min":98,"x_max":420,"o":"m 98 -210 l 420 -210 l 420 -102 l 223 -102 l 223 879 l 420 879 l 420 987 l 98 987 l 98 -210 z "},"\\":{"ha":396,"x_min":-68,"x_max":464,"o":"m -68 987 l 345 -85 l 464 -85 l 52 987 l -68 987 z "},"]":{"ha":475,"x_min":54,"x_max":377,"o":"m 377 -210 l 377 987 l 54 987 l 54 879 l 252 879 l 252 -102 l 54 -102 l 54 -210 l 377 -210 z "},"^":{"ha":793,"x_min":17,"x_max":777,"o":"m 17 488 l 153 488 l 397 875 l 641 488 l 777 488 l 454 987 l 339 987 l 17 488 z "},"_":{"ha":694,"x_min":0,"x_max":694,"o":"m 0 -282 l 694 -282 l 694 -165 l 0 -165 l 0 -282 z "},"`":{"ha":694,"x_min":189,"x_max":463,"o":"m 392 827 l 463 880 l 293 1084 l 189 1013 l 392 827 z "},"a":{"ha":750,"x_min":61,"x_max":680,"o":"m 61 210 q 132 44 61 102 q 305 -14 203 -14 q 449 20 393 -14 q 530 98 505 54 q 540 44 532 71 q 557 0 548 17 l 680 0 l 680 11 q 661 80 667 41 q 654 163 654 119 l 654 488 q 583 672 654 610 q 383 734 512 734 q 179 670 254 734 q 103 522 103 607 l 103 519 l 229 519 l 229 522 q 263 600 229 566 q 380 633 298 633 q 494 593 461 633 q 528 488 528 553 l 528 439 l 366 439 q 147 379 233 439 q 61 210 61 319 m 187 217 q 236 314 187 278 q 380 350 285 350 l 528 350 l 528 248 q 467 138 528 190 q 332 87 407 87 q 222 121 258 87 q 187 217 187 156 z "},"b":{"ha":793,"x_min":100,"x_max":736,"o":"m 100 0 l 214 0 l 220 93 l 224 93 q 307 18 251 49 q 437 -14 363 -14 q 654 88 573 -14 q 736 346 736 190 l 736 368 q 654 625 736 524 q 437 727 573 727 q 310 700 363 727 q 227 629 258 673 l 227 1042 l 100 1042 l 100 0 m 227 212 l 227 502 q 295 587 248 549 q 410 624 342 624 q 559 550 512 624 q 607 368 607 476 l 607 346 q 559 163 607 237 q 410 90 512 90 q 295 127 342 90 q 227 212 248 164 z "},"c":{"ha":724,"x_min":58,"x_max":677,"o":"m 58 346 q 145 82 58 184 q 387 -20 233 -20 q 604 57 530 -20 q 677 229 677 134 l 677 232 l 555 232 l 555 229 q 515 127 555 171 q 387 83 475 83 q 235 159 284 83 q 186 346 186 235 l 186 368 q 235 554 186 478 q 387 631 284 631 q 515 587 475 631 q 555 485 555 543 l 555 481 l 677 481 l 677 485 q 604 657 677 580 q 387 734 530 734 q 145 631 233 734 q 58 368 58 529 l 58 346 z "},"d":{"ha":793,"x_min":58,"x_max":693,"o":"m 58 346 q 139 88 58 190 q 356 -14 220 -14 q 487 18 431 -14 q 570 93 543 49 l 574 93 l 579 0 l 693 0 l 693 1042 l 567 1042 l 567 629 q 483 700 536 673 q 356 727 431 727 q 139 625 220 727 q 58 368 58 524 l 58 346 m 186 346 l 186 368 q 234 550 186 476 q 383 624 281 624 q 498 587 451 624 q 567 502 546 549 l 567 212 q 498 127 546 164 q 383 90 451 90 q 234 163 281 90 q 186 346 186 237 z "},"e":{"ha":738,"x_min":58,"x_max":684,"o":"m 58 346 q 146 82 58 184 q 401 -20 235 -20 q 573 24 503 -20 q 678 119 644 68 l 597 183 q 517 113 566 142 q 401 83 469 83 q 239 159 291 83 q 186 346 186 235 l 186 368 q 236 554 186 478 q 386 631 286 631 q 513 576 469 631 q 557 445 557 522 l 557 429 l 135 429 l 135 328 l 684 328 l 684 380 q 605 638 684 543 q 380 734 526 734 q 146 631 235 734 q 58 368 58 529 l 58 346 z "},"f":{"ha":407,"x_min":17,"x_max":460,"o":"m 133 0 l 259 0 l 259 658 l 259 673 l 259 814 q 292 916 259 882 q 387 949 326 949 q 421 947 404 949 q 453 943 438 945 l 460 1044 q 417 1053 439 1050 q 373 1055 395 1055 q 197 994 262 1055 q 133 814 133 932 l 133 0 m 17 617 l 414 617 l 414 713 l 212 713 l 180 713 l 17 713 l 17 617 z "},"g":{"ha":793,"x_min":58,"x_max":693,"o":"m 84 -193 q 210 -267 136 -237 q 373 -296 285 -296 q 604 -216 515 -296 q 693 14 693 -136 l 693 713 l 579 713 l 574 621 l 570 621 q 487 696 543 665 q 356 727 431 727 q 139 625 220 727 q 58 368 58 524 l 58 346 q 139 88 58 190 q 356 -14 220 -14 q 483 13 431 -14 q 567 84 536 40 l 567 14 q 514 -134 567 -81 q 370 -186 461 -186 q 248 -159 302 -186 q 163 -98 193 -132 l 84 -193 m 186 346 l 186 368 q 234 550 186 476 q 383 624 281 624 q 498 587 451 624 q 567 502 546 549 l 567 212 q 498 127 546 164 q 383 90 451 90 q 234 163 281 90 q 186 346 186 237 z "},"h":{"ha":772,"x_min":100,"x_max":678,"o":"m 100 0 l 227 0 l 227 505 q 298 589 252 556 q 405 621 345 621 q 514 584 475 621 q 552 462 552 547 l 552 0 l 678 0 l 678 460 q 614 666 678 604 q 450 727 550 727 q 323 699 381 727 q 227 625 264 671 l 227 1042 l 100 1042 l 100 0 z "},"i":{"ha":339,"x_min":91,"x_max":248,"o":"m 106 0 l 233 0 l 233 713 l 106 713 l 106 0 m 91 929 q 111 876 91 897 q 170 854 132 854 q 228 876 208 854 q 248 929 248 897 q 228 983 248 961 q 170 1004 208 1004 q 111 983 132 1004 q 91 929 91 961 z "},"j":{"ha":339,"x_min":-64,"x_max":248,"o":"m -64 -278 q -13 -290 -47 -284 q 47 -296 20 -296 q 185 -239 138 -296 q 233 -61 233 -183 l 233 713 l 106 713 l 106 -88 q 84 -166 106 -142 q 20 -190 61 -190 q -25 -185 0 -190 q -64 -176 -50 -180 l -64 -278 m 91 929 q 111 876 91 897 q 170 854 132 854 q 228 876 208 854 q 248 929 248 897 q 228 983 248 961 q 170 1004 208 1004 q 111 983 132 1004 q 91 929 91 961 z "},"k":{"ha":697,"x_min":100,"x_max":708,"o":"m 100 0 l 227 0 l 227 237 l 675 713 l 532 713 l 227 385 l 227 1042 l 100 1042 l 100 0 m 560 0 l 708 0 l 361 456 l 282 369 l 560 0 z "},"l":{"ha":338,"x_min":106,"x_max":232,"o":"m 106 0 l 232 0 l 232 1042 l 106 1042 l 106 0 z "},"m":{"ha":1196,"x_min":100,"x_max":1103,"o":"m 100 0 l 227 0 l 227 505 q 296 589 252 556 q 398 621 340 621 q 502 584 465 621 q 538 462 538 547 l 538 0 l 665 0 l 665 505 q 734 589 690 556 q 836 621 778 621 q 940 584 903 621 q 977 462 977 547 l 977 0 l 1103 0 l 1103 460 q 1040 666 1103 604 q 867 727 978 727 q 742 699 796 727 q 643 606 688 670 l 639 606 q 559 699 612 670 q 435 727 507 727 q 316 699 370 727 q 224 622 262 670 l 220 622 l 214 713 l 100 713 l 100 0 z "},"n":{"ha":772,"x_min":100,"x_max":678,"o":"m 100 0 l 227 0 l 227 505 q 298 589 252 556 q 405 621 345 621 q 514 584 475 621 q 552 462 552 547 l 552 0 l 678 0 l 678 460 q 614 666 678 604 q 442 727 550 727 q 318 699 374 727 q 224 622 262 671 l 220 622 l 214 713 l 100 713 l 100 0 z "},"o":{"ha":788,"x_min":58,"x_max":730,"o":"m 58 346 q 149 82 58 184 q 394 -20 241 -20 q 639 82 547 -20 q 730 346 730 184 l 730 368 q 639 631 730 529 q 394 734 547 734 q 149 631 241 734 q 58 368 58 529 l 58 346 m 186 368 q 239 554 186 478 q 394 631 291 631 q 549 554 497 631 q 602 368 602 478 l 602 346 q 549 159 602 235 q 394 83 497 83 q 239 159 291 83 q 186 346 186 235 l 186 368 z "},"p":{"ha":793,"x_min":100,"x_max":736,"o":"m 100 -282 l 227 -282 l 227 84 q 310 13 258 40 q 437 -14 363 -14 q 654 88 573 -14 q 736 346 736 190 l 736 368 q 654 625 736 524 q 437 727 573 727 q 307 696 363 727 q 224 621 251 665 l 220 621 l 214 713 l 100 713 l 100 -282 m 227 212 l 227 502 q 295 587 248 549 q 410 624 342 624 q 559 550 512 624 q 607 368 607 476 l 607 346 q 559 163 607 237 q 410 90 512 90 q 295 127 342 90 q 227 212 248 164 z "},"q":{"ha":793,"x_min":58,"x_max":693,"o":"m 58 346 q 139 88 58 190 q 356 -14 220 -14 q 483 13 431 -14 q 567 84 536 40 l 567 84 l 567 -282 l 693 -282 l 693 713 l 579 713 l 574 621 l 570 621 q 487 696 543 665 q 356 727 431 727 q 139 625 220 727 q 58 368 58 524 l 58 346 m 186 346 l 186 368 q 234 550 186 476 q 383 624 281 624 q 498 587 451 624 q 567 502 546 549 l 567 212 q 498 127 546 164 q 383 90 451 90 q 234 163 281 90 q 186 346 186 237 z "},"r":{"ha":475,"x_min":100,"x_max":454,"o":"m 100 0 l 227 0 l 227 502 q 290 581 247 549 q 393 613 332 613 q 426 612 411 613 q 454 608 441 610 l 454 724 q 431 730 448 727 q 400 734 415 734 q 295 700 339 734 q 224 622 251 667 l 220 622 l 214 713 l 100 713 l 100 0 z "},"s":{"ha":685,"x_min":54,"x_max":631,"o":"m 54 210 l 54 207 q 129 42 54 104 q 346 -20 203 -20 q 559 41 488 -20 q 631 197 631 102 q 568 342 631 292 q 390 420 505 393 q 235 471 275 448 q 196 536 196 495 q 230 604 196 576 q 339 631 264 631 q 449 602 414 631 q 485 522 485 572 l 485 515 l 610 515 l 610 519 q 536 676 610 618 q 339 734 461 734 q 144 675 217 734 q 71 529 71 617 q 139 392 71 441 q 322 315 207 342 q 472 263 437 288 q 507 190 507 237 q 464 113 507 142 q 346 83 420 83 q 226 114 271 83 q 180 207 180 145 l 180 210 l 54 210 z "},"t":{"ha":441,"x_min":0,"x_max":407,"o":"m 0 617 l 407 617 l 407 713 l 0 713 l 0 617 m 127 176 q 174 27 127 75 q 298 -20 220 -20 q 361 -14 332 -20 q 407 0 389 -8 l 407 103 q 370 92 388 96 q 332 88 351 88 q 273 109 292 88 q 254 176 254 129 l 254 890 l 127 890 l 127 675 l 127 655 l 127 176 z "},"u":{"ha":772,"x_min":94,"x_max":671,"o":"m 94 253 q 158 48 94 109 q 330 -14 222 -14 q 453 15 397 -14 q 548 92 509 43 l 552 92 l 557 0 l 671 0 l 671 713 l 545 713 l 545 209 q 473 125 519 157 q 367 92 427 92 q 258 129 296 92 q 220 252 220 166 l 220 713 l 94 713 l 94 253 z "},"v":{"ha":639,"x_min":0,"x_max":639,"o":"m 0 713 l 271 0 l 368 0 l 639 713 l 519 713 l 349 237 q 333 186 339 210 q 323 149 326 163 l 319 149 q 310 186 317 163 q 294 237 304 210 l 122 713 l 0 713 z "},"w":{"ha":1048,"x_min":17,"x_max":1031,"o":"m 17 713 l 237 0 l 336 0 l 491 461 q 508 515 500 488 q 522 570 515 543 l 526 570 q 541 515 533 543 q 557 461 549 488 l 713 0 l 811 0 l 1031 713 l 916 713 l 789 244 q 778 200 781 217 q 768 156 774 183 l 764 156 q 754 200 759 183 q 741 244 750 217 l 581 713 l 475 713 l 319 244 q 306 200 311 217 q 296 156 302 183 l 292 156 q 282 200 287 183 q 271 244 278 217 l 139 713 l 17 713 z "},"x":{"ha":663,"x_min":14,"x_max":650,"o":"m 14 0 l 156 0 l 371 328 l 378 328 l 636 713 l 494 713 l 292 395 l 285 395 l 14 0 m 27 713 l 285 328 l 290 328 l 505 0 l 650 0 l 378 395 l 373 395 l 172 713 l 27 713 z "},"y":{"ha":639,"x_min":7,"x_max":639,"o":"m 34 -282 q 74 -292 53 -289 q 122 -296 95 -296 q 259 -243 203 -296 q 349 -95 315 -190 l 639 713 l 519 713 l 362 244 q 346 193 353 217 q 332 149 338 170 l 328 149 q 315 193 322 170 q 298 244 307 217 l 129 713 l 7 713 l 273 3 l 273 3 q 198 -152 233 -116 q 115 -187 163 -187 q 73 -184 95 -187 q 34 -175 52 -180 l 34 -282 z "},"z":{"ha":673,"x_min":47,"x_max":629,"o":"m 47 0 l 629 0 l 629 103 l 198 103 l 609 623 l 609 713 l 53 713 l 53 610 l 457 610 l 47 92 l 47 0 z "},"{":{"ha":475,"x_min":43,"x_max":454,"o":"m 454 -212 l 454 -113 q 307 -56 354 -113 q 279 83 260 1 l 313 227 q 302 328 327 283 q 212 389 278 372 q 302 451 278 407 q 313 552 327 495 l 279 695 q 307 834 260 777 q 454 891 354 891 l 454 990 q 215 895 301 990 q 153 695 128 800 l 187 552 q 162 457 204 479 q 43 434 119 434 l 43 345 q 162 322 119 345 q 187 227 204 299 l 153 83 q 215 -117 128 -22 q 454 -212 301 -212 z "},"|":{"ha":401,"x_min":142,"x_max":259,"o":"m 142 -282 l 259 -282 l 259 1042 l 142 1042 l 142 -282 z "},"}":{"ha":475,"x_min":20,"x_max":431,"o":"m 20 -212 q 260 -117 174 -212 q 321 83 347 -22 l 288 227 q 313 322 271 299 q 431 345 355 345 l 431 434 q 313 457 355 434 q 288 552 271 479 l 321 695 q 260 895 347 800 q 20 990 174 990 l 20 891 q 168 834 121 891 q 195 695 215 777 l 161 552 q 172 451 148 495 q 263 389 197 407 q 172 328 197 372 q 161 227 148 283 l 195 83 q 168 -56 215 1 q 20 -113 121 -113 l 20 -212 z "},"~":{"ha":694,"x_min":31,"x_max":663,"o":"m 31 361 q 107 424 62 401 q 196 447 152 447 q 281 433 250 447 q 355 397 313 418 q 424 364 395 377 q 503 351 453 351 q 589 370 547 351 q 663 425 631 390 l 663 562 q 589 498 631 522 q 503 475 547 475 q 424 489 452 475 q 355 522 395 502 q 281 558 312 543 q 196 572 250 572 q 107 552 152 571 q 31 498 62 532 l 31 361 z "},"¡":{"ha":420,"x_min":126,"x_max":294,"o":"m 294 714 q 273 771 294 747 q 210 795 251 795 q 148 771 170 795 q 126 714 126 747 q 148 657 126 681 q 210 633 170 633 q 273 657 251 633 q 294 714 294 681 m 266 502 l 155 502 l 144 -208 l 276 -208 l 266 502 z "},"¢":{"ha":694,"x_min":44,"x_max":663,"o":"m 371 191 q 222 259 274 191 q 170 454 170 328 l 170 483 q 222 678 170 610 q 371 746 274 746 q 494 704 449 746 q 544 583 538 662 l 663 583 q 582 780 658 711 q 371 849 507 849 q 129 754 214 849 q 44 483 44 659 l 44 454 q 129 183 44 278 q 371 88 214 88 q 581 152 505 88 q 663 334 656 216 l 544 334 q 494 228 538 265 q 371 191 449 191 m 318 0 l 420 0 l 420 136 l 416 142 l 416 480 l 321 480 l 321 143 l 318 134 l 318 0 m 321 480 l 416 480 l 416 800 l 420 808 l 420 951 l 318 951 l 318 808 l 321 802 l 321 480 z "},"£":{"ha":694,"x_min":24,"x_max":697,"o":"m 697 0 l 697 113 l 218 113 q 284 196 266 140 q 294 345 303 252 l 260 705 q 290 846 250 804 q 395 888 330 888 q 497 857 458 888 q 537 748 537 826 l 537 737 l 667 737 l 667 748 q 595 931 667 861 q 394 1001 523 1001 q 189 917 258 1001 q 132 705 120 833 l 170 317 q 152 164 179 220 q 62 109 125 109 l 24 109 l 24 0 l 697 0 m 559 424 l 559 529 l 35 529 l 35 424 l 559 424 z "},"¤":{"ha":785,"x_min":8,"x_max":777,"o":"m 177 483 q 239 646 177 580 q 391 711 302 711 q 541 646 479 711 q 603 483 603 580 q 541 319 603 385 q 391 253 479 253 q 239 319 302 253 q 177 483 177 385 m 53 487 q 153 242 53 342 q 390 142 254 142 q 627 242 526 142 q 727 487 727 342 q 627 732 727 633 q 390 831 526 831 q 153 732 254 831 q 53 487 53 633 m 759 798 l 676 884 l 539 744 l 622 658 l 759 798 m 227 240 l 145 325 l 8 186 l 90 100 l 227 240 m 694 105 l 777 191 l 640 330 l 557 245 l 694 105 m 157 667 l 239 753 l 102 892 l 20 807 l 157 667 z "},"¥":{"ha":694,"x_min":-24,"x_max":718,"o":"m 29 205 l 671 205 l 671 313 l 29 313 l 29 205 m 29 426 l 671 426 l 671 534 l 420 534 l 387 454 l 313 454 l 277 534 l 29 534 l 29 426 m 285 0 l 410 0 l 410 372 l 718 987 l 582 987 l 392 576 q 372 527 382 555 q 355 460 361 498 l 342 460 q 326 520 337 486 q 305 576 315 555 l 118 987 l -24 987 l 285 372 l 285 0 z "},"¦":{"ha":401,"x_min":139,"x_max":262,"o":"m 262 -282 l 262 243 l 139 243 l 139 -282 l 262 -282 m 262 1042 l 139 1042 l 139 516 l 262 516 l 262 1042 z "},"§":{"ha":852,"x_min":81,"x_max":770,"o":"m 469 90 q 680 152 590 90 q 770 324 770 214 q 679 506 770 442 q 464 608 589 569 q 287 682 328 652 q 245 773 245 711 q 286 873 245 840 q 422 907 328 907 q 549 860 505 907 q 593 746 593 814 l 705 746 q 629 945 705 878 q 422 1011 553 1012 q 209 948 286 1010 q 133 766 133 885 q 207 591 133 644 q 411 498 280 538 q 590 416 534 456 q 647 314 647 377 q 595 213 647 255 q 469 171 543 171 l 469 90 m 364 606 q 168 550 254 606 q 81 391 81 493 q 161 218 81 285 q 366 109 241 151 q 551 20 503 64 q 600 -92 600 -24 q 543 -203 600 -165 q 406 -241 486 -241 q 267 -198 334 -241 q 200 -47 200 -156 l 89 -49 q 181 -275 89 -205 q 406 -345 274 -345 q 625 -274 538 -345 q 711 -77 711 -202 q 631 108 711 45 q 431 215 551 171 q 254 296 303 262 q 204 385 204 330 q 246 476 204 440 q 363 513 288 513 l 364 606 z "},"¨":{"ha":694,"x_min":127,"x_max":568,"o":"m 127 898 q 146 848 127 869 q 201 827 165 827 q 256 848 237 827 q 275 898 275 869 q 256 949 275 928 q 201 970 237 970 q 146 949 165 970 q 127 898 127 928 m 419 898 q 438 848 419 869 q 493 827 456 827 q 548 848 529 827 q 568 898 568 869 q 548 949 568 928 q 493 970 529 970 q 438 949 456 970 q 419 898 419 928 z "},"©":{"ha":1122,"x_min":26,"x_max":1096,"o":"m 699 370 q 667 278 699 310 q 568 245 635 245 q 455 292 496 245 q 415 421 415 338 l 415 507 q 452 635 415 589 q 562 682 490 682 q 664 652 629 682 q 699 562 699 622 l 823 562 q 756 730 823 667 q 563 793 690 793 q 360 712 436 793 q 284 477 284 631 l 284 450 q 360 218 284 296 q 551 139 435 139 q 742 197 663 139 q 822 370 822 254 l 699 370 m 126 466 q 254 794 126 661 q 562 927 382 927 q 868 794 741 927 q 996 466 996 661 q 868 137 996 271 q 562 3 741 3 q 254 137 382 3 q 126 466 126 271 m 26 466 q 183 64 26 229 q 561 -100 340 -100 q 939 64 781 -100 q 1096 466 1096 229 q 939 867 1096 705 q 561 1030 781 1030 q 183 867 340 1030 q 26 466 26 705 z "},"ª":{"ha":621,"x_min":96,"x_max":532,"o":"m 411 585 l 411 815 q 386 889 411 865 q 316 913 361 913 q 242 895 268 913 q 217 846 217 876 l 217 837 l 112 837 l 112 855 q 170 961 112 920 q 315 1002 229 1002 q 460 955 406 1002 q 514 814 514 907 l 514 602 q 518 538 514 568 q 532 479 522 508 l 440 479 q 418 528 425 499 q 411 585 411 557 m 431 779 l 431 707 l 324 707 q 233 682 263 707 q 202 625 202 657 q 224 577 202 596 q 289 557 245 557 q 377 588 332 557 q 422 644 422 618 l 435 568 q 375 502 420 534 q 262 469 331 469 q 139 511 182 469 q 96 623 96 553 q 152 738 96 697 q 323 779 209 779 l 431 779 z "},"¬":{"ha":694,"x_min":39,"x_max":629,"o":"m 629 543 l 39 543 l 39 432 l 509 432 l 509 255 l 629 255 l 629 543 z "},"­":{"ha":0,"x_min":0,"x_max":0,"o":""},"®":{"ha":1122,"x_min":26,"x_max":1096,"o":"m 26 466 q 183 64 26 229 q 561 -100 340 -100 q 939 64 781 -100 q 1096 466 1096 229 q 939 867 1096 705 q 561 1030 781 1030 q 183 867 340 1030 q 26 466 26 705 m 126 466 q 254 794 126 661 q 562 927 382 927 q 868 794 741 927 q 996 466 996 661 q 868 137 996 271 q 562 3 741 3 q 254 137 382 3 q 126 466 126 271 m 580 405 l 707 153 l 828 153 l 828 165 l 713 359 q 693 391 702 379 q 664 419 685 404 q 775 476 738 434 q 812 595 812 518 q 743 738 812 690 q 557 785 673 785 l 338 785 l 338 153 l 450 153 l 450 405 l 580 405 m 557 683 q 663 660 637 682 q 689 583 689 637 q 656 520 689 539 q 574 500 624 500 l 450 500 l 450 683 l 557 683 z "},"¯":{"ha":694,"x_min":134,"x_max":560,"o":"m 560 930 l 134 930 l 134 827 l 560 827 l 560 930 z "},"°":{"ha":519,"x_min":89,"x_max":432,"o":"m 89 825 q 140 702 89 753 q 262 651 191 651 q 382 702 332 651 q 432 825 432 753 q 382 949 432 897 q 262 1002 332 1002 q 140 949 191 1002 q 89 825 89 897 m 173 825 q 199 889 173 863 q 262 915 225 915 q 323 889 298 915 q 348 825 348 863 q 323 763 348 788 q 262 738 298 738 q 199 763 225 738 q 173 825 173 788 z "},"±":{"ha":694,"x_min":39,"x_max":656,"o":"m 39 414 l 656 414 l 656 526 l 39 526 l 39 414 m 286 168 l 408 168 l 408 787 l 286 787 l 286 168 m 39 1 l 656 1 l 656 112 l 39 112 l 39 1 z "},"²":{"ha":509,"x_min":45,"x_max":463,"o":"m 58 473 l 463 473 l 463 573 l 219 573 l 317 659 q 410 752 377 711 q 442 848 442 794 q 391 965 442 922 q 248 1008 339 1008 q 98 955 152 1008 q 45 812 45 901 l 159 812 q 183 888 159 863 q 251 913 207 913 q 309 897 291 913 q 326 847 326 880 q 313 794 326 825 q 253 723 299 764 l 58 546 l 58 473 z "},"³":{"ha":509,"x_min":43,"x_max":452,"o":"m 43 624 q 99 505 43 544 q 245 465 155 465 q 393 506 333 465 q 452 622 452 547 q 430 698 452 667 q 361 745 408 729 q 424 791 402 760 q 445 857 445 822 q 389 969 445 930 q 244 1008 332 1008 q 107 964 163 1008 q 50 852 50 920 l 157 852 q 182 898 157 881 q 246 915 208 915 q 311 898 293 915 q 330 851 330 881 q 308 800 330 819 q 237 781 286 781 l 180 781 l 180 698 l 237 698 q 313 680 287 697 q 338 627 338 663 q 317 576 338 594 q 248 559 295 559 q 176 576 203 559 q 149 624 149 593 l 43 624 z "},"´":{"ha":694,"x_min":241,"x_max":508,"o":"m 241 886 l 305 827 l 508 1014 l 404 1085 l 241 886 z "},"µ":{"ha":812,"x_min":-28,"x_max":742,"o":"m 164 713 l -28 -282 l 98 -282 l 157 28 q 202 -2 177 10 q 259 -14 228 -14 q 388 15 327 -14 q 498 92 450 43 l 502 92 l 490 0 l 604 0 l 742 713 l 616 713 l 518 209 q 430 125 482 157 q 317 92 377 92 q 215 129 246 92 q 201 252 184 166 l 290 713 l 164 713 z "},"¶":{"ha":855,"x_min":38,"x_max":720,"o":"m 497 -99 l 497 987 l 312 987 q 109 913 180 987 q 38 730 38 840 q 109 545 38 618 q 312 472 180 472 l 371 472 l 371 -99 l 497 -99 m 593 989 l 593 -99 l 720 -99 l 720 989 l 593 989 z "},"·":{"ha":407,"x_min":119,"x_max":288,"o":"m 119 508 q 141 451 119 475 q 203 427 163 427 q 266 451 244 427 q 288 508 288 475 q 266 565 288 541 q 203 589 244 589 q 141 565 163 589 q 119 508 119 541 z "},"¸":{"ha":694,"x_min":231,"x_max":491,"o":"m 298 14 l 271 -106 q 348 -124 328 -111 q 368 -170 368 -136 q 341 -221 368 -205 q 231 -237 314 -237 l 236 -310 q 432 -271 373 -310 q 491 -168 491 -231 q 448 -83 491 -109 q 367 -51 406 -58 l 386 14 l 298 14 z "},"¹":{"ha":509,"x_min":83,"x_max":340,"o":"m 83 821 l 230 873 l 230 473 l 340 473 l 340 1008 l 310 1008 l 83 929 l 83 821 z "},"º":{"ha":632,"x_min":83,"x_max":547,"o":"m 83 707 q 146 536 83 603 q 317 469 210 469 q 485 536 423 469 q 547 707 547 603 l 547 762 q 485 934 547 867 q 315 1002 422 1002 q 146 934 209 1002 q 83 762 83 867 l 83 707 m 194 762 q 224 864 194 823 q 315 906 254 906 q 407 864 376 906 q 437 762 437 823 l 437 707 q 407 604 437 646 q 317 563 377 563 q 224 604 254 563 q 194 707 194 646 l 194 762 z "},"¼":{"ha":1042,"x_min":83,"x_max":1017,"o":"m 83 821 l 230 873 l 230 473 l 340 473 l 340 1008 l 310 1008 l 83 929 l 83 821 m 916 961 l 831 1020 l 207 30 l 292 -29 l 916 961 m 584 124 l 1017 124 l 1017 212 l 686 212 l 813 389 l 920 542 l 836 542 l 579 193 l 584 124 m 944 542 l 838 542 l 838 0 l 944 0 l 944 542 z "},"½":{"ha":1042,"x_min":83,"x_max":1013,"o":"m 83 821 l 230 873 l 230 473 l 340 473 l 340 1008 l 310 1008 l 83 929 l 83 821 m 854 961 l 769 1020 l 144 30 l 229 -29 l 854 961 m 608 0 l 1013 0 l 1013 100 l 769 100 l 867 186 q 960 280 927 238 q 992 376 992 321 q 941 492 992 449 q 798 536 889 536 q 648 482 702 536 q 595 340 595 429 l 709 340 q 733 416 709 391 q 801 441 757 441 q 859 424 841 441 q 876 374 876 407 q 863 322 876 352 q 803 250 849 292 l 608 73 l 608 0 z "},"¾":{"ha":1042,"x_min":43,"x_max":1017,"o":"m 43 624 q 99 505 43 544 q 245 465 155 465 q 393 506 333 465 q 452 622 452 547 q 430 698 452 667 q 361 745 408 729 q 424 791 402 760 q 445 857 445 822 q 389 969 445 930 q 244 1008 332 1008 q 107 964 163 1008 q 50 852 50 920 l 157 852 q 182 898 157 881 q 246 915 208 915 q 311 898 293 915 q 330 851 330 881 q 308 800 330 819 q 237 781 286 781 l 180 781 l 180 698 l 237 698 q 313 680 287 697 q 338 627 338 663 q 317 576 338 594 q 248 559 295 559 q 176 576 203 559 q 149 624 149 593 l 43 624 m 916 961 l 831 1020 l 207 30 l 292 -29 l 916 961 m 584 124 l 1017 124 l 1017 212 l 686 212 l 813 389 l 920 542 l 836 542 l 579 193 l 584 124 m 944 542 l 838 542 l 838 0 l 944 0 l 944 542 z "},"¿":{"ha":656,"x_min":64,"x_max":616,"o":"m 439 713 q 418 770 439 746 q 355 793 396 793 q 293 770 315 793 q 271 713 271 746 q 293 656 271 680 q 355 632 315 632 q 418 656 396 632 q 439 713 439 680 m 616 36 l 490 36 l 490 22 q 451 -77 490 -42 q 338 -113 412 -113 q 227 -74 263 -113 q 190 33 190 -35 q 225 146 190 100 q 316 248 260 193 q 403 360 381 311 q 425 494 425 409 l 425 500 l 298 500 l 298 494 q 284 403 298 446 q 213 308 271 360 q 114 194 164 264 q 64 33 64 123 q 136 -153 64 -83 q 338 -222 209 -222 q 541 -156 467 -222 q 616 22 616 -90 l 616 36 z "},"À":{"ha":868,"x_min":0,"x_max":868,"o":"m 0 0 l 130 0 l 404 746 q 418 789 412 768 q 429 833 425 810 l 436 833 q 447 789 441 810 q 461 746 453 768 l 732 0 l 868 0 l 492 994 l 376 994 l 0 0 m 161 258 l 705 258 l 665 365 l 201 365 l 161 258 m 404 1086 l 480 1137 l 350 1339 l 243 1273 l 404 1086 z "},"Á":{"ha":868,"x_min":0,"x_max":868,"o":"m 0 0 l 130 0 l 404 746 q 418 789 412 768 q 429 833 425 810 l 436 833 q 447 789 441 810 q 461 746 453 768 l 732 0 l 868 0 l 492 994 l 376 994 l 0 0 m 161 258 l 705 258 l 665 365 l 201 365 l 161 258 m 355 1125 l 441 1085 l 610 1288 l 500 1355 l 355 1125 z "},"Â":{"ha":868,"x_min":0,"x_max":868,"o":"m 0 0 l 130 0 l 404 746 q 418 789 412 768 q 429 833 425 810 l 436 833 q 447 789 441 810 q 461 746 453 768 l 732 0 l 868 0 l 492 994 l 376 994 l 0 0 m 161 258 l 705 258 l 665 365 l 201 365 l 161 258 m 475 1339 l 378 1339 l 203 1109 l 321 1109 l 429 1232 l 542 1107 l 655 1109 l 475 1339 z "},"Ã":{"ha":868,"x_min":0,"x_max":868,"o":"m 0 0 l 130 0 l 404 746 q 418 789 412 768 q 429 833 425 810 l 436 833 q 447 789 441 810 q 461 746 453 768 l 732 0 l 868 0 l 492 994 l 376 994 l 0 0 m 161 258 l 705 258 l 665 365 l 201 365 l 161 258 m 158 1160 l 209 1102 q 256 1149 222 1122 q 325 1176 289 1176 q 375 1163 347 1176 q 428 1133 404 1150 q 486 1102 450 1118 q 558 1085 522 1085 q 648 1115 601 1085 q 724 1201 695 1145 l 677 1259 q 631 1213 660 1232 q 571 1194 602 1194 q 506 1213 539 1194 q 453 1244 473 1232 q 397 1273 425 1263 q 338 1283 369 1283 q 234 1245 286 1283 q 158 1160 183 1206 z "},"Ä":{"ha":868,"x_min":0,"x_max":868,"o":"m 0 0 l 130 0 l 404 746 q 418 789 412 768 q 429 833 425 810 l 436 833 q 447 789 441 810 q 461 746 453 768 l 732 0 l 868 0 l 492 994 l 376 994 l 0 0 m 161 258 l 705 258 l 665 365 l 201 365 l 161 258 m 199 1212 q 221 1156 199 1177 q 278 1135 242 1135 q 337 1155 317 1135 q 357 1212 357 1175 q 335 1268 357 1246 q 278 1289 314 1289 q 220 1269 240 1289 q 199 1212 199 1249 m 511 1212 q 533 1156 511 1177 q 590 1135 554 1135 q 649 1155 629 1135 q 669 1212 669 1175 q 647 1268 669 1246 q 590 1289 626 1289 q 532 1269 552 1289 q 511 1212 511 1249 z "},"Å":{"ha":868,"x_min":0,"x_max":868,"o":"m 0 0 l 130 0 l 404 746 q 418 789 412 768 q 429 833 425 810 l 436 833 q 447 789 441 810 q 461 746 453 768 l 732 0 l 868 0 l 492 994 l 376 994 l 0 0 m 161 258 l 705 258 l 665 365 l 201 365 l 161 258 m 272 1240 q 318 1129 272 1173 q 434 1085 363 1085 q 550 1129 505 1085 q 596 1240 596 1173 q 550 1352 596 1308 q 434 1396 505 1396 q 318 1352 363 1396 q 272 1240 272 1308 m 357 1240 q 377 1297 357 1278 q 434 1317 397 1317 q 490 1296 469 1317 q 511 1240 511 1275 q 491 1183 511 1203 q 434 1164 471 1164 q 378 1185 399 1164 q 357 1240 357 1206 z "},"Æ":{"ha":1298,"x_min":-10,"x_max":1252,"o":"m 205 239 l 702 239 l 702 358 l 273 358 l 205 239 m -10 0 l 144 0 l 631 840 l 631 0 l 1252 0 l 1252 107 l 761 107 l 761 456 l 1183 456 l 1183 563 l 761 563 l 761 880 l 1245 880 l 1245 987 l 587 987 l -10 0 z "},"Ç":{"ha":922,"x_min":78,"x_max":865,"o":"m 78 463 q 195 107 78 235 q 488 -20 312 -20 q 758 77 665 -20 q 864 309 850 174 l 865 316 l 734 316 l 734 309 q 665 154 724 217 q 488 91 605 91 q 288 190 366 91 q 210 463 210 289 l 210 525 q 288 805 210 713 q 488 897 367 897 q 673 834 612 897 q 734 678 734 772 l 734 671 l 865 671 l 865 678 q 765 911 865 814 q 488 1008 665 1008 q 195 880 312 1008 q 78 525 78 753 l 78 463 m 426 14 l 398 -134 q 478 -151 455 -138 q 502 -197 502 -163 q 460 -246 502 -233 q 345 -258 418 -259 l 350 -351 q 563 -308 487 -351 q 639 -195 639 -265 q 597 -112 639 -143 q 501 -71 555 -81 l 520 14 l 426 14 z "},"È":{"ha":788,"x_min":115,"x_max":742,"o":"m 115 0 l 742 0 l 742 107 l 245 107 l 245 456 l 673 456 l 673 563 l 245 563 l 245 880 l 735 880 l 735 987 l 115 987 l 115 0 m 400 1086 l 476 1137 l 346 1339 l 239 1273 l 400 1086 z "},"É":{"ha":788,"x_min":115,"x_max":742,"o":"m 115 0 l 742 0 l 742 107 l 245 107 l 245 456 l 673 456 l 673 563 l 245 563 l 245 880 l 735 880 l 735 987 l 115 987 l 115 0 m 351 1125 l 437 1085 l 606 1288 l 496 1355 l 351 1125 z "},"Ê":{"ha":788,"x_min":115,"x_max":742,"o":"m 115 0 l 742 0 l 742 107 l 245 107 l 245 456 l 673 456 l 673 563 l 245 563 l 245 880 l 735 880 l 735 987 l 115 987 l 115 0 m 471 1339 l 374 1339 l 199 1109 l 317 1109 l 425 1232 l 538 1107 l 651 1109 l 471 1339 z "},"Ë":{"ha":788,"x_min":115,"x_max":742,"o":"m 115 0 l 742 0 l 742 107 l 245 107 l 245 456 l 673 456 l 673 563 l 245 563 l 245 880 l 735 880 l 735 987 l 115 987 l 115 0 m 195 1212 q 217 1156 195 1177 q 274 1135 238 1135 q 333 1155 313 1135 q 353 1212 353 1175 q 331 1268 353 1246 q 274 1289 310 1289 q 216 1269 236 1289 q 195 1212 195 1249 m 507 1212 q 529 1156 507 1177 q 586 1135 550 1135 q 645 1155 625 1135 q 665 1212 665 1175 q 643 1268 665 1246 q 586 1289 622 1289 q 528 1269 548 1289 q 507 1212 507 1249 z "},"Ì":{"ha":368,"x_min":-7,"x_max":249,"o":"m 119 0 l 249 0 l 249 987 l 119 987 l 119 0 m 154 1086 l 230 1137 l 100 1339 l -7 1273 l 154 1086 z "},"Í":{"ha":368,"x_min":105,"x_max":359,"o":"m 119 0 l 249 0 l 249 987 l 119 987 l 119 0 m 105 1125 l 191 1085 l 359 1288 l 250 1355 l 105 1125 z "},"Î":{"ha":368,"x_min":-47,"x_max":405,"o":"m 119 0 l 249 0 l 249 987 l 119 987 l 119 0 m 225 1339 l 127 1339 l -47 1109 l 71 1109 l 179 1232 l 292 1107 l 405 1109 l 225 1339 z "},"Ï":{"ha":368,"x_min":-51,"x_max":418,"o":"m 119 0 l 249 0 l 249 987 l 119 987 l 119 0 m -51 1212 q -30 1156 -51 1177 q 28 1135 -8 1135 q 86 1155 66 1135 q 106 1212 106 1175 q 85 1268 106 1246 q 28 1289 64 1289 q -31 1269 -10 1289 q -51 1212 -51 1249 m 261 1212 q 282 1156 261 1177 q 340 1135 304 1135 q 398 1155 378 1135 q 418 1212 418 1175 q 397 1268 418 1246 q 340 1289 376 1289 q 281 1269 302 1289 q 261 1212 261 1249 z "},"Ð":{"ha":929,"x_min":14,"x_max":851,"o":"m 115 0 l 408 0 q 725 125 598 0 q 851 463 851 251 l 851 525 q 725 862 851 736 q 408 987 598 987 l 115 987 l 115 0 m 245 107 l 245 880 l 408 880 q 635 786 551 880 q 720 525 720 692 l 720 463 q 635 201 720 296 q 408 107 551 107 l 245 107 m 14 425 l 424 425 l 424 537 l 14 537 l 14 425 z "},"Ñ":{"ha":990,"x_min":115,"x_max":875,"o":"m 115 0 l 243 0 l 243 678 q 242 724 243 699 q 241 770 242 749 l 246 770 q 267 732 256 753 q 292 692 279 712 l 739 0 l 875 0 l 875 987 l 747 987 l 747 309 q 748 263 747 289 q 749 218 748 238 l 743 218 q 723 255 735 235 q 698 296 711 275 l 251 987 l 115 987 l 115 0 m 219 1160 l 270 1102 q 317 1149 283 1122 q 386 1176 350 1176 q 436 1163 408 1176 q 489 1133 465 1150 q 547 1102 511 1118 q 619 1085 583 1085 q 709 1115 662 1085 q 785 1201 756 1145 l 739 1259 q 692 1213 721 1232 q 632 1194 663 1194 q 567 1213 600 1194 q 514 1244 534 1232 q 458 1273 486 1263 q 399 1283 430 1283 q 295 1245 347 1283 q 219 1160 244 1206 z "},"Ò":{"ha":990,"x_min":78,"x_max":912,"o":"m 78 463 q 195 107 78 235 q 495 -20 312 -20 q 795 107 678 -20 q 912 463 912 235 l 912 525 q 795 880 912 753 q 495 1008 678 1008 q 195 880 312 1008 q 78 525 78 753 l 78 463 m 210 463 l 210 525 q 288 798 210 699 q 495 897 366 897 q 702 798 624 897 q 781 525 781 699 l 781 463 q 702 190 781 289 q 495 91 624 91 q 288 190 366 91 q 210 463 210 289 m 465 1086 l 541 1137 l 411 1339 l 304 1273 l 465 1086 z "},"Ó":{"ha":990,"x_min":78,"x_max":912,"o":"m 78 463 q 195 107 78 235 q 495 -20 312 -20 q 795 107 678 -20 q 912 463 912 235 l 912 525 q 795 880 912 753 q 495 1008 678 1008 q 195 880 312 1008 q 78 525 78 753 l 78 463 m 210 463 l 210 525 q 288 798 210 699 q 495 897 366 897 q 702 798 624 897 q 781 525 781 699 l 781 463 q 702 190 781 289 q 495 91 624 91 q 288 190 366 91 q 210 463 210 289 m 416 1125 l 503 1085 l 671 1288 l 561 1355 l 416 1125 z "},"Ô":{"ha":990,"x_min":78,"x_max":912,"o":"m 78 463 q 195 107 78 235 q 495 -20 312 -20 q 795 107 678 -20 q 912 463 912 235 l 912 525 q 795 880 912 753 q 495 1008 678 1008 q 195 880 312 1008 q 78 525 78 753 l 78 463 m 210 463 l 210 525 q 288 798 210 699 q 495 897 366 897 q 702 798 624 897 q 781 525 781 699 l 781 463 q 702 190 781 289 q 495 91 624 91 q 288 190 366 91 q 210 463 210 289 m 536 1339 l 439 1339 l 264 1109 l 382 1109 l 490 1232 l 603 1107 l 716 1109 l 536 1339 z "},"Õ":{"ha":990,"x_min":78,"x_max":912,"o":"m 78 463 q 195 107 78 235 q 495 -20 312 -20 q 795 107 678 -20 q 912 463 912 235 l 912 525 q 795 880 912 753 q 495 1008 678 1008 q 195 880 312 1008 q 78 525 78 753 l 78 463 m 210 463 l 210 525 q 288 798 210 699 q 495 897 366 897 q 702 798 624 897 q 781 525 781 699 l 781 463 q 702 190 781 289 q 495 91 624 91 q 288 190 366 91 q 210 463 210 289 m 219 1160 l 270 1102 q 317 1149 283 1122 q 386 1176 350 1176 q 436 1163 408 1176 q 489 1133 465 1150 q 547 1102 511 1118 q 619 1085 583 1085 q 709 1115 662 1085 q 785 1201 756 1145 l 739 1259 q 692 1213 721 1232 q 632 1194 663 1194 q 567 1213 600 1194 q 514 1244 534 1232 q 458 1273 486 1263 q 399 1283 430 1283 q 295 1245 347 1283 q 219 1160 244 1206 z "},"Ö":{"ha":990,"x_min":78,"x_max":912,"o":"m 78 463 q 195 107 78 235 q 495 -20 312 -20 q 795 107 678 -20 q 912 463 912 235 l 912 525 q 795 880 912 753 q 495 1008 678 1008 q 195 880 312 1008 q 78 525 78 753 l 78 463 m 210 463 l 210 525 q 288 798 210 699 q 495 897 366 897 q 702 798 624 897 q 781 525 781 699 l 781 463 q 702 190 781 289 q 495 91 624 91 q 288 190 366 91 q 210 463 210 289 m 260 1212 q 282 1156 260 1177 q 339 1135 303 1135 q 398 1155 378 1135 q 418 1212 418 1175 q 396 1268 418 1246 q 339 1289 375 1289 q 281 1269 301 1289 q 260 1212 260 1249 m 572 1212 q 594 1156 572 1177 q 651 1135 615 1135 q 710 1155 690 1135 q 730 1212 730 1175 q 708 1268 730 1246 q 651 1289 687 1289 q 593 1269 613 1289 q 572 1212 572 1249 z "},"×":{"ha":694,"x_min":56,"x_max":631,"o":"m 129 161 l 629 672 l 556 749 l 56 237 l 129 161 m 551 161 l 631 244 l 138 749 l 58 665 l 551 161 z "},"Ø":{"ha":990,"x_min":78,"x_max":912,"o":"m 78 463 q 195 107 78 235 q 495 -20 312 -20 q 795 107 678 -20 q 912 463 912 235 l 912 525 q 795 880 912 753 q 495 1008 678 1008 q 195 880 312 1008 q 78 525 78 753 l 78 463 m 210 463 l 210 525 q 288 798 210 699 q 495 897 366 897 q 702 798 624 897 q 781 525 781 699 l 781 463 q 702 190 781 289 q 495 91 624 91 q 288 190 366 91 q 210 463 210 289 m 285 -92 l 400 -92 l 429 16 l 416 19 l 547 527 l 473 573 l 334 37 l 321 41 l 285 -92 m 589 1080 l 560 972 l 574 969 l 473 573 l 547 527 l 655 951 l 669 948 l 705 1080 l 589 1080 z "},"Ù":{"ha":925,"x_min":105,"x_max":820,"o":"m 105 319 q 209 64 105 149 q 463 -20 313 -20 q 716 64 612 -20 q 820 319 820 149 l 820 987 l 690 987 l 690 319 q 627 147 690 203 q 463 91 564 91 q 298 147 361 91 q 235 319 235 203 l 235 987 l 105 987 l 105 319 m 433 1086 l 509 1137 l 378 1339 l 272 1273 l 433 1086 z "},"Ú":{"ha":925,"x_min":105,"x_max":820,"o":"m 105 319 q 209 64 105 149 q 463 -20 313 -20 q 716 64 612 -20 q 820 319 820 149 l 820 987 l 690 987 l 690 319 q 627 147 690 203 q 463 91 564 91 q 298 147 361 91 q 235 319 235 203 l 235 987 l 105 987 l 105 319 m 384 1125 l 470 1085 l 638 1288 l 528 1355 l 384 1125 z "},"Û":{"ha":925,"x_min":105,"x_max":820,"o":"m 105 319 q 209 64 105 149 q 463 -20 313 -20 q 716 64 612 -20 q 820 319 820 149 l 820 987 l 690 987 l 690 319 q 627 147 690 203 q 463 91 564 91 q 298 147 361 91 q 235 319 235 203 l 235 987 l 105 987 l 105 319 m 504 1339 l 406 1339 l 232 1109 l 349 1109 l 458 1232 l 570 1107 l 684 1109 l 504 1339 z "},"Ü":{"ha":925,"x_min":105,"x_max":820,"o":"m 105 319 q 209 64 105 149 q 463 -20 313 -20 q 716 64 612 -20 q 820 319 820 149 l 820 987 l 690 987 l 690 319 q 627 147 690 203 q 463 91 564 91 q 298 147 361 91 q 235 319 235 203 l 235 987 l 105 987 l 105 319 m 228 1212 q 249 1156 228 1177 q 307 1135 271 1135 q 365 1155 345 1135 q 385 1212 385 1175 q 364 1268 385 1246 q 307 1289 342 1289 q 248 1269 269 1289 q 228 1212 228 1249 m 540 1212 q 561 1156 540 1177 q 618 1135 583 1135 q 677 1155 657 1135 q 697 1212 697 1175 q 676 1268 697 1246 q 618 1289 654 1289 q 560 1269 581 1289 q 540 1212 540 1249 z "},"Ý":{"ha":833,"x_min":10,"x_max":823,"o":"m 351 0 l 481 0 l 481 369 l 823 987 l 682 987 l 456 570 q 436 532 446 549 q 420 497 427 515 l 416 497 q 399 532 408 515 q 379 570 390 549 l 157 987 l 10 987 l 351 369 l 351 0 m 338 1125 l 424 1085 l 592 1288 l 482 1355 l 338 1125 z "},"Þ":{"ha":793,"x_min":115,"x_max":760,"o":"m 115 987 l 115 0 l 241 0 l 241 213 l 429 213 q 674 290 589 213 q 760 500 760 367 q 674 711 760 634 q 429 789 589 789 l 241 789 l 241 987 l 115 987 m 429 686 q 586 637 538 686 q 634 499 634 589 q 586 362 634 410 q 429 315 538 315 l 241 315 l 241 686 l 429 686 z "},"ß":{"ha":804,"x_min":100,"x_max":772,"o":"m 225 741 q 264 890 225 842 q 374 938 304 938 q 466 907 429 938 q 503 817 503 877 q 491 751 503 779 q 460 696 479 723 q 410 628 438 666 q 382 541 382 591 q 440 432 382 479 q 547 347 498 386 q 620 284 586 316 q 653 205 653 252 q 617 118 653 148 q 512 89 581 89 q 412 116 448 89 q 376 200 376 143 l 376 206 l 266 206 l 266 189 q 333 37 266 87 q 511 -14 399 -14 q 698 46 624 -14 q 772 191 772 106 q 735 329 772 279 q 646 420 699 380 q 546 496 591 462 q 501 563 501 530 q 521 608 501 583 q 563 660 541 634 q 605 727 588 689 q 622 824 622 764 q 555 982 622 923 q 376 1040 488 1040 q 171 959 241 1040 q 100 741 100 878 l 100 0 l 225 0 l 225 741 z "},"à":{"ha":750,"x_min":61,"x_max":680,"o":"m 61 210 q 132 44 61 102 q 305 -14 203 -14 q 449 20 393 -14 q 530 98 505 54 q 540 44 532 71 q 557 0 548 17 l 680 0 l 680 11 q 661 80 667 41 q 654 163 654 119 l 654 488 q 583 672 654 610 q 383 734 512 734 q 179 670 254 734 q 103 522 103 607 l 103 519 l 229 519 l 229 522 q 263 600 229 566 q 380 633 298 633 q 494 593 461 633 q 528 488 528 553 l 528 439 l 366 439 q 147 379 233 439 q 61 210 61 319 m 187 217 q 236 314 187 278 q 380 350 285 350 l 528 350 l 528 248 q 467 138 528 190 q 332 87 407 87 q 222 121 258 87 q 187 217 187 156 m 420 827 l 491 880 l 321 1084 l 217 1013 l 420 827 z "},"á":{"ha":750,"x_min":61,"x_max":680,"o":"m 61 210 q 132 44 61 102 q 305 -14 203 -14 q 449 20 393 -14 q 530 98 505 54 q 540 44 532 71 q 557 0 548 17 l 680 0 l 680 11 q 661 80 667 41 q 654 163 654 119 l 654 488 q 583 672 654 610 q 383 734 512 734 q 179 670 254 734 q 103 522 103 607 l 103 519 l 229 519 l 229 522 q 263 600 229 566 q 380 633 298 633 q 494 593 461 633 q 528 488 528 553 l 528 439 l 366 439 q 147 379 233 439 q 61 210 61 319 m 187 217 q 236 314 187 278 q 380 350 285 350 l 528 350 l 528 248 q 467 138 528 190 q 332 87 407 87 q 222 121 258 87 q 187 217 187 156 m 269 886 l 333 827 l 536 1014 l 432 1085 l 269 886 z "},"â":{"ha":750,"x_min":61,"x_max":680,"o":"m 61 210 q 132 44 61 102 q 305 -14 203 -14 q 449 20 393 -14 q 530 98 505 54 q 540 44 532 71 q 557 0 548 17 l 680 0 l 680 11 q 661 80 667 41 q 654 163 654 119 l 654 488 q 583 672 654 610 q 383 734 512 734 q 179 670 254 734 q 103 522 103 607 l 103 519 l 229 519 l 229 522 q 263 600 229 566 q 380 633 298 633 q 494 593 461 633 q 528 488 528 553 l 528 439 l 366 439 q 147 379 233 439 q 61 210 61 319 m 187 217 q 236 314 187 278 q 380 350 285 350 l 528 350 l 528 248 q 467 138 528 190 q 332 87 407 87 q 222 121 258 87 q 187 217 187 156 m 413 1040 l 337 1040 l 171 827 l 274 827 l 375 935 l 477 827 l 581 827 l 413 1040 z "},"ã":{"ha":750,"x_min":61,"x_max":680,"o":"m 61 210 q 132 44 61 102 q 305 -14 203 -14 q 449 20 393 -14 q 530 98 505 54 q 540 44 532 71 q 557 0 548 17 l 680 0 l 680 11 q 661 80 667 41 q 654 163 654 119 l 654 488 q 583 672 654 610 q 383 734 512 734 q 179 670 254 734 q 103 522 103 607 l 103 519 l 229 519 l 229 522 q 263 600 229 566 q 380 633 298 633 q 494 593 461 633 q 528 488 528 553 l 528 439 l 366 439 q 147 379 233 439 q 61 210 61 319 m 187 217 q 236 314 187 278 q 380 350 285 350 l 528 350 l 528 248 q 467 138 528 190 q 332 87 407 87 q 222 121 258 87 q 187 217 187 156 m 134 899 l 185 837 q 225 880 197 855 q 284 904 252 904 q 327 892 304 904 q 373 868 350 881 q 426 842 394 857 q 491 827 458 827 q 575 852 530 827 q 646 924 620 876 l 591 991 q 551 948 575 966 q 500 930 528 930 q 448 945 475 930 q 399 975 422 960 q 348 1000 374 991 q 295 1008 323 1008 q 203 975 250 1008 q 134 899 156 942 z "},"ä":{"ha":750,"x_min":61,"x_max":680,"o":"m 61 210 q 132 44 61 102 q 305 -14 203 -14 q 449 20 393 -14 q 530 98 505 54 q 540 44 532 71 q 557 0 548 17 l 680 0 l 680 11 q 661 80 667 41 q 654 163 654 119 l 654 488 q 583 672 654 610 q 383 734 512 734 q 179 670 254 734 q 103 522 103 607 l 103 519 l 229 519 l 229 522 q 263 600 229 566 q 380 633 298 633 q 494 593 461 633 q 528 488 528 553 l 528 439 l 366 439 q 147 379 233 439 q 61 210 61 319 m 187 217 q 236 314 187 278 q 380 350 285 350 l 528 350 l 528 248 q 467 138 528 190 q 332 87 407 87 q 222 121 258 87 q 187 217 187 156 m 155 898 q 174 848 155 869 q 229 827 193 827 q 284 848 265 827 q 303 898 303 869 q 284 949 303 928 q 229 970 265 970 q 174 949 193 970 q 155 898 155 928 m 447 898 q 466 848 447 869 q 521 827 484 827 q 576 848 557 827 q 595 898 595 869 q 576 949 595 928 q 521 970 557 970 q 466 949 484 970 q 447 898 447 928 z "},"å":{"ha":750,"x_min":61,"x_max":680,"o":"m 61 210 q 132 44 61 102 q 305 -14 203 -14 q 449 20 393 -14 q 530 98 505 54 q 540 44 532 71 q 557 0 548 17 l 680 0 l 680 11 q 661 80 667 41 q 654 163 654 119 l 654 488 q 583 672 654 610 q 383 734 512 734 q 179 670 254 734 q 103 522 103 607 l 103 519 l 229 519 l 229 522 q 263 600 229 566 q 380 633 298 633 q 494 593 461 633 q 528 488 528 553 l 528 439 l 366 439 q 147 379 233 439 q 61 210 61 319 m 187 217 q 236 314 187 278 q 380 350 285 350 l 528 350 l 528 248 q 467 138 528 190 q 332 87 407 87 q 222 121 258 87 q 187 217 187 156 m 222 972 q 266 869 222 911 q 375 827 310 827 q 484 869 439 827 q 528 972 528 911 q 484 1077 528 1034 q 375 1120 439 1120 q 266 1077 310 1120 q 222 972 222 1034 m 296 972 q 318 1028 296 1004 q 375 1053 340 1053 q 432 1028 410 1053 q 454 972 454 1004 q 432 918 454 941 q 375 895 410 895 q 318 919 340 895 q 296 972 296 943 z "},"æ":{"ha":1202,"x_min":61,"x_max":1147,"o":"m 187 217 q 236 314 187 278 q 380 350 285 350 l 528 350 l 528 248 q 467 138 528 190 q 332 87 407 87 q 222 121 258 87 q 187 217 187 156 m 61 203 q 132 44 61 102 q 305 -14 203 -14 q 476 27 408 -14 q 572 144 544 67 q 687 20 608 61 q 865 -20 766 -20 q 1037 24 966 -20 q 1142 119 1108 68 l 1061 183 q 981 113 1030 142 q 865 83 932 83 q 703 159 755 83 q 650 346 650 235 l 650 368 q 700 554 650 478 q 842 631 749 631 q 976 576 932 631 q 1021 445 1020 522 l 1020 429 l 599 429 l 599 328 l 1147 328 l 1147 380 q 1069 638 1147 543 q 844 734 990 734 q 688 689 745 734 q 618 591 631 644 q 553 689 611 644 q 383 734 494 734 q 179 670 254 734 q 103 522 103 607 l 103 519 l 229 519 l 229 522 q 263 600 229 566 q 380 633 298 633 q 494 593 461 633 q 528 488 528 553 l 528 439 l 366 439 q 147 379 233 439 q 61 203 61 319 z "},"ç":{"ha":724,"x_min":58,"x_max":677,"o":"m 58 346 q 145 82 58 184 q 387 -20 233 -20 q 604 57 530 -20 q 677 229 677 134 l 677 232 l 555 232 l 555 229 q 515 127 555 171 q 387 83 475 83 q 235 159 284 83 q 186 346 186 235 l 186 368 q 235 554 186 478 q 387 631 284 631 q 515 587 475 631 q 555 485 555 543 l 555 481 l 677 481 l 677 485 q 604 657 677 580 q 387 734 530 734 q 145 631 233 734 q 58 368 58 529 l 58 346 m 338 14 l 311 -106 q 388 -124 368 -111 q 408 -170 408 -136 q 381 -221 408 -205 q 271 -237 354 -237 l 276 -310 q 472 -271 413 -310 q 531 -168 531 -231 q 488 -83 531 -109 q 407 -51 446 -58 l 426 14 l 338 14 z "},"è":{"ha":738,"x_min":58,"x_max":684,"o":"m 58 346 q 146 82 58 184 q 401 -20 235 -20 q 573 24 503 -20 q 678 119 644 68 l 597 183 q 517 113 566 142 q 401 83 469 83 q 239 159 291 83 q 186 346 186 235 l 186 368 q 236 554 186 478 q 386 631 286 631 q 513 576 469 631 q 557 445 557 522 l 557 429 l 135 429 l 135 328 l 684 328 l 684 380 q 605 638 684 543 q 380 734 526 734 q 146 631 235 734 q 58 368 58 529 l 58 346 m 425 827 l 496 880 l 326 1084 l 222 1013 l 425 827 z "},"é":{"ha":738,"x_min":58,"x_max":684,"o":"m 58 346 q 146 82 58 184 q 401 -20 235 -20 q 573 24 503 -20 q 678 119 644 68 l 597 183 q 517 113 566 142 q 401 83 469 83 q 239 159 291 83 q 186 346 186 235 l 186 368 q 236 554 186 478 q 386 631 286 631 q 513 576 469 631 q 557 445 557 522 l 557 429 l 135 429 l 135 328 l 684 328 l 684 380 q 605 638 684 543 q 380 734 526 734 q 146 631 235 734 q 58 368 58 529 l 58 346 m 273 886 l 338 827 l 541 1014 l 437 1085 l 273 886 z "},"ê":{"ha":738,"x_min":58,"x_max":684,"o":"m 58 346 q 146 82 58 184 q 401 -20 235 -20 q 573 24 503 -20 q 678 119 644 68 l 597 183 q 517 113 566 142 q 401 83 469 83 q 239 159 291 83 q 186 346 186 235 l 186 368 q 236 554 186 478 q 386 631 286 631 q 513 576 469 631 q 557 445 557 522 l 557 429 l 135 429 l 135 328 l 684 328 l 684 380 q 605 638 684 543 q 380 734 526 734 q 146 631 235 734 q 58 368 58 529 l 58 346 m 418 1040 l 342 1040 l 176 827 l 279 827 l 380 935 l 481 827 l 586 827 l 418 1040 z "},"ë":{"ha":738,"x_min":58,"x_max":684,"o":"m 58 346 q 146 82 58 184 q 401 -20 235 -20 q 573 24 503 -20 q 678 119 644 68 l 597 183 q 517 113 566 142 q 401 83 469 83 q 239 159 291 83 q 186 346 186 235 l 186 368 q 236 554 186 478 q 386 631 286 631 q 513 576 469 631 q 557 445 557 522 l 557 429 l 135 429 l 135 328 l 684 328 l 684 380 q 605 638 684 543 q 380 734 526 734 q 146 631 235 734 q 58 368 58 529 l 58 346 m 159 898 q 178 848 159 869 q 233 827 197 827 q 289 848 270 827 q 308 898 308 869 q 289 949 308 928 q 233 970 270 970 q 178 949 197 970 q 159 898 159 928 m 452 898 q 470 848 452 869 q 526 827 489 827 q 581 848 562 827 q 600 898 600 869 q 581 949 600 928 q 526 970 562 970 q 470 949 489 970 q 452 898 452 928 z "},"ì":{"ha":339,"x_min":12,"x_max":286,"o":"m 106 0 l 233 0 l 233 713 l 106 713 l 106 0 m 214 827 l 286 880 l 115 1084 l 12 1013 l 214 827 z "},"í":{"ha":339,"x_min":63,"x_max":330,"o":"m 106 0 l 233 0 l 233 713 l 106 713 l 106 0 m 63 886 l 127 827 l 330 1014 l 227 1085 l 63 886 z "},"î":{"ha":339,"x_min":-35,"x_max":376,"o":"m 106 0 l 233 0 l 233 713 l 106 713 l 106 0 m 208 1040 l 132 1040 l -35 827 l 68 827 l 170 935 l 271 827 l 376 827 l 208 1040 z "},"ï":{"ha":339,"x_min":-51,"x_max":390,"o":"m 106 0 l 233 0 l 233 713 l 106 713 l 106 0 m -51 898 q -32 848 -51 869 q 23 827 -13 827 q 79 848 60 827 q 98 898 98 869 q 79 949 98 928 q 23 970 60 970 q -32 949 -13 970 q -51 898 -51 928 m 241 898 q 260 848 241 869 q 315 827 279 827 q 371 848 351 827 q 390 898 390 869 q 371 949 390 928 q 315 970 351 970 q 260 949 279 970 q 241 898 241 928 z "},"ð":{"ha":755,"x_min":58,"x_max":698,"o":"m 145 964 q 445 793 317 919 q 572 431 572 667 l 572 363 q 521 168 572 246 q 383 90 470 90 q 236 162 288 90 q 184 317 184 234 q 238 494 184 429 q 391 560 292 560 q 537 511 488 560 q 586 416 586 461 l 633 416 q 554 585 633 507 q 361 663 476 663 q 144 568 231 663 q 58 317 58 473 q 148 83 58 180 q 380 -14 238 -14 q 608 91 517 -14 q 698 363 698 196 l 698 429 q 555 852 698 684 q 184 1072 412 1021 l 145 964 m 635 968 l 579 1048 l 215 801 l 271 720 l 635 968 z "},"ñ":{"ha":772,"x_min":100,"x_max":678,"o":"m 100 0 l 227 0 l 227 505 q 298 589 252 556 q 405 621 345 621 q 514 584 475 621 q 552 462 552 547 l 552 0 l 678 0 l 678 460 q 614 666 678 604 q 442 727 550 727 q 318 699 374 727 q 224 622 262 671 l 220 622 l 214 713 l 100 713 l 100 0 m 144 899 l 196 837 q 236 880 208 855 q 295 904 263 904 q 338 892 315 904 q 384 868 361 881 q 437 842 405 857 q 502 827 469 827 q 586 852 541 827 q 656 924 631 876 l 602 991 q 562 948 586 966 q 511 930 538 930 q 459 945 486 930 q 410 975 433 960 q 359 1000 385 991 q 306 1008 334 1008 q 214 975 260 1008 q 144 899 167 942 z "},"ò":{"ha":788,"x_min":58,"x_max":730,"o":"m 58 346 q 149 82 58 184 q 394 -20 241 -20 q 639 82 547 -20 q 730 346 730 184 l 730 368 q 639 631 730 529 q 394 734 547 734 q 149 631 241 734 q 58 368 58 529 l 58 346 m 186 368 q 239 554 186 478 q 394 631 291 631 q 549 554 497 631 q 602 368 602 478 l 602 346 q 549 159 602 235 q 394 83 497 83 q 239 159 291 83 q 186 346 186 235 l 186 368 m 439 827 l 510 880 l 340 1084 l 236 1013 l 439 827 z "},"ó":{"ha":788,"x_min":58,"x_max":730,"o":"m 58 346 q 149 82 58 184 q 394 -20 241 -20 q 639 82 547 -20 q 730 346 730 184 l 730 368 q 639 631 730 529 q 394 734 547 734 q 149 631 241 734 q 58 368 58 529 l 58 346 m 186 368 q 239 554 186 478 q 394 631 291 631 q 549 554 497 631 q 602 368 602 478 l 602 346 q 549 159 602 235 q 394 83 497 83 q 239 159 291 83 q 186 346 186 235 l 186 368 m 288 886 l 352 827 l 555 1014 l 451 1085 l 288 886 z "},"ô":{"ha":788,"x_min":58,"x_max":730,"o":"m 58 346 q 149 82 58 184 q 394 -20 241 -20 q 639 82 547 -20 q 730 346 730 184 l 730 368 q 639 631 730 529 q 394 734 547 734 q 149 631 241 734 q 58 368 58 529 l 58 346 m 186 368 q 239 554 186 478 q 394 631 291 631 q 549 554 497 631 q 602 368 602 478 l 602 346 q 549 159 602 235 q 394 83 497 83 q 239 159 291 83 q 186 346 186 235 l 186 368 m 432 1040 l 356 1040 l 190 827 l 293 827 l 394 935 l 496 827 l 600 827 l 432 1040 z "},"õ":{"ha":788,"x_min":58,"x_max":730,"o":"m 58 346 q 149 82 58 184 q 394 -20 241 -20 q 639 82 547 -20 q 730 346 730 184 l 730 368 q 639 631 730 529 q 394 734 547 734 q 149 631 241 734 q 58 368 58 529 l 58 346 m 186 368 q 239 554 186 478 q 394 631 291 631 q 549 554 497 631 q 602 368 602 478 l 602 346 q 549 159 602 235 q 394 83 497 83 q 239 159 291 83 q 186 346 186 235 l 186 368 m 153 899 l 204 837 q 244 880 216 855 q 303 904 271 904 q 346 892 323 904 q 392 868 369 881 q 445 842 413 857 q 510 827 477 827 q 594 852 549 827 q 665 924 639 876 l 610 991 q 570 948 594 966 q 519 930 547 930 q 467 945 494 930 q 418 975 441 960 q 367 1000 393 991 q 314 1008 342 1008 q 222 975 269 1008 q 153 899 175 942 z "},"ö":{"ha":788,"x_min":58,"x_max":730,"o":"m 58 346 q 149 82 58 184 q 394 -20 241 -20 q 639 82 547 -20 q 730 346 730 184 l 730 368 q 639 631 730 529 q 394 734 547 734 q 149 631 241 734 q 58 368 58 529 l 58 346 m 186 368 q 239 554 186 478 q 394 631 291 631 q 549 554 497 631 q 602 368 602 478 l 602 346 q 549 159 602 235 q 394 83 497 83 q 239 159 291 83 q 186 346 186 235 l 186 368 m 174 898 q 193 848 174 869 q 248 827 212 827 q 303 848 284 827 q 322 898 322 869 q 303 949 322 928 q 248 970 284 970 q 193 949 212 970 q 174 898 174 928 m 466 898 q 485 848 466 869 q 540 827 503 827 q 595 848 576 827 q 614 898 614 869 q 595 949 614 928 q 540 970 576 970 q 485 949 503 970 q 466 898 466 928 z "},"÷":{"ha":694,"x_min":39,"x_max":656,"o":"m 262 722 q 283 664 262 688 q 347 641 304 641 q 410 664 388 641 q 432 722 432 688 q 410 782 432 758 q 347 806 388 806 q 283 782 304 806 q 262 722 262 758 m 262 195 q 283 137 262 161 q 347 113 304 113 q 410 137 388 113 q 432 195 432 161 q 410 255 432 231 q 347 279 388 279 q 283 255 304 279 q 262 195 262 231 m 39 399 l 656 399 l 656 515 l 39 515 l 39 399 z "},"ø":{"ha":788,"x_min":58,"x_max":730,"o":"m 58 346 q 149 82 58 184 q 394 -20 241 -20 q 639 82 547 -20 q 730 346 730 184 l 730 368 q 639 631 730 529 q 394 734 547 734 q 149 631 241 734 q 58 368 58 529 l 58 346 m 186 368 q 239 554 186 478 q 394 631 291 631 q 549 554 497 631 q 602 368 602 478 l 602 346 q 549 159 602 235 q 394 83 497 83 q 239 159 291 83 q 186 346 186 235 l 186 368 m 165 -69 l 277 -73 l 327 45 l 313 48 l 437 359 l 370 407 l 234 68 l 222 71 l 165 -69 m 508 787 l 465 680 l 478 676 l 370 407 l 437 359 l 557 657 l 571 654 l 624 785 l 508 787 z "},"ù":{"ha":772,"x_min":94,"x_max":671,"o":"m 94 253 q 158 48 94 109 q 330 -14 222 -14 q 453 15 397 -14 q 548 92 509 43 l 552 92 l 557 0 l 671 0 l 671 713 l 545 713 l 545 209 q 473 125 519 157 q 367 92 427 92 q 258 129 296 92 q 220 252 220 166 l 220 713 l 94 713 l 94 253 m 431 827 l 502 880 l 332 1084 l 228 1013 l 431 827 z "},"ú":{"ha":772,"x_min":94,"x_max":671,"o":"m 94 253 q 158 48 94 109 q 330 -14 222 -14 q 453 15 397 -14 q 548 92 509 43 l 552 92 l 557 0 l 671 0 l 671 713 l 545 713 l 545 209 q 473 125 519 157 q 367 92 427 92 q 258 129 296 92 q 220 252 220 166 l 220 713 l 94 713 l 94 253 m 279 886 l 344 827 l 547 1014 l 443 1085 l 279 886 z "},"û":{"ha":772,"x_min":94,"x_max":671,"o":"m 94 253 q 158 48 94 109 q 330 -14 222 -14 q 453 15 397 -14 q 548 92 509 43 l 552 92 l 557 0 l 671 0 l 671 713 l 545 713 l 545 209 q 473 125 519 157 q 367 92 427 92 q 258 129 296 92 q 220 252 220 166 l 220 713 l 94 713 l 94 253 m 424 1040 l 348 1040 l 182 827 l 285 827 l 386 935 l 488 827 l 592 827 l 424 1040 z "},"ü":{"ha":772,"x_min":94,"x_max":671,"o":"m 94 253 q 158 48 94 109 q 330 -14 222 -14 q 453 15 397 -14 q 548 92 509 43 l 552 92 l 557 0 l 671 0 l 671 713 l 545 713 l 545 209 q 473 125 519 157 q 367 92 427 92 q 258 129 296 92 q 220 252 220 166 l 220 713 l 94 713 l 94 253 m 165 898 q 184 848 165 869 q 239 827 203 827 q 295 848 276 827 q 314 898 314 869 q 295 949 314 928 q 239 970 276 970 q 184 949 203 970 q 165 898 165 928 m 458 898 q 476 848 458 869 q 532 827 495 827 q 587 848 568 827 q 606 898 606 869 q 587 949 606 928 q 532 970 568 970 q 476 949 495 970 q 458 898 458 928 z "},"ý":{"ha":639,"x_min":7,"x_max":639,"o":"m 34 -282 q 74 -292 53 -289 q 122 -296 95 -296 q 259 -243 203 -296 q 349 -95 315 -190 l 639 713 l 519 713 l 362 244 q 346 193 353 217 q 332 149 338 170 l 328 149 q 315 193 322 170 q 298 244 307 217 l 129 713 l 7 713 l 273 3 l 273 3 q 198 -152 233 -116 q 115 -187 163 -187 q 73 -184 95 -187 q 34 -175 52 -180 l 34 -282 m 225 886 l 290 827 l 492 1014 l 389 1085 l 225 886 z "},"þ":{"ha":793,"x_min":100,"x_max":736,"o":"m 100 -282 l 226 -282 l 227 79 l 234 79 q 312 13 261 39 q 437 -14 363 -14 q 654 88 573 -14 q 736 346 736 190 l 736 368 q 654 625 736 524 q 437 727 573 727 q 310 700 363 727 q 227 629 258 673 l 227 1042 l 100 1042 l 100 -282 m 227 212 l 227 502 q 295 587 248 549 q 410 624 342 624 q 559 550 512 624 q 607 368 607 476 l 607 346 q 559 163 607 237 q 410 90 512 90 q 295 127 342 90 q 227 212 248 164 z "},"ÿ":{"ha":639,"x_min":7,"x_max":639,"o":"m 34 -282 q 74 -292 53 -289 q 122 -296 95 -296 q 259 -243 203 -296 q 349 -95 315 -190 l 639 713 l 519 713 l 362 244 q 346 193 353 217 q 332 149 338 170 l 328 149 q 315 193 322 170 q 298 244 307 217 l 129 713 l 7 713 l 273 3 l 273 3 q 198 -152 233 -116 q 115 -187 163 -187 q 73 -184 95 -187 q 34 -175 52 -180 l 34 -282 m 111 898 q 130 848 111 869 q 185 827 149 827 q 241 848 222 827 q 260 898 260 869 q 241 949 260 928 q 185 970 222 970 q 130 949 149 970 q 111 898 111 928 m 404 898 q 422 848 404 869 q 477 827 441 827 q 533 848 513 827 q 552 898 552 869 q 533 949 552 928 q 477 970 513 970 q 422 949 441 970 q 404 898 404 928 z "},"Ā":{"ha":868,"x_min":0,"x_max":868,"o":"m 0 0 l 130 0 l 404 746 q 418 789 412 768 q 429 833 425 810 l 436 833 q 447 789 441 810 q 461 746 453 768 l 732 0 l 868 0 l 492 994 l 376 994 l 0 0 m 161 258 l 705 258 l 665 365 l 201 365 l 161 258 m 233 1135 l 635 1135 l 635 1241 l 233 1241 l 233 1135 z "},"ā":{"ha":750,"x_min":61,"x_max":680,"o":"m 61 210 q 132 44 61 102 q 305 -14 203 -14 q 449 20 393 -14 q 530 98 505 54 q 540 44 532 71 q 557 0 548 17 l 680 0 l 680 11 q 661 80 667 41 q 654 163 654 119 l 654 488 q 583 672 654 610 q 383 734 512 734 q 179 670 254 734 q 103 522 103 607 l 103 519 l 229 519 l 229 522 q 263 600 229 566 q 380 633 298 633 q 494 593 461 633 q 528 488 528 553 l 528 439 l 366 439 q 147 379 233 439 q 61 210 61 319 m 187 217 q 236 314 187 278 q 380 350 285 350 l 528 350 l 528 248 q 467 138 528 190 q 332 87 407 87 q 222 121 258 87 q 187 217 187 156 m 588 930 l 162 930 l 162 827 l 588 827 l 588 930 z "},"Ă":{"ha":868,"x_min":0,"x_max":868,"o":"m 0 0 l 130 0 l 404 746 q 418 789 412 768 q 429 833 425 810 l 436 833 q 447 789 441 810 q 461 746 453 768 l 732 0 l 868 0 l 492 994 l 376 994 l 0 0 m 161 258 l 705 258 l 665 365 l 201 365 l 161 258 m 631 1313 q 553 1233 602 1267 q 434 1200 503 1200 q 320 1235 370 1200 q 242 1313 271 1270 l 174 1266 q 277 1137 207 1189 q 434 1085 347 1085 q 600 1142 532 1085 q 694 1265 668 1198 l 631 1313 z "},"ă":{"ha":750,"x_min":61,"x_max":680,"o":"m 61 210 q 132 44 61 102 q 305 -14 203 -14 q 449 20 393 -14 q 530 98 505 54 q 540 44 532 71 q 557 0 548 17 l 680 0 l 680 11 q 661 80 667 41 q 654 163 654 119 l 654 488 q 583 672 654 610 q 383 734 512 734 q 179 670 254 734 q 103 522 103 607 l 103 519 l 229 519 l 229 522 q 263 600 229 566 q 380 633 298 633 q 494 593 461 633 q 528 488 528 553 l 528 439 l 366 439 q 147 379 233 439 q 61 210 61 319 m 187 217 q 236 314 187 278 q 380 350 285 350 l 528 350 l 528 248 q 467 138 528 190 q 332 87 407 87 q 222 121 258 87 q 187 217 187 156 m 540 1029 q 475 956 515 988 q 377 924 434 924 q 283 957 323 924 q 219 1029 243 991 l 149 994 q 238 864 177 916 q 376 812 300 812 q 521 869 462 812 q 604 993 581 926 l 540 1029 z "},"Ą":{"ha":868,"x_min":0,"x_max":951,"o":"m 0 0 l 130 0 l 404 746 q 418 789 412 768 q 429 833 425 810 l 436 833 q 447 789 441 810 q 461 746 453 768 l 732 0 l 868 0 l 492 994 l 376 994 l 0 0 m 161 258 l 705 258 l 665 365 l 201 365 l 161 258 m 556 -208 q 608 -299 556 -260 q 730 -337 659 -337 q 861 -310 801 -337 q 951 -242 920 -283 l 912 -172 q 825 -220 870 -204 q 749 -235 781 -235 q 693 -217 713 -235 q 673 -165 673 -198 q 695 -103 673 -135 q 788 0 717 -71 l 724 35 q 600 -87 643 -28 q 556 -208 556 -147 z "},"ą":{"ha":750,"x_min":61,"x_max":680,"o":"m 61 210 q 132 44 61 102 q 305 -14 203 -14 q 449 20 393 -14 q 530 98 505 54 q 540 44 532 71 q 557 0 548 17 l 680 0 l 680 11 q 661 80 667 41 q 654 163 654 119 l 654 488 q 583 672 654 610 q 383 734 512 734 q 179 670 254 734 q 103 522 103 607 l 103 519 l 229 519 l 229 522 q 263 600 229 566 q 380 633 298 633 q 494 593 461 633 q 528 488 528 553 l 528 439 l 366 439 q 147 379 233 439 q 61 210 61 319 m 187 217 q 236 314 187 278 q 380 350 285 350 l 528 350 l 528 248 q 467 138 528 190 q 332 87 407 87 q 222 121 258 87 q 187 217 187 156 m 593 39 q 459 -57 500 -4 q 418 -165 418 -111 q 455 -261 418 -228 q 548 -294 493 -294 q 614 -284 588 -294 q 657 -264 640 -275 l 648 -182 q 620 -194 637 -187 q 580 -200 602 -200 q 539 -186 551 -200 q 527 -151 527 -173 q 563 -70 527 -106 q 643 0 600 -33 l 593 39 z "},"Ć":{"ha":922,"x_min":78,"x_max":865,"o":"m 78 463 q 195 107 78 235 q 488 -20 312 -20 q 758 77 665 -20 q 864 309 850 174 l 865 316 l 734 316 l 734 309 q 665 154 724 217 q 488 91 605 91 q 288 190 366 91 q 210 463 210 289 l 210 525 q 288 805 210 713 q 488 897 367 897 q 673 834 612 897 q 734 678 734 772 l 734 671 l 865 671 l 865 678 q 765 911 865 814 q 488 1008 665 1008 q 195 880 312 1008 q 78 525 78 753 l 78 463 m 410 1125 l 496 1085 l 664 1288 l 554 1355 l 410 1125 z "},"ć":{"ha":724,"x_min":58,"x_max":677,"o":"m 58 346 q 145 82 58 184 q 387 -20 233 -20 q 604 57 530 -20 q 677 229 677 134 l 677 232 l 555 232 l 555 229 q 515 127 555 171 q 387 83 475 83 q 235 159 284 83 q 186 346 186 235 l 186 368 q 235 554 186 478 q 387 631 284 631 q 515 587 475 631 q 555 485 555 543 l 555 481 l 677 481 l 677 485 q 604 657 677 580 q 387 734 530 734 q 145 631 233 734 q 58 368 58 529 l 58 346 m 281 886 l 345 827 l 548 1014 l 444 1085 l 281 886 z "},"Ĉ":{"ha":922,"x_min":78,"x_max":865,"o":"m 78 463 q 195 107 78 235 q 488 -20 312 -20 q 758 77 665 -20 q 864 309 850 174 l 865 316 l 734 316 l 734 309 q 665 154 724 217 q 488 91 605 91 q 288 190 366 91 q 210 463 210 289 l 210 525 q 288 805 210 713 q 488 897 367 897 q 673 834 612 897 q 734 678 734 772 l 734 671 l 865 671 l 865 678 q 765 911 865 814 q 488 1008 665 1008 q 195 880 312 1008 q 78 525 78 753 l 78 463 m 530 1339 l 432 1339 l 258 1109 l 375 1109 l 484 1232 l 596 1107 l 709 1109 l 530 1339 z "},"ĉ":{"ha":724,"x_min":58,"x_max":677,"o":"m 58 346 q 145 82 58 184 q 387 -20 233 -20 q 604 57 530 -20 q 677 229 677 134 l 677 232 l 555 232 l 555 229 q 515 127 555 171 q 387 83 475 83 q 235 159 284 83 q 186 346 186 235 l 186 368 q 235 554 186 478 q 387 631 284 631 q 515 587 475 631 q 555 485 555 543 l 555 481 l 677 481 l 677 485 q 604 657 677 580 q 387 734 530 734 q 145 631 233 734 q 58 368 58 529 l 58 346 m 425 1040 l 349 1040 l 183 827 l 286 827 l 387 935 l 489 827 l 593 827 l 425 1040 z "},"Ċ":{"ha":922,"x_min":78,"x_max":865,"o":"m 78 463 q 195 107 78 235 q 488 -20 312 -20 q 758 77 665 -20 q 864 309 850 174 l 865 316 l 734 316 l 734 309 q 665 154 724 217 q 488 91 605 91 q 288 190 366 91 q 210 463 210 289 l 210 525 q 288 805 210 713 q 488 897 367 897 q 673 834 612 897 q 734 678 734 772 l 734 671 l 865 671 l 865 678 q 765 911 865 814 q 488 1008 665 1008 q 195 880 312 1008 q 78 525 78 753 l 78 463 m 410 1170 q 430 1116 410 1138 q 488 1095 450 1095 q 547 1116 526 1095 q 567 1170 567 1138 q 547 1223 567 1202 q 488 1245 526 1245 q 430 1223 450 1245 q 410 1170 410 1202 z "},"ċ":{"ha":724,"x_min":58,"x_max":677,"o":"m 58 346 q 145 82 58 184 q 387 -20 233 -20 q 604 57 530 -20 q 677 229 677 134 l 677 232 l 555 232 l 555 229 q 515 127 555 171 q 387 83 475 83 q 235 159 284 83 q 186 346 186 235 l 186 368 q 235 554 186 478 q 387 631 284 631 q 515 587 475 631 q 555 485 555 543 l 555 481 l 677 481 l 677 485 q 604 657 677 580 q 387 734 530 734 q 145 631 233 734 q 58 368 58 529 l 58 346 m 309 912 q 329 859 309 880 q 387 837 349 837 q 446 859 425 837 q 466 912 466 880 q 446 966 466 944 q 387 987 425 987 q 329 966 349 987 q 309 912 309 944 z "},"Č":{"ha":922,"x_min":78,"x_max":865,"o":"m 78 463 q 195 107 78 235 q 488 -20 312 -20 q 758 77 665 -20 q 864 309 850 174 l 865 316 l 734 316 l 734 309 q 665 154 724 217 q 488 91 605 91 q 288 190 366 91 q 210 463 210 289 l 210 525 q 288 805 210 713 q 488 897 367 897 q 673 834 612 897 q 734 678 734 772 l 734 671 l 865 671 l 865 678 q 765 911 865 814 q 488 1008 665 1008 q 195 880 312 1008 q 78 525 78 753 l 78 463 m 437 1085 l 535 1085 l 709 1316 l 592 1316 l 484 1192 l 371 1316 l 258 1316 l 437 1085 z "},"č":{"ha":724,"x_min":58,"x_max":677,"o":"m 58 346 q 145 82 58 184 q 387 -20 233 -20 q 604 57 530 -20 q 677 229 677 134 l 677 232 l 555 232 l 555 229 q 515 127 555 171 q 387 83 475 83 q 235 159 284 83 q 186 346 186 235 l 186 368 q 235 554 186 478 q 387 631 284 631 q 515 587 475 631 q 555 485 555 543 l 555 481 l 677 481 l 677 485 q 604 657 677 580 q 387 734 530 734 q 145 631 233 734 q 58 368 58 529 l 58 346 m 351 827 l 427 827 l 593 1040 l 490 1040 l 389 932 l 288 1040 l 183 1040 l 351 827 z "},"Ď":{"ha":929,"x_min":115,"x_max":851,"o":"m 115 0 l 408 0 q 725 125 598 0 q 851 463 851 251 l 851 525 q 725 862 851 736 q 408 987 598 987 l 115 987 l 115 0 m 245 107 l 245 880 l 408 880 q 635 786 551 880 q 720 525 720 692 l 720 463 q 635 201 720 296 q 408 107 551 107 l 245 107 m 376 1085 l 474 1085 l 648 1316 l 531 1316 l 422 1192 l 310 1316 l 197 1316 l 376 1085 z "},"ď":{"ha":793,"x_min":58,"x_max":1006,"o":"m 58 346 q 139 88 58 190 q 356 -14 220 -14 q 487 18 431 -14 q 570 93 543 49 l 574 93 l 579 0 l 693 0 l 693 1042 l 567 1042 l 567 629 q 483 700 536 673 q 356 727 431 727 q 139 625 220 727 q 58 368 58 524 l 58 346 m 186 346 l 186 368 q 234 550 186 476 q 383 624 281 624 q 498 587 451 624 q 567 502 546 549 l 567 212 q 498 127 546 164 q 383 90 451 90 q 234 163 281 90 q 186 346 186 237 m 808 741 l 895 717 l 1006 968 l 878 1004 l 808 741 z "},"Đ":{"ha":929,"x_min":14,"x_max":852,"o":"m 116 0 l 409 0 q 725 125 599 0 q 852 463 852 251 l 852 525 q 725 862 852 736 q 409 987 599 987 l 116 987 l 116 0 m 246 107 l 246 880 l 409 880 q 636 786 551 880 q 720 525 720 692 l 720 463 q 636 201 720 296 q 409 107 551 107 l 246 107 m 14 437 l 424 437 l 424 550 l 14 550 l 14 437 z "},"đ":{"ha":793,"x_min":58,"x_max":755,"o":"m 58 346 q 139 88 58 190 q 356 -14 220 -14 q 487 18 431 -14 q 570 93 543 49 l 574 93 l 579 0 l 693 0 l 693 1042 l 567 1042 l 567 629 q 483 700 536 673 q 356 727 431 727 q 139 625 220 727 q 58 368 58 524 l 58 346 m 186 346 l 186 368 q 234 550 186 476 q 383 624 281 624 q 498 587 451 624 q 567 502 546 549 l 567 212 q 498 127 546 164 q 383 90 451 90 q 234 163 281 90 q 186 346 186 237 m 535 841 l 755 841 l 755 940 l 562 940 l 351 940 l 344 841 l 535 841 z "},"Ē":{"ha":788,"x_min":115,"x_max":742,"o":"m 115 0 l 742 0 l 742 107 l 245 107 l 245 456 l 673 456 l 673 563 l 245 563 l 245 880 l 735 880 l 735 987 l 115 987 l 115 0 m 229 1135 l 631 1135 l 631 1241 l 229 1241 l 229 1135 z "},"ē":{"ha":738,"x_min":58,"x_max":684,"o":"m 58 346 q 146 82 58 184 q 401 -20 235 -20 q 573 24 503 -20 q 678 119 644 68 l 597 183 q 517 113 566 142 q 401 83 469 83 q 239 159 291 83 q 186 346 186 235 l 186 368 q 236 554 186 478 q 386 631 286 631 q 513 576 469 631 q 557 445 557 522 l 557 429 l 135 429 l 135 328 l 684 328 l 684 380 q 605 638 684 543 q 380 734 526 734 q 146 631 235 734 q 58 368 58 529 l 58 346 m 593 930 l 167 930 l 167 827 l 593 827 l 593 930 z "},"Ĕ":{"ha":788,"x_min":115,"x_max":742,"o":"m 115 0 l 742 0 l 742 107 l 245 107 l 245 456 l 673 456 l 673 563 l 245 563 l 245 880 l 735 880 l 735 987 l 115 987 l 115 0 m 627 1313 q 549 1233 598 1267 q 430 1200 499 1200 q 316 1235 366 1200 q 238 1313 267 1270 l 170 1266 q 273 1137 203 1189 q 430 1085 343 1085 q 596 1142 528 1085 q 690 1265 664 1198 l 627 1313 z "},"ĕ":{"ha":738,"x_min":58,"x_max":684,"o":"m 58 346 q 146 82 58 184 q 401 -20 235 -20 q 573 24 503 -20 q 678 119 644 68 l 597 183 q 517 113 566 142 q 401 83 469 83 q 239 159 291 83 q 186 346 186 235 l 186 368 q 236 554 186 478 q 386 631 286 631 q 513 576 469 631 q 557 445 557 522 l 557 429 l 135 429 l 135 328 l 684 328 l 684 380 q 605 638 684 543 q 380 734 526 734 q 146 631 235 734 q 58 368 58 529 l 58 346 m 545 1029 q 479 956 520 988 q 382 924 439 924 q 288 957 328 924 q 224 1029 248 991 l 153 994 q 243 864 182 916 q 381 812 304 812 q 526 869 467 812 q 609 993 585 926 l 545 1029 z "},"Ė":{"ha":788,"x_min":115,"x_max":742,"o":"m 115 0 l 742 0 l 742 107 l 245 107 l 245 456 l 673 456 l 673 563 l 245 563 l 245 880 l 735 880 l 735 987 l 115 987 l 115 0 m 351 1170 q 372 1116 351 1138 q 430 1095 392 1095 q 488 1116 468 1095 q 509 1170 509 1138 q 488 1223 509 1202 q 430 1245 468 1245 q 372 1223 392 1245 q 351 1170 351 1202 z "},"ė":{"ha":738,"x_min":58,"x_max":684,"o":"m 58 346 q 146 82 58 184 q 401 -20 235 -20 q 573 24 503 -20 q 678 119 644 68 l 597 183 q 517 113 566 142 q 401 83 469 83 q 239 159 291 83 q 186 346 186 235 l 186 368 q 236 554 186 478 q 386 631 286 631 q 513 576 469 631 q 557 445 557 522 l 557 429 l 135 429 l 135 328 l 684 328 l 684 380 q 605 638 684 543 q 380 734 526 734 q 146 631 235 734 q 58 368 58 529 l 58 346 m 301 912 q 321 859 301 880 q 380 837 342 837 q 438 859 418 837 q 458 912 458 880 q 438 966 458 944 q 380 987 418 987 q 321 966 342 987 q 301 912 301 944 z "},"Ę":{"ha":788,"x_min":115,"x_max":891,"o":"m 115 0 l 742 0 l 742 107 l 245 107 l 245 456 l 673 456 l 673 563 l 245 563 l 245 880 l 735 880 l 735 987 l 115 987 l 115 0 m 496 -208 q 548 -299 496 -260 q 671 -337 600 -337 q 801 -310 741 -337 q 891 -242 861 -283 l 852 -172 q 766 -220 810 -204 q 689 -235 721 -235 q 633 -217 654 -235 q 613 -165 613 -198 q 635 -103 613 -135 q 728 0 657 -71 l 664 35 q 540 -87 583 -28 q 496 -208 496 -147 z "},"ę":{"ha":738,"x_min":58,"x_max":684,"o":"m 58 346 q 146 82 58 184 q 401 -20 235 -20 q 573 24 503 -20 q 678 119 644 68 l 597 183 q 517 113 566 142 q 401 83 469 83 q 239 159 291 83 q 186 346 186 235 l 186 368 q 236 554 186 478 q 386 631 286 631 q 513 576 469 631 q 557 445 557 522 l 557 429 l 135 429 l 135 328 l 684 328 l 684 380 q 605 638 684 543 q 380 734 526 734 q 146 631 235 734 q 58 368 58 529 l 58 346 m 474 39 q 340 -57 382 -4 q 299 -165 299 -111 q 337 -261 299 -228 q 429 -294 374 -294 q 495 -284 469 -294 q 538 -264 522 -275 l 529 -182 q 501 -194 519 -187 q 461 -200 484 -200 q 420 -186 432 -200 q 408 -151 408 -173 q 445 -70 408 -106 q 524 0 481 -33 l 474 39 z "},"Ě":{"ha":788,"x_min":115,"x_max":742,"o":"m 115 0 l 742 0 l 742 107 l 245 107 l 245 456 l 673 456 l 673 563 l 245 563 l 245 880 l 735 880 l 735 987 l 115 987 l 115 0 m 379 1085 l 477 1085 l 651 1316 l 534 1316 l 425 1192 l 313 1316 l 199 1316 l 379 1085 z "},"ě":{"ha":738,"x_min":58,"x_max":684,"o":"m 58 346 q 146 82 58 184 q 401 -20 235 -20 q 573 24 503 -20 q 678 119 644 68 l 597 183 q 517 113 566 142 q 401 83 469 83 q 239 159 291 83 q 186 346 186 235 l 186 368 q 236 554 186 478 q 386 631 286 631 q 513 576 469 631 q 557 445 557 522 l 557 429 l 135 429 l 135 328 l 684 328 l 684 380 q 605 638 684 543 q 380 734 526 734 q 146 631 235 734 q 58 368 58 529 l 58 346 m 344 827 l 420 827 l 586 1040 l 483 1040 l 382 932 l 280 1040 l 176 1040 l 344 827 z "},"Ĝ":{"ha":954,"x_min":78,"x_max":867,"o":"m 78 463 q 195 107 78 235 q 509 -20 312 -20 q 729 20 637 -20 q 867 109 821 61 l 867 494 l 495 494 l 495 387 l 741 387 l 741 156 q 637 106 692 122 q 509 91 583 91 q 288 190 366 91 q 210 463 210 289 l 210 525 q 288 798 210 699 q 496 897 366 897 q 673 835 610 897 q 736 705 736 773 l 736 699 l 867 699 l 866 706 q 760 918 855 828 q 497 1008 665 1008 q 195 880 312 1008 q 78 525 78 753 l 78 463 m 537 1339 l 439 1339 l 265 1109 l 382 1109 l 491 1232 l 604 1107 l 717 1109 l 537 1339 z "},"ĝ":{"ha":793,"x_min":58,"x_max":693,"o":"m 84 -193 q 210 -267 136 -237 q 373 -296 285 -296 q 604 -216 515 -296 q 693 14 693 -136 l 693 713 l 579 713 l 574 621 l 570 621 q 487 696 543 665 q 356 727 431 727 q 139 625 220 727 q 58 368 58 524 l 58 346 q 139 88 58 190 q 356 -14 220 -14 q 483 13 431 -14 q 567 84 536 40 l 567 14 q 514 -134 567 -81 q 370 -186 461 -186 q 248 -159 302 -186 q 163 -98 193 -132 l 84 -193 m 186 346 l 186 368 q 234 550 186 476 q 383 624 281 624 q 498 587 451 624 q 567 502 546 549 l 567 212 q 498 127 546 164 q 383 90 451 90 q 234 163 281 90 q 186 346 186 237 m 435 1040 l 359 1040 l 193 827 l 296 827 l 397 935 l 498 827 l 603 827 l 435 1040 z "},"Ğ":{"ha":954,"x_min":78,"x_max":867,"o":"m 78 463 q 195 107 78 235 q 509 -20 312 -20 q 729 20 637 -20 q 867 109 821 61 l 867 494 l 495 494 l 495 387 l 741 387 l 741 156 q 637 106 692 122 q 509 91 583 91 q 288 190 366 91 q 210 463 210 289 l 210 525 q 288 798 210 699 q 496 897 366 897 q 673 835 610 897 q 736 705 736 773 l 736 699 l 867 699 l 866 706 q 760 918 855 828 q 497 1008 665 1008 q 195 880 312 1008 q 78 525 78 753 l 78 463 m 693 1313 q 614 1233 664 1267 q 496 1200 565 1200 q 382 1235 431 1200 q 304 1313 333 1270 l 236 1266 q 339 1137 269 1189 q 496 1085 409 1085 q 662 1142 593 1085 q 756 1265 730 1198 l 693 1313 z "},"ğ":{"ha":793,"x_min":58,"x_max":693,"o":"m 84 -193 q 210 -267 136 -237 q 373 -296 285 -296 q 604 -216 515 -296 q 693 14 693 -136 l 693 713 l 579 713 l 574 621 l 570 621 q 487 696 543 665 q 356 727 431 727 q 139 625 220 727 q 58 368 58 524 l 58 346 q 139 88 58 190 q 356 -14 220 -14 q 483 13 431 -14 q 567 84 536 40 l 567 14 q 514 -134 567 -81 q 370 -186 461 -186 q 248 -159 302 -186 q 163 -98 193 -132 l 84 -193 m 186 346 l 186 368 q 234 550 186 476 q 383 624 281 624 q 498 587 451 624 q 567 502 546 549 l 567 212 q 498 127 546 164 q 383 90 451 90 q 234 163 281 90 q 186 346 186 237 m 562 1029 q 496 956 537 988 q 399 924 456 924 q 305 957 345 924 q 241 1029 264 991 l 170 994 q 260 864 199 916 q 398 812 321 812 q 543 869 484 812 q 626 993 602 926 l 562 1029 z "},"Ġ":{"ha":954,"x_min":78,"x_max":867,"o":"m 78 463 q 195 107 78 235 q 509 -20 312 -20 q 729 20 637 -20 q 867 109 821 61 l 867 494 l 495 494 l 495 387 l 741 387 l 741 156 q 637 106 692 122 q 509 91 583 91 q 288 190 366 91 q 210 463 210 289 l 210 525 q 288 798 210 699 q 496 897 366 897 q 673 835 610 897 q 736 705 736 773 l 736 699 l 867 699 l 866 706 q 760 918 855 828 q 497 1008 665 1008 q 195 880 312 1008 q 78 525 78 753 l 78 463 m 417 1170 q 437 1116 417 1138 q 496 1095 458 1095 q 554 1116 534 1095 q 574 1170 574 1138 q 554 1223 574 1202 q 496 1245 534 1245 q 437 1223 458 1245 q 417 1170 417 1202 z "},"ġ":{"ha":793,"x_min":58,"x_max":693,"o":"m 84 -193 q 210 -267 136 -237 q 373 -296 285 -296 q 604 -216 515 -296 q 693 14 693 -136 l 693 713 l 579 713 l 574 621 l 570 621 q 487 696 543 665 q 356 727 431 727 q 139 625 220 727 q 58 368 58 524 l 58 346 q 139 88 58 190 q 356 -14 220 -14 q 483 13 431 -14 q 567 84 536 40 l 567 14 q 514 -134 567 -81 q 370 -186 461 -186 q 248 -159 302 -186 q 163 -98 193 -132 l 84 -193 m 186 346 l 186 368 q 234 550 186 476 q 383 624 281 624 q 498 587 451 624 q 567 502 546 549 l 567 212 q 498 127 546 164 q 383 90 451 90 q 234 163 281 90 q 186 346 186 237 m 318 912 q 338 859 318 880 q 397 837 359 837 q 455 859 435 837 q 475 912 475 880 q 455 966 475 944 q 397 987 435 987 q 338 966 359 987 q 318 912 318 944 z "},"Ģ":{"ha":954,"x_min":78,"x_max":867,"o":"m 78 463 q 195 107 78 235 q 509 -20 312 -20 q 729 20 637 -20 q 867 109 821 61 l 867 494 l 495 494 l 495 387 l 741 387 l 741 156 q 637 106 692 122 q 509 91 583 91 q 288 190 366 91 q 210 463 210 289 l 210 525 q 288 798 210 699 q 496 897 366 897 q 673 835 610 897 q 736 705 736 773 l 736 699 l 867 699 l 866 706 q 760 918 855 828 q 497 1008 665 1008 q 195 880 312 1008 q 78 525 78 753 l 78 463 m 374 -405 l 493 -407 l 586 -124 l 441 -125 q 407 -277 419 -220 q 374 -405 394 -334 z "},"ģ":{"ha":793,"x_min":58,"x_max":693,"o":"m 84 -193 q 210 -267 136 -237 q 373 -296 285 -296 q 604 -216 515 -296 q 693 14 693 -136 l 693 713 l 579 713 l 574 621 l 570 621 q 487 696 543 665 q 356 727 431 727 q 139 625 220 727 q 58 368 58 524 l 58 346 q 139 88 58 190 q 356 -14 220 -14 q 483 13 431 -14 q 567 84 536 40 l 567 14 q 514 -134 567 -81 q 370 -186 461 -186 q 248 -159 302 -186 q 163 -98 193 -132 l 84 -193 m 186 346 l 186 368 q 234 550 186 476 q 383 624 281 624 q 498 587 451 624 q 567 502 546 549 l 567 212 q 498 127 546 164 q 383 90 451 90 q 234 163 281 90 q 186 346 186 237 m 507 1128 l 397 1130 l 311 874 l 448 876 q 475 1010 463 962 q 507 1128 488 1057 z "},"Ĥ":{"ha":989,"x_min":115,"x_max":873,"o":"m 115 0 l 245 0 l 245 456 l 743 456 l 743 0 l 873 0 l 873 987 l 743 987 l 743 563 l 245 563 l 245 987 l 115 987 l 115 0 m 536 1339 l 438 1339 l 264 1109 l 381 1109 l 490 1232 l 602 1107 l 715 1109 l 536 1339 z "},"ĥ":{"ha":772,"x_min":-39,"x_max":678,"o":"m 100 0 l 227 0 l 227 505 q 298 589 252 556 q 405 621 345 621 q 514 584 475 621 q 552 462 552 547 l 552 0 l 678 0 l 678 460 q 614 666 678 604 q 450 727 550 727 q 323 699 381 727 q 227 625 264 671 l 227 1042 l 100 1042 l 100 0 m 203 1368 l 127 1368 l -39 1156 l 64 1156 l 165 1263 l 267 1156 l 372 1156 l 203 1368 z "},"Ħ":{"ha":989,"x_min":4,"x_max":985,"o":"m 115 0 l 245 0 l 245 456 l 743 456 l 743 0 l 873 0 l 873 987 l 743 987 l 743 563 l 245 563 l 245 987 l 115 987 l 115 0 m 978 701 l 985 793 l 827 792 l 827 699 l 978 701 m 10 699 l 166 699 l 166 792 l 4 792 l 10 699 m 166 706 l 827 706 l 827 785 l 166 785 l 166 706 z "},"ħ":{"ha":772,"x_min":12,"x_max":679,"o":"m 101 0 l 227 0 l 227 505 q 299 589 253 556 q 406 621 345 621 q 514 584 476 621 q 553 462 553 547 l 553 0 l 679 0 l 679 460 q 615 666 679 604 q 451 727 551 727 q 323 699 382 727 q 227 625 265 671 l 227 1042 l 101 1042 l 101 0 m 203 850 l 423 850 l 423 949 l 230 949 l 19 949 l 12 850 l 203 850 z "},"Ĩ":{"ha":368,"x_min":-92,"x_max":473,"o":"m 119 0 l 249 0 l 249 987 l 119 987 l 119 0 m -92 1160 l -41 1102 q 5 1149 -28 1122 q 75 1176 39 1176 q 125 1163 97 1176 q 178 1133 153 1150 q 236 1102 199 1118 q 308 1085 272 1085 q 398 1115 351 1085 q 473 1201 445 1145 l 427 1259 q 381 1213 410 1232 q 321 1194 352 1194 q 256 1213 289 1194 q 203 1244 223 1232 q 146 1273 174 1263 q 87 1283 119 1283 q -16 1245 35 1283 q -92 1160 -67 1206 z "},"ĩ":{"ha":339,"x_min":-72,"x_max":440,"o":"m 106 0 l 233 0 l 233 713 l 106 713 l 106 0 m -72 899 l -20 837 q 19 880 -8 855 q 79 904 47 904 q 121 892 98 904 q 168 868 144 881 q 220 842 189 857 q 286 827 252 827 q 369 852 324 827 q 440 924 414 876 l 385 991 q 346 948 370 966 q 295 930 322 930 q 243 945 269 930 q 193 975 216 960 q 143 1000 168 991 q 90 1008 117 1008 q -3 975 44 1008 q -72 899 -50 942 z "},"Ī":{"ha":368,"x_min":-17,"x_max":385,"o":"m 119 0 l 249 0 l 249 987 l 119 987 l 119 0 m -17 1135 l 385 1135 l 385 1241 l -17 1241 l -17 1135 z "},"ī":{"ha":339,"x_min":-43,"x_max":382,"o":"m 106 0 l 233 0 l 233 713 l 106 713 l 106 0 m 382 930 l -43 930 l -43 827 l 382 827 l 382 930 z "},"Ĭ":{"ha":368,"x_min":-76,"x_max":444,"o":"m 119 0 l 249 0 l 249 987 l 119 987 l 119 0 m 381 1313 q 302 1233 352 1267 q 184 1200 253 1200 q 70 1235 119 1200 q -8 1313 21 1270 l -76 1266 q 27 1137 -43 1189 q 184 1085 97 1085 q 350 1142 281 1085 q 444 1265 418 1198 l 381 1313 z "},"ĭ":{"ha":339,"x_min":-57,"x_max":399,"o":"m 106 0 l 233 0 l 233 713 l 106 713 l 106 0 m 334 1029 q 269 956 310 988 q 172 924 229 924 q 78 957 118 924 q 14 1029 37 991 l -57 994 q 33 864 -28 916 q 171 812 94 812 q 316 869 256 812 q 399 993 375 926 l 334 1029 z "},"Į":{"ha":368,"x_min":-20,"x_max":375,"o":"m 119 0 l 249 0 l 249 987 l 119 987 l 119 0 m -20 -208 q 32 -299 -20 -260 q 155 -337 83 -337 q 285 -310 225 -337 q 375 -242 345 -283 l 336 -172 q 250 -220 294 -204 q 173 -235 205 -235 q 117 -217 138 -235 q 97 -165 97 -198 q 119 -103 97 -135 q 212 0 141 -71 l 148 35 q 24 -87 67 -28 q -20 -208 -20 -147 z "},"į":{"ha":339,"x_min":-14,"x_max":248,"o":"m 106 0 l 233 0 l 233 713 l 106 713 l 106 0 m 91 929 q 111 876 91 897 q 170 854 132 854 q 228 876 208 854 q 248 929 248 897 q 228 983 248 961 q 170 1004 208 1004 q 111 983 132 1004 q 91 929 91 961 m 161 39 q 28 -57 69 -4 q -14 -165 -14 -111 q 24 -261 -14 -228 q 117 -294 62 -294 q 183 -284 157 -294 q 226 -264 209 -275 l 216 -182 q 189 -194 206 -187 q 149 -200 171 -200 q 107 -186 119 -200 q 96 -151 96 -173 q 132 -70 96 -106 q 212 0 168 -33 l 161 39 z "},"İ":{"ha":368,"x_min":105,"x_max":262,"o":"m 119 0 l 249 0 l 249 987 l 119 987 l 119 0 m 105 1170 q 125 1116 105 1138 q 184 1095 146 1095 q 242 1116 222 1095 q 262 1170 262 1138 q 242 1223 262 1202 q 184 1245 222 1245 q 125 1223 146 1245 q 105 1170 105 1202 z "},"Ĳ":{"ha":1114,"x_min":119,"x_max":1008,"o":"m 119 0 l 249 0 l 249 987 l 119 987 l 119 0 m 385 271 q 471 58 385 136 q 696 -20 557 -20 q 922 63 836 -20 q 1008 288 1008 146 l 1008 987 l 878 987 l 878 288 q 830 142 878 193 q 696 91 781 91 q 563 137 612 91 q 515 271 515 183 l 515 278 l 385 278 l 385 271 z "},"ĳ":{"ha":678,"x_min":91,"x_max":587,"o":"m 106 0 l 233 0 l 233 713 l 106 713 l 106 0 m 91 929 q 111 876 91 897 q 170 854 132 854 q 228 876 208 854 q 248 929 248 897 q 228 983 248 961 q 170 1004 208 1004 q 111 983 132 1004 q 91 929 91 961 m 275 -278 q 326 -290 292 -284 q 387 -296 359 -296 q 525 -239 477 -296 q 572 -61 572 -183 l 572 713 l 446 713 l 446 -88 q 423 -166 446 -142 q 359 -190 400 -190 q 314 -185 339 -190 q 275 -176 289 -180 l 275 -278 m 430 929 q 450 876 430 897 q 509 854 471 854 q 567 876 547 854 q 587 929 587 897 q 567 983 587 961 q 509 1004 547 1004 q 450 983 471 1004 q 430 929 430 961 z "},"Ĵ":{"ha":746,"x_min":17,"x_max":800,"o":"m 17 271 q 103 58 17 136 q 329 -20 190 -20 q 554 63 468 -20 q 641 288 641 146 l 641 987 l 511 987 l 511 288 q 462 142 511 193 q 329 91 414 91 q 196 137 244 91 q 147 271 147 183 l 147 278 l 17 278 l 17 271 m 621 1339 l 523 1339 l 349 1109 l 466 1109 l 574 1232 l 687 1107 l 800 1109 l 621 1339 z "},"Ķ":{"ha":859,"x_min":115,"x_max":872,"o":"m 115 0 l 245 0 l 245 339 l 842 987 l 685 987 l 245 502 l 245 987 l 115 987 l 115 0 m 712 0 l 872 0 l 414 604 l 330 513 l 712 0 m 308 -405 l 427 -407 l 519 -124 l 374 -125 q 340 -277 353 -220 q 308 -405 328 -334 z "},"ķ":{"ha":697,"x_min":100,"x_max":708,"o":"m 100 0 l 227 0 l 227 237 l 675 713 l 532 713 l 227 385 l 227 1042 l 100 1042 l 100 0 m 560 0 l 708 0 l 361 456 l 282 369 l 560 0 m 256 -405 l 366 -407 l 452 -151 l 315 -153 q 288 -287 300 -239 q 256 -405 275 -334 z "},"ĸ":{"ha":727,"x_min":105,"x_max":738,"o":"m 231 713 l 105 713 l 105 0 l 231 0 l 231 713 m 696 713 l 545 713 l 293 423 l 170 423 l 170 313 l 351 313 l 696 713 m 579 0 l 738 0 l 368 423 l 287 332 l 579 0 z "},"Ĺ":{"ha":750,"x_min":115,"x_max":713,"o":"m 115 0 l 713 0 l 713 107 l 245 107 l 245 987 l 115 987 l 115 0 m 182 1125 l 268 1085 l 436 1288 l 326 1355 l 182 1125 z "},"ĺ":{"ha":338,"x_min":62,"x_max":330,"o":"m 106 0 l 232 0 l 232 1042 l 106 1042 l 106 0 m 62 1214 l 127 1156 l 330 1342 l 226 1413 l 62 1214 z "},"Ļ":{"ha":750,"x_min":115,"x_max":713,"o":"m 115 0 l 713 0 l 713 107 l 245 107 l 245 987 l 115 987 l 115 0 m 306 -405 l 425 -407 l 517 -124 l 372 -125 q 338 -277 351 -220 q 306 -405 326 -334 z "},"ļ":{"ha":338,"x_min":76,"x_max":273,"o":"m 106 0 l 232 0 l 232 1042 l 106 1042 l 106 0 m 76 -405 l 186 -407 l 273 -151 l 136 -153 q 108 -287 120 -239 q 76 -405 96 -334 z "},"Ľ":{"ha":750,"x_min":115,"x_max":753,"o":"m 115 0 l 713 0 l 713 107 l 245 107 l 245 987 l 115 987 l 115 0 m 555 741 l 642 717 l 753 968 l 625 1004 l 555 741 z "},"ľ":{"ha":338,"x_min":106,"x_max":545,"o":"m 106 0 l 232 0 l 232 1042 l 106 1042 l 106 0 m 347 741 l 434 717 l 545 968 l 416 1004 l 347 741 z "},"Ŀ":{"ha":750,"x_min":115,"x_max":713,"o":"m 115 0 l 713 0 l 713 107 l 245 107 l 245 987 l 115 987 l 115 0 m 505 498 q 525 445 505 467 q 583 423 545 423 q 642 445 621 423 q 662 498 662 467 q 642 552 662 530 q 583 574 621 574 q 525 552 545 574 q 505 498 505 530 z "},"ŀ":{"ha":645,"x_min":106,"x_max":536,"o":"m 106 0 l 232 0 l 232 1042 l 106 1042 l 106 0 m 379 543 q 399 490 379 511 q 458 468 420 468 q 516 490 496 468 q 536 543 536 511 q 516 597 536 575 q 458 618 496 618 q 399 597 420 618 q 379 543 379 575 z "},"Ł":{"ha":750,"x_min":1,"x_max":713,"o":"m 115 0 l 713 0 l 713 107 l 245 107 l 245 987 l 115 987 l 115 0 m 58 305 l 238 455 l 421 587 l 367 683 l 187 534 l 1 404 l 58 305 z "},"ł":{"ha":338,"x_min":-41,"x_max":379,"o":"m 106 0 l 232 0 l 232 1042 l 106 1042 l 106 0 m 16 348 l 196 498 l 379 629 l 325 726 l 145 577 l -41 446 l 16 348 z "},"Ń":{"ha":990,"x_min":115,"x_max":875,"o":"m 115 0 l 243 0 l 243 678 q 242 724 243 699 q 241 770 242 749 l 246 770 q 267 732 256 753 q 292 692 279 712 l 739 0 l 875 0 l 875 987 l 747 987 l 747 309 q 748 263 747 289 q 749 218 748 238 l 743 218 q 723 255 735 235 q 698 296 711 275 l 251 987 l 115 987 l 115 0 m 416 1125 l 503 1085 l 671 1288 l 561 1355 l 416 1125 z "},"ń":{"ha":772,"x_min":100,"x_max":678,"o":"m 100 0 l 227 0 l 227 505 q 298 589 252 556 q 405 621 345 621 q 514 584 475 621 q 552 462 552 547 l 552 0 l 678 0 l 678 460 q 614 666 678 604 q 442 727 550 727 q 318 699 374 727 q 224 622 262 671 l 220 622 l 214 713 l 100 713 l 100 0 m 279 886 l 344 827 l 547 1014 l 443 1085 l 279 886 z "},"Ņ":{"ha":990,"x_min":115,"x_max":875,"o":"m 115 0 l 243 0 l 243 678 q 242 724 243 699 q 241 770 242 749 l 246 770 q 267 732 256 753 q 292 692 279 712 l 739 0 l 875 0 l 875 987 l 747 987 l 747 309 q 748 263 747 289 q 749 218 748 238 l 743 218 q 723 255 735 235 q 698 296 711 275 l 251 987 l 115 987 l 115 0 m 374 -405 l 492 -407 l 585 -124 l 440 -125 q 406 -277 418 -220 q 374 -405 393 -334 z "},"ņ":{"ha":772,"x_min":100,"x_max":678,"o":"m 100 0 l 227 0 l 227 505 q 298 589 252 556 q 405 621 345 621 q 514 584 475 621 q 552 462 552 547 l 552 0 l 678 0 l 678 460 q 614 666 678 604 q 442 727 550 727 q 318 699 374 727 q 224 622 262 671 l 220 622 l 214 713 l 100 713 l 100 0 m 293 -405 l 404 -407 l 490 -151 l 353 -153 q 325 -287 337 -239 q 293 -405 313 -334 z "},"Ň":{"ha":990,"x_min":115,"x_max":875,"o":"m 115 0 l 243 0 l 243 678 q 242 724 243 699 q 241 770 242 749 l 246 770 q 267 732 256 753 q 292 692 279 712 l 739 0 l 875 0 l 875 987 l 747 987 l 747 309 q 748 263 747 289 q 749 218 748 238 l 743 218 q 723 255 735 235 q 698 296 711 275 l 251 987 l 115 987 l 115 0 m 444 1085 l 542 1085 l 716 1316 l 599 1316 l 490 1192 l 378 1316 l 264 1316 l 444 1085 z "},"ň":{"ha":772,"x_min":100,"x_max":678,"o":"m 100 0 l 227 0 l 227 505 q 298 589 252 556 q 405 621 345 621 q 514 584 475 621 q 552 462 552 547 l 552 0 l 678 0 l 678 460 q 614 666 678 604 q 442 727 550 727 q 318 699 374 727 q 224 622 262 671 l 220 622 l 214 713 l 100 713 l 100 0 m 350 827 l 426 827 l 592 1040 l 489 1040 l 388 932 l 286 1040 l 182 1040 l 350 827 z "},"ŉ":{"ha":1050,"x_min":100,"x_max":987,"o":"m 100 0 l 227 0 l 227 505 q 298 589 252 556 q 405 621 345 621 q 514 584 475 621 q 552 462 552 547 l 552 0 l 678 0 l 678 460 q 614 666 678 604 q 442 727 550 727 q 318 699 374 727 q 224 622 262 671 l 220 622 l 214 713 l 100 713 l 100 0 m 987 989 l 863 989 l 863 900 q 846 798 863 845 q 798 706 830 751 l 870 656 q 957 772 926 703 q 987 902 987 841 l 987 989 z "},"Ŋ":{"ha":990,"x_min":115,"x_max":875,"o":"m 115 0 l 243 0 l 243 678 q 242 724 243 699 q 241 770 242 749 l 246 770 q 267 732 256 753 q 292 692 279 712 l 739 0 l 875 0 l 875 987 l 747 987 l 747 309 q 748 263 747 289 q 749 218 748 238 l 743 218 q 723 255 735 235 q 698 296 711 275 l 251 987 l 115 987 l 115 0 m 791 129 l 749 102 q 749 -5 749 31 q 749 -112 749 -41 q 727 -200 749 -180 q 675 -220 705 -220 q 629 -210 648 -220 q 582 -172 610 -200 l 539 -223 q 610 -279 566 -258 q 703 -300 654 -300 q 834 -250 793 -300 q 875 -132 875 -200 l 875 129 l 791 129 z "},"ŋ":{"ha":772,"x_min":100,"x_max":678,"o":"m 100 0 l 227 0 l 227 505 q 298 589 252 556 q 405 621 345 621 q 514 584 475 621 q 552 462 552 547 l 552 0 l 678 0 l 678 460 q 614 666 678 604 q 442 727 550 727 q 318 699 374 727 q 224 622 262 671 l 220 622 l 214 713 l 100 713 l 100 0 m 595 129 l 552 102 q 552 -5 552 31 q 552 -112 552 -41 q 530 -200 552 -180 q 479 -220 509 -220 q 432 -210 451 -220 q 385 -172 414 -200 l 342 -223 q 414 -279 370 -258 q 507 -300 458 -300 q 637 -250 596 -300 q 678 -132 678 -200 l 678 129 l 595 129 z "},"Ō":{"ha":990,"x_min":78,"x_max":912,"o":"m 78 463 q 195 107 78 235 q 495 -20 312 -20 q 795 107 678 -20 q 912 463 912 235 l 912 525 q 795 880 912 753 q 495 1008 678 1008 q 195 880 312 1008 q 78 525 78 753 l 78 463 m 210 463 l 210 525 q 288 798 210 699 q 495 897 366 897 q 702 798 624 897 q 781 525 781 699 l 781 463 q 702 190 781 289 q 495 91 624 91 q 288 190 366 91 q 210 463 210 289 m 294 1135 l 696 1135 l 696 1241 l 294 1241 l 294 1135 z "},"ō":{"ha":788,"x_min":58,"x_max":730,"o":"m 58 346 q 149 82 58 184 q 394 -20 241 -20 q 639 82 547 -20 q 730 346 730 184 l 730 368 q 639 631 730 529 q 394 734 547 734 q 149 631 241 734 q 58 368 58 529 l 58 346 m 186 368 q 239 554 186 478 q 394 631 291 631 q 549 554 497 631 q 602 368 602 478 l 602 346 q 549 159 602 235 q 394 83 497 83 q 239 159 291 83 q 186 346 186 235 l 186 368 m 607 930 l 181 930 l 181 827 l 607 827 l 607 930 z "},"Ŏ":{"ha":990,"x_min":78,"x_max":912,"o":"m 78 463 q 195 107 78 235 q 495 -20 312 -20 q 795 107 678 -20 q 912 463 912 235 l 912 525 q 795 880 912 753 q 495 1008 678 1008 q 195 880 312 1008 q 78 525 78 753 l 78 463 m 210 463 l 210 525 q 288 798 210 699 q 495 897 366 897 q 702 798 624 897 q 781 525 781 699 l 781 463 q 702 190 781 289 q 495 91 624 91 q 288 190 366 91 q 210 463 210 289 m 692 1313 q 614 1233 663 1267 q 495 1200 564 1200 q 381 1235 431 1200 q 303 1313 332 1270 l 235 1266 q 338 1137 268 1189 q 495 1085 408 1085 q 661 1142 593 1085 q 755 1265 729 1198 l 692 1313 z "},"ŏ":{"ha":788,"x_min":58,"x_max":730,"o":"m 58 346 q 149 82 58 184 q 394 -20 241 -20 q 639 82 547 -20 q 730 346 730 184 l 730 368 q 639 631 730 529 q 394 734 547 734 q 149 631 241 734 q 58 368 58 529 l 58 346 m 186 368 q 239 554 186 478 q 394 631 291 631 q 549 554 497 631 q 602 368 602 478 l 602 346 q 549 159 602 235 q 394 83 497 83 q 239 159 291 83 q 186 346 186 235 l 186 368 m 559 1029 q 494 956 534 988 q 396 924 453 924 q 302 957 342 924 q 238 1029 262 991 l 168 994 q 257 864 196 916 q 395 812 319 812 q 540 869 481 812 q 623 993 600 926 l 559 1029 z "},"Ő":{"ha":990,"x_min":78,"x_max":912,"o":"m 78 463 q 195 107 78 235 q 495 -20 312 -20 q 795 107 678 -20 q 912 463 912 235 l 912 525 q 795 880 912 753 q 495 1008 678 1008 q 195 880 312 1008 q 78 525 78 753 l 78 463 m 210 463 l 210 525 q 288 798 210 699 q 495 897 366 897 q 702 798 624 897 q 781 525 781 699 l 781 463 q 702 190 781 289 q 495 91 624 91 q 288 190 366 91 q 210 463 210 289 m 347 1125 l 433 1085 l 601 1288 l 491 1355 l 347 1125 m 573 1125 l 659 1085 l 827 1288 l 718 1355 l 573 1125 z "},"ő":{"ha":788,"x_min":58,"x_max":730,"o":"m 58 346 q 149 82 58 184 q 394 -20 241 -20 q 639 82 547 -20 q 730 346 730 184 l 730 368 q 639 631 730 529 q 394 734 547 734 q 149 631 241 734 q 58 368 58 529 l 58 346 m 186 368 q 239 554 186 478 q 394 631 291 631 q 549 554 497 631 q 602 368 602 478 l 602 346 q 549 159 602 235 q 394 83 497 83 q 239 159 291 83 q 186 346 186 235 l 186 368 m 239 875 l 296 817 l 499 1003 l 402 1074 l 239 875 m 449 875 l 507 817 l 709 1003 l 612 1074 l 449 875 z "},"Œ":{"ha":1274,"x_min":78,"x_max":1228,"o":"m 484 1002 q 193 876 309 1002 q 78 524 78 749 l 78 463 q 194 108 78 231 q 456 -14 311 -14 q 558 -9 507 -14 q 654 0 608 -5 l 1228 0 l 1228 106 l 732 106 l 732 456 l 1159 456 l 1159 563 l 732 563 l 732 880 l 1221 880 l 1221 987 l 654 987 q 557 997 608 993 q 484 1002 506 1002 m 210 463 l 210 525 q 288 799 210 699 q 486 899 366 899 q 533 896 501 899 q 601 888 566 893 l 601 97 q 548 90 575 93 q 485 87 521 87 q 289 185 368 87 q 210 463 210 283 z "},"œ":{"ha":1281,"x_min":58,"x_max":1227,"o":"m 186 368 q 239 554 186 478 q 394 631 291 631 q 549 555 497 631 q 602 368 602 479 l 602 346 q 549 159 602 235 q 394 83 497 83 q 239 159 291 83 q 186 346 186 235 l 186 368 m 663 587 q 581 679 649 625 q 386 733 512 733 q 149 631 240 733 q 58 368 58 529 l 58 346 q 149 82 58 184 q 374 -20 241 -20 q 575 27 506 -20 q 664 125 644 75 q 754 27 684 75 q 958 -20 825 -20 q 1117 24 1046 -20 q 1221 119 1187 68 l 1140 183 q 1057 113 1109 142 q 937 83 1005 83 q 779 159 827 83 q 730 346 730 235 l 730 368 q 779 555 730 479 q 929 631 829 631 q 1056 576 1012 631 q 1100 445 1099 522 l 1099 429 l 678 429 l 678 328 l 1227 328 l 1227 380 q 1148 638 1227 543 q 943 734 1069 734 q 749 681 822 734 q 663 587 676 628 z "},"Ŕ":{"ha":848,"x_min":115,"x_max":821,"o":"m 115 0 l 245 0 l 245 403 l 437 403 q 682 484 595 403 q 768 697 768 566 q 682 908 768 829 q 437 987 595 987 l 115 987 l 115 0 m 245 509 l 245 882 l 437 882 q 593 829 549 882 q 637 697 637 776 q 593 564 637 618 q 437 509 549 509 l 245 509 m 675 0 l 821 0 l 563 475 l 434 456 l 675 0 m 332 1125 l 418 1085 l 586 1288 l 476 1355 l 332 1125 z "},"ŕ":{"ha":475,"x_min":100,"x_max":454,"o":"m 100 0 l 227 0 l 227 502 q 290 581 247 549 q 393 613 332 613 q 426 612 411 613 q 454 608 441 610 l 454 724 q 431 730 448 727 q 400 734 415 734 q 295 700 339 734 q 224 622 251 667 l 220 622 l 214 713 l 100 713 l 100 0 m 176 886 l 241 827 l 444 1014 l 340 1085 l 176 886 z "},"Ŗ":{"ha":848,"x_min":115,"x_max":821,"o":"m 115 0 l 245 0 l 245 403 l 437 403 q 682 484 595 403 q 768 697 768 566 q 682 908 768 829 q 437 987 595 987 l 115 987 l 115 0 m 245 509 l 245 882 l 437 882 q 593 829 549 882 q 637 697 637 776 q 593 564 637 618 q 437 509 549 509 l 245 509 m 675 0 l 821 0 l 563 475 l 434 456 l 675 0 m 289 -405 l 408 -407 l 500 -124 l 355 -125 q 321 -277 334 -220 q 289 -405 309 -334 z "},"ŗ":{"ha":475,"x_min":100,"x_max":454,"o":"m 100 0 l 227 0 l 227 502 q 290 581 247 549 q 393 613 332 613 q 426 612 411 613 q 454 608 441 610 l 454 724 q 431 730 448 727 q 400 734 415 734 q 295 700 339 734 q 224 622 251 667 l 220 622 l 214 713 l 100 713 l 100 0 m 144 -405 l 255 -407 l 341 -151 l 204 -153 q 176 -287 189 -239 q 144 -405 164 -334 z "},"Ř":{"ha":848,"x_min":115,"x_max":821,"o":"m 115 0 l 245 0 l 245 403 l 437 403 q 682 484 595 403 q 768 697 768 566 q 682 908 768 829 q 437 987 595 987 l 115 987 l 115 0 m 245 509 l 245 882 l 437 882 q 593 829 549 882 q 637 697 637 776 q 593 564 637 618 q 437 509 549 509 l 245 509 m 675 0 l 821 0 l 563 475 l 434 456 l 675 0 m 359 1085 l 457 1085 l 631 1316 l 514 1316 l 406 1192 l 293 1316 l 180 1316 l 359 1085 z "},"ř":{"ha":475,"x_min":79,"x_max":489,"o":"m 100 0 l 227 0 l 227 502 q 290 581 247 549 q 393 613 332 613 q 426 612 411 613 q 454 608 441 610 l 454 724 q 431 730 448 727 q 400 734 415 734 q 295 700 339 734 q 224 622 251 667 l 220 622 l 214 713 l 100 713 l 100 0 m 247 827 l 323 827 l 489 1040 l 386 1040 l 285 932 l 183 1040 l 79 1040 l 247 827 z "},"Ś":{"ha":827,"x_min":61,"x_max":773,"o":"m 61 270 q 159 58 61 136 q 420 -20 258 -20 q 678 58 583 -20 q 773 258 773 136 q 701 447 773 380 q 471 559 629 514 q 261 641 312 604 q 210 743 210 678 q 260 855 210 814 q 414 897 309 897 q 571 848 518 897 q 624 722 624 800 l 624 713 l 754 713 l 754 722 q 662 927 754 846 q 414 1008 570 1008 q 170 931 258 1008 q 81 739 81 854 q 149 561 81 624 q 377 452 216 498 q 588 366 532 407 q 644 258 644 326 q 587 137 644 183 q 420 91 529 91 q 252 136 312 91 q 191 270 191 180 l 191 278 l 61 278 l 61 270 m 335 1125 l 421 1085 l 589 1288 l 479 1355 l 335 1125 z "},"ś":{"ha":685,"x_min":54,"x_max":631,"o":"m 54 210 l 54 207 q 129 42 54 104 q 346 -20 203 -20 q 559 41 488 -20 q 631 197 631 102 q 568 342 631 292 q 390 420 505 393 q 235 471 275 448 q 196 536 196 495 q 230 604 196 576 q 339 631 264 631 q 449 602 414 631 q 485 522 485 572 l 485 515 l 610 515 l 610 519 q 536 676 610 618 q 339 734 461 734 q 144 675 217 734 q 71 529 71 617 q 139 392 71 441 q 322 315 207 342 q 472 263 437 288 q 507 190 507 237 q 464 113 507 142 q 346 83 420 83 q 226 114 271 83 q 180 207 180 145 l 180 210 l 54 210 m 236 886 l 300 827 l 503 1014 l 399 1085 l 236 886 z "},"Ŝ":{"ha":827,"x_min":61,"x_max":773,"o":"m 61 270 q 159 58 61 136 q 420 -20 258 -20 q 678 58 583 -20 q 773 258 773 136 q 701 447 773 380 q 471 559 629 514 q 261 641 312 604 q 210 743 210 678 q 260 855 210 814 q 414 897 309 897 q 571 848 518 897 q 624 722 624 800 l 624 713 l 754 713 l 754 722 q 662 927 754 846 q 414 1008 570 1008 q 170 931 258 1008 q 81 739 81 854 q 149 561 81 624 q 377 452 216 498 q 588 366 532 407 q 644 258 644 326 q 587 137 644 183 q 420 91 529 91 q 252 136 312 91 q 191 270 191 180 l 191 278 l 61 278 l 61 270 m 455 1339 l 357 1339 l 183 1109 l 300 1109 l 409 1232 l 522 1107 l 635 1109 l 455 1339 z "},"ŝ":{"ha":685,"x_min":54,"x_max":631,"o":"m 54 210 l 54 207 q 129 42 54 104 q 346 -20 203 -20 q 559 41 488 -20 q 631 197 631 102 q 568 342 631 292 q 390 420 505 393 q 235 471 275 448 q 196 536 196 495 q 230 604 196 576 q 339 631 264 631 q 449 602 414 631 q 485 522 485 572 l 485 515 l 610 515 l 610 519 q 536 676 610 618 q 339 734 461 734 q 144 675 217 734 q 71 529 71 617 q 139 392 71 441 q 322 315 207 342 q 472 263 437 288 q 507 190 507 237 q 464 113 507 142 q 346 83 420 83 q 226 114 271 83 q 180 207 180 145 l 180 210 l 54 210 m 380 1040 l 304 1040 l 138 827 l 241 827 l 342 935 l 444 827 l 549 827 l 380 1040 z "},"Ş":{"ha":827,"x_min":61,"x_max":773,"o":"m 61 270 q 159 58 61 136 q 420 -20 258 -20 q 678 58 583 -20 q 773 258 773 136 q 701 447 773 380 q 471 559 629 514 q 261 641 312 604 q 210 743 210 678 q 260 855 210 814 q 414 897 309 897 q 571 848 518 897 q 624 722 624 800 l 624 713 l 754 713 l 754 722 q 662 927 754 846 q 414 1008 570 1008 q 170 931 258 1008 q 81 739 81 854 q 149 561 81 624 q 377 452 216 498 q 588 366 532 407 q 644 258 644 326 q 587 137 644 183 q 420 91 529 91 q 252 136 312 91 q 191 270 191 180 l 191 278 l 61 278 l 61 270 m 358 14 l 330 -134 q 411 -151 387 -138 q 434 -197 434 -163 q 392 -246 434 -233 q 277 -258 351 -259 l 282 -351 q 495 -308 419 -351 q 571 -195 571 -265 q 529 -112 571 -143 q 433 -71 487 -81 l 452 14 l 358 14 z "},"ş":{"ha":685,"x_min":54,"x_max":631,"o":"m 54 210 l 54 207 q 129 42 54 104 q 346 -20 203 -20 q 559 41 488 -20 q 631 197 631 102 q 568 342 631 292 q 390 420 505 393 q 235 471 275 448 q 196 536 196 495 q 230 604 196 576 q 339 631 264 631 q 449 602 414 631 q 485 522 485 572 l 485 515 l 610 515 l 610 519 q 536 676 610 618 q 339 734 461 734 q 144 675 217 734 q 71 529 71 617 q 139 392 71 441 q 322 315 207 342 q 472 263 437 288 q 507 190 507 237 q 464 113 507 142 q 346 83 420 83 q 226 114 271 83 q 180 207 180 145 l 180 210 l 54 210 m 294 14 l 266 -106 q 343 -124 323 -111 q 363 -170 363 -136 q 336 -221 363 -205 q 227 -237 309 -237 l 231 -310 q 427 -271 368 -310 q 486 -168 486 -231 q 444 -83 486 -109 q 362 -51 401 -58 l 381 14 l 294 14 z "},"Š":{"ha":827,"x_min":61,"x_max":773,"o":"m 61 270 q 159 58 61 136 q 420 -20 258 -20 q 678 58 583 -20 q 773 258 773 136 q 701 447 773 380 q 471 559 629 514 q 261 641 312 604 q 210 743 210 678 q 260 855 210 814 q 414 897 309 897 q 571 848 518 897 q 624 722 624 800 l 624 713 l 754 713 l 754 722 q 662 927 754 846 q 414 1008 570 1008 q 170 931 258 1008 q 81 739 81 854 q 149 561 81 624 q 377 452 216 498 q 588 366 532 407 q 644 258 644 326 q 587 137 644 183 q 420 91 529 91 q 252 136 312 91 q 191 270 191 180 l 191 278 l 61 278 l 61 270 m 363 1085 l 460 1085 l 635 1316 l 517 1316 l 409 1192 l 296 1316 l 183 1316 l 363 1085 z "},"š":{"ha":685,"x_min":54,"x_max":631,"o":"m 54 210 l 54 207 q 129 42 54 104 q 346 -20 203 -20 q 559 41 488 -20 q 631 197 631 102 q 568 342 631 292 q 390 420 505 393 q 235 471 275 448 q 196 536 196 495 q 230 604 196 576 q 339 631 264 631 q 449 602 414 631 q 485 522 485 572 l 485 515 l 610 515 l 610 519 q 536 676 610 618 q 339 734 461 734 q 144 675 217 734 q 71 529 71 617 q 139 392 71 441 q 322 315 207 342 q 472 263 437 288 q 507 190 507 237 q 464 113 507 142 q 346 83 420 83 q 226 114 271 83 q 180 207 180 145 l 180 210 l 54 210 m 307 827 l 382 827 l 549 1040 l 446 1040 l 345 932 l 243 1040 l 138 1040 l 307 827 z "},"Ţ":{"ha":798,"x_min":16,"x_max":781,"o":"m 16 880 l 334 880 l 334 0 l 464 0 l 464 880 l 781 880 l 781 987 l 16 987 l 16 880 m 343 14 l 315 -134 q 396 -151 372 -138 q 419 -197 419 -163 q 377 -246 419 -233 q 262 -258 336 -259 l 267 -351 q 480 -308 404 -351 q 556 -195 556 -265 q 514 -112 556 -143 q 418 -71 472 -81 l 437 14 l 343 14 z "},"ţ":{"ha":441,"x_min":0,"x_max":414,"o":"m 0 617 l 407 617 l 407 713 l 0 713 l 0 617 m 127 176 q 174 27 127 75 q 298 -20 220 -20 q 361 -14 332 -20 q 407 0 389 -8 l 407 103 q 370 92 388 96 q 332 88 351 88 q 273 109 292 88 q 254 176 254 129 l 254 890 l 127 890 l 127 675 l 127 655 l 127 176 m 221 14 l 193 -106 q 270 -124 250 -111 q 290 -170 290 -136 q 263 -221 290 -205 q 154 -237 237 -237 l 159 -310 q 355 -271 296 -310 q 414 -168 414 -231 q 371 -83 414 -109 q 290 -51 328 -58 l 309 14 l 221 14 z "},"Ť":{"ha":798,"x_min":16,"x_max":781,"o":"m 16 880 l 334 880 l 334 0 l 464 0 l 464 880 l 781 880 l 781 987 l 16 987 l 16 880 m 348 1085 l 446 1085 l 620 1316 l 503 1316 l 394 1192 l 281 1316 l 168 1316 l 348 1085 z "},"ť":{"ha":754,"x_min":0,"x_max":720,"o":"m 0 617 l 407 617 l 407 713 l 0 713 l 0 617 m 127 176 q 174 27 127 75 q 298 -20 220 -20 q 361 -14 332 -20 q 407 0 389 -8 l 407 103 q 370 92 388 96 q 332 88 351 88 q 273 109 292 88 q 254 176 254 129 l 254 890 l 127 890 l 127 675 l 127 655 l 127 176 m 522 741 l 609 717 l 720 968 l 591 1004 l 522 741 z "},"Ŧ":{"ha":798,"x_min":16,"x_max":781,"o":"m 16 880 l 334 880 l 334 0 l 464 0 l 464 880 l 781 880 l 781 987 l 16 987 l 16 880 m 194 437 l 604 437 l 604 550 l 194 550 l 194 437 z "},"ŧ":{"ha":441,"x_min":0,"x_max":427,"o":"m 0 617 l 407 617 l 407 713 l 0 713 l 0 617 m 127 176 q 174 27 127 75 q 298 -20 220 -20 q 361 -14 332 -20 q 407 0 389 -8 l 407 103 q 370 92 388 96 q 332 88 351 88 q 273 109 292 88 q 254 176 254 129 l 254 890 l 127 890 l 127 675 l 127 655 l 127 176 m 206 370 l 427 370 l 427 469 l 233 469 l 22 469 l 15 370 l 206 370 z "},"Ũ":{"ha":925,"x_min":105,"x_max":820,"o":"m 105 319 q 209 64 105 149 q 463 -20 313 -20 q 716 64 612 -20 q 820 319 820 149 l 820 987 l 690 987 l 690 319 q 627 147 690 203 q 463 91 564 91 q 298 147 361 91 q 235 319 235 203 l 235 987 l 105 987 l 105 319 m 186 1160 l 237 1102 q 284 1149 251 1122 q 353 1176 317 1176 q 404 1163 376 1176 q 456 1133 432 1150 q 514 1102 478 1118 q 587 1085 551 1085 q 676 1115 629 1085 q 752 1201 724 1145 l 706 1259 q 660 1213 688 1232 q 600 1194 631 1194 q 535 1213 568 1194 q 481 1244 502 1232 q 425 1273 453 1263 q 366 1283 397 1283 q 263 1245 314 1283 q 186 1160 212 1206 z "},"ũ":{"ha":772,"x_min":94,"x_max":671,"o":"m 94 253 q 158 48 94 109 q 330 -14 222 -14 q 453 15 397 -14 q 548 92 509 43 l 552 92 l 557 0 l 671 0 l 671 713 l 545 713 l 545 209 q 473 125 519 157 q 367 92 427 92 q 258 129 296 92 q 220 252 220 166 l 220 713 l 94 713 l 94 253 m 144 899 l 196 837 q 236 880 208 855 q 295 904 263 904 q 338 892 315 904 q 384 868 361 881 q 437 842 405 857 q 502 827 469 827 q 586 852 541 827 q 656 924 631 876 l 602 991 q 562 948 586 966 q 511 930 538 930 q 459 945 486 930 q 410 975 433 960 q 359 1000 385 991 q 306 1008 334 1008 q 214 975 260 1008 q 144 899 167 942 z "},"Ū":{"ha":925,"x_min":105,"x_max":820,"o":"m 105 319 q 209 64 105 149 q 463 -20 313 -20 q 716 64 612 -20 q 820 319 820 149 l 820 987 l 690 987 l 690 319 q 627 147 690 203 q 463 91 564 91 q 298 147 361 91 q 235 319 235 203 l 235 987 l 105 987 l 105 319 m 262 1135 l 663 1135 l 663 1241 l 262 1241 l 262 1135 z "},"ū":{"ha":772,"x_min":94,"x_max":671,"o":"m 94 253 q 158 48 94 109 q 330 -14 222 -14 q 453 15 397 -14 q 548 92 509 43 l 552 92 l 557 0 l 671 0 l 671 713 l 545 713 l 545 209 q 473 125 519 157 q 367 92 427 92 q 258 129 296 92 q 220 252 220 166 l 220 713 l 94 713 l 94 253 m 599 930 l 173 930 l 173 827 l 599 827 l 599 930 z "},"Ŭ":{"ha":925,"x_min":105,"x_max":820,"o":"m 105 319 q 209 64 105 149 q 463 -20 313 -20 q 716 64 612 -20 q 820 319 820 149 l 820 987 l 690 987 l 690 319 q 627 147 690 203 q 463 91 564 91 q 298 147 361 91 q 235 319 235 203 l 235 987 l 105 987 l 105 319 m 660 1313 q 581 1233 631 1267 q 463 1200 532 1200 q 349 1235 398 1200 q 271 1313 300 1270 l 203 1266 q 306 1137 235 1189 q 463 1085 376 1085 q 628 1142 560 1085 q 723 1265 696 1198 l 660 1313 z "},"ŭ":{"ha":772,"x_min":94,"x_max":671,"o":"m 94 253 q 158 48 94 109 q 330 -14 222 -14 q 453 15 397 -14 q 548 92 509 43 l 552 92 l 557 0 l 671 0 l 671 713 l 545 713 l 545 209 q 473 125 519 157 q 367 92 427 92 q 258 129 296 92 q 220 252 220 166 l 220 713 l 94 713 l 94 253 m 551 1029 q 486 956 526 988 q 388 924 445 924 q 294 957 334 924 q 230 1029 254 991 l 159 994 q 249 864 188 916 q 387 812 311 812 q 532 869 473 812 q 615 993 591 926 l 551 1029 z "},"Ů":{"ha":925,"x_min":105,"x_max":820,"o":"m 105 319 q 209 64 105 149 q 463 -20 313 -20 q 716 64 612 -20 q 820 319 820 149 l 820 987 l 690 987 l 690 319 q 627 147 690 203 q 463 91 564 91 q 298 147 361 91 q 235 319 235 203 l 235 987 l 105 987 l 105 319 m 300 1240 q 346 1129 300 1173 q 463 1085 392 1085 q 579 1129 533 1085 q 625 1240 625 1173 q 579 1352 625 1308 q 463 1396 533 1396 q 346 1352 392 1396 q 300 1240 300 1308 m 386 1240 q 406 1297 386 1278 q 463 1317 425 1317 q 518 1296 498 1317 q 539 1240 539 1275 q 519 1183 539 1203 q 463 1164 500 1164 q 407 1185 427 1164 q 386 1240 386 1206 z "},"ů":{"ha":772,"x_min":94,"x_max":671,"o":"m 94 253 q 158 48 94 109 q 330 -14 222 -14 q 453 15 397 -14 q 548 92 509 43 l 552 92 l 557 0 l 671 0 l 671 713 l 545 713 l 545 209 q 473 125 519 157 q 367 92 427 92 q 258 129 296 92 q 220 252 220 166 l 220 713 l 94 713 l 94 253 m 233 972 q 277 869 233 911 q 386 827 321 827 q 494 869 450 827 q 539 972 539 911 q 494 1077 539 1034 q 386 1120 450 1120 q 277 1077 321 1120 q 233 972 233 1034 m 307 972 q 329 1028 307 1004 q 386 1053 351 1053 q 443 1028 420 1053 q 465 972 465 1004 q 443 918 465 941 q 386 895 420 895 q 329 919 351 895 q 307 972 307 943 z "},"Ű":{"ha":925,"x_min":105,"x_max":820,"o":"m 105 319 q 209 64 105 149 q 463 -20 313 -20 q 716 64 612 -20 q 820 319 820 149 l 820 987 l 690 987 l 690 319 q 627 147 690 203 q 463 91 564 91 q 298 147 361 91 q 235 319 235 203 l 235 987 l 105 987 l 105 319 m 284 1125 l 370 1085 l 538 1288 l 429 1355 l 284 1125 m 511 1125 l 597 1085 l 765 1288 l 655 1355 l 511 1125 z "},"ű":{"ha":772,"x_min":94,"x_max":689,"o":"m 94 253 q 158 48 94 109 q 330 -14 222 -14 q 453 15 397 -14 q 548 92 509 43 l 552 92 l 557 0 l 671 0 l 671 713 l 545 713 l 545 209 q 473 125 519 157 q 367 92 427 92 q 258 129 296 92 q 220 252 220 166 l 220 713 l 94 713 l 94 253 m 218 875 l 276 817 l 479 1003 l 382 1074 l 218 875 m 429 875 l 486 817 l 689 1003 l 592 1074 l 429 875 z "},"Ų":{"ha":925,"x_min":105,"x_max":820,"o":"m 105 319 q 209 64 105 149 q 463 -20 313 -20 q 716 64 612 -20 q 820 319 820 149 l 820 987 l 690 987 l 690 319 q 627 147 690 203 q 463 91 564 91 q 298 147 361 91 q 235 319 235 203 l 235 987 l 105 987 l 105 319 m 367 -208 q 418 -299 367 -260 q 541 -337 470 -337 q 671 -310 612 -337 q 762 -242 731 -283 l 723 -172 q 636 -220 681 -204 q 559 -235 591 -235 q 504 -217 524 -235 q 484 -165 484 -198 q 506 -103 484 -135 q 599 0 528 -71 l 534 35 q 410 -87 454 -28 q 367 -208 367 -147 z "},"ų":{"ha":772,"x_min":94,"x_max":686,"o":"m 94 253 q 158 48 94 109 q 330 -14 222 -14 q 453 15 397 -14 q 548 92 509 43 l 552 92 l 557 0 l 671 0 l 671 713 l 545 713 l 545 209 q 473 125 519 157 q 367 92 427 92 q 258 129 296 92 q 220 252 220 166 l 220 713 l 94 713 l 94 253 m 621 39 q 488 -57 529 -4 q 446 -165 446 -111 q 484 -261 446 -228 q 576 -294 522 -294 q 643 -284 616 -294 q 686 -264 669 -275 l 676 -182 q 648 -194 666 -187 q 608 -200 631 -200 q 567 -186 579 -200 q 555 -151 555 -173 q 592 -70 555 -106 q 671 0 628 -33 l 621 39 z "},"Ŵ":{"ha":1229,"x_min":34,"x_max":1195,"o":"m 277 -7 l 403 -7 l 593 726 q 604 769 600 749 q 612 812 608 790 l 617 812 q 625 769 621 790 q 635 726 629 749 l 826 -7 l 952 -7 l 1195 987 l 1066 987 l 905 256 q 897 219 899 233 q 891 183 894 205 l 885 183 q 880 219 882 205 q 871 256 878 233 l 681 987 l 549 987 l 366 256 q 357 219 359 233 q 352 183 355 205 l 345 183 q 340 219 342 205 q 332 256 338 233 l 164 987 l 34 987 l 277 -7 m 656 1339 l 558 1339 l 384 1109 l 501 1109 l 610 1232 l 722 1107 l 836 1109 l 656 1339 z "},"ŵ":{"ha":1048,"x_min":17,"x_max":1031,"o":"m 17 713 l 237 0 l 336 0 l 491 461 q 508 515 500 488 q 522 570 515 543 l 526 570 q 541 515 533 543 q 557 461 549 488 l 713 0 l 811 0 l 1031 713 l 916 713 l 789 244 q 778 200 781 217 q 768 156 774 183 l 764 156 q 754 200 759 183 q 741 244 750 217 l 581 713 l 475 713 l 319 244 q 306 200 311 217 q 296 156 302 183 l 292 156 q 282 200 287 183 q 271 244 278 217 l 139 713 l 17 713 m 562 1040 l 486 1040 l 320 827 l 423 827 l 524 935 l 626 827 l 730 827 l 562 1040 z "},"Ŷ":{"ha":833,"x_min":10,"x_max":823,"o":"m 351 0 l 481 0 l 481 369 l 823 987 l 682 987 l 456 570 q 436 532 446 549 q 420 497 427 515 l 416 497 q 399 532 408 515 q 379 570 390 549 l 157 987 l 10 987 l 351 369 l 351 0 m 458 1339 l 360 1339 l 186 1109 l 303 1109 l 412 1232 l 524 1107 l 637 1109 l 458 1339 z "},"ŷ":{"ha":639,"x_min":7,"x_max":639,"o":"m 34 -282 q 74 -292 53 -289 q 122 -296 95 -296 q 259 -243 203 -296 q 349 -95 315 -190 l 639 713 l 519 713 l 362 244 q 346 193 353 217 q 332 149 338 170 l 328 149 q 315 193 322 170 q 298 244 307 217 l 129 713 l 7 713 l 273 3 l 273 3 q 198 -152 233 -116 q 115 -187 163 -187 q 73 -184 95 -187 q 34 -175 52 -180 l 34 -282 m 370 1040 l 294 1040 l 127 827 l 231 827 l 332 935 l 433 827 l 538 827 l 370 1040 z "},"Ÿ":{"ha":833,"x_min":10,"x_max":823,"o":"m 351 0 l 481 0 l 481 369 l 823 987 l 682 987 l 456 570 q 436 532 446 549 q 420 497 427 515 l 416 497 q 399 532 408 515 q 379 570 390 549 l 157 987 l 10 987 l 351 369 l 351 0 m 182 1212 q 203 1156 182 1177 q 260 1135 224 1135 q 319 1155 299 1135 q 339 1212 339 1175 q 318 1268 339 1246 q 260 1289 296 1289 q 202 1269 222 1289 q 182 1212 182 1249 m 494 1212 q 515 1156 494 1177 q 572 1135 536 1135 q 631 1155 611 1135 q 651 1212 651 1175 q 630 1268 651 1246 q 572 1289 608 1289 q 514 1269 534 1289 q 494 1212 494 1249 z "},"Ź":{"ha":807,"x_min":44,"x_max":762,"o":"m 44 0 l 762 0 l 762 107 l 199 107 l 741 892 l 741 987 l 52 987 l 52 880 l 585 880 l 44 95 l 44 0 m 325 1125 l 411 1085 l 579 1288 l 469 1355 l 325 1125 z "},"ź":{"ha":673,"x_min":47,"x_max":629,"o":"m 47 0 l 629 0 l 629 103 l 198 103 l 609 623 l 609 713 l 53 713 l 53 610 l 457 610 l 47 92 l 47 0 m 230 886 l 294 827 l 497 1014 l 393 1085 l 230 886 z "},"Ż":{"ha":807,"x_min":44,"x_max":762,"o":"m 44 0 l 762 0 l 762 107 l 199 107 l 741 892 l 741 987 l 52 987 l 52 880 l 585 880 l 44 95 l 44 0 m 325 1170 q 345 1116 325 1138 q 404 1095 366 1095 q 462 1116 441 1095 q 482 1170 482 1138 q 462 1223 482 1202 q 404 1245 441 1245 q 345 1223 366 1245 q 325 1170 325 1202 z "},"ż":{"ha":673,"x_min":47,"x_max":629,"o":"m 47 0 l 629 0 l 629 103 l 198 103 l 609 623 l 609 713 l 53 713 l 53 610 l 457 610 l 47 92 l 47 0 m 258 912 q 278 859 258 880 q 336 837 298 837 q 395 859 374 837 q 415 912 415 880 q 395 966 415 944 q 336 987 374 987 q 278 966 298 987 q 258 912 258 944 z "},"Ž":{"ha":807,"x_min":44,"x_max":762,"o":"m 44 0 l 762 0 l 762 107 l 199 107 l 741 892 l 741 987 l 52 987 l 52 880 l 585 880 l 44 95 l 44 0 m 353 1085 l 450 1085 l 625 1316 l 507 1316 l 399 1192 l 286 1316 l 173 1316 l 353 1085 z "},"ž":{"ha":673,"x_min":47,"x_max":629,"o":"m 47 0 l 629 0 l 629 103 l 198 103 l 609 623 l 609 713 l 53 713 l 53 610 l 457 610 l 47 92 l 47 0 m 300 827 l 376 827 l 543 1040 l 439 1040 l 338 932 l 237 1040 l 132 1040 l 300 827 z "},"Ə":{"ha":981,"x_min":43,"x_max":926,"o":"m 43 813 l 106 764 q 233 885 148 837 q 441 932 318 932 q 689 821 583 932 q 797 508 795 710 q 708 190 798 313 q 476 66 618 66 q 272 140 341 66 q 202 326 202 214 l 202 377 l 451 381 l 833 376 l 833 465 l 69 465 l 69 392 q 176 85 69 191 q 469 -20 282 -20 q 796 141 666 -20 q 926 535 926 302 q 803 886 926 742 q 454 1030 680 1030 q 208 975 307 1030 q 43 813 110 920 z "},"ƒ":{"ha":694,"x_min":-6,"x_max":653,"o":"m 589 598 l 376 598 l 376 764 q 406 863 376 830 q 483 895 435 895 q 543 885 515 895 q 598 854 572 875 l 653 952 q 582 990 626 972 q 480 1008 538 1008 q 312 945 374 1008 q 251 764 251 882 l 251 598 l 87 598 l 87 502 l 251 502 l 251 75 q 201 -138 251 -83 q 70 -193 152 -193 q 37 -190 60 -193 q 3 -184 14 -188 l -6 -285 q 31 -294 13 -292 q 70 -296 49 -296 q 307 -207 237 -296 q 376 75 376 -117 l 376 502 l 589 502 l 589 598 z "},"Ơ":{"ha":990,"x_min":78,"x_max":912,"o":"m 78 463 q 195 107 78 235 q 495 -20 312 -20 q 795 107 678 -20 q 912 463 912 235 l 912 525 q 795 880 912 753 q 495 1008 678 1008 q 195 880 312 1008 q 78 525 78 753 l 78 463 m 210 463 l 210 525 q 288 798 210 699 q 495 897 366 897 q 702 798 624 897 q 781 525 781 699 l 781 463 q 702 190 781 289 q 495 91 624 91 q 288 190 366 91 q 210 463 210 289 m 627 987 l 627 912 q 669 902 644 906 q 724 898 693 898 q 837 927 789 898 q 884 1015 884 956 q 873 1093 884 1059 q 848 1149 862 1126 l 749 1149 q 761 1101 756 1124 q 765 1046 765 1077 q 741 999 765 1010 q 684 987 716 987 l 627 987 z "},"ơ":{"ha":788,"x_min":58,"x_max":755,"o":"m 58 346 q 149 82 58 184 q 394 -20 241 -20 q 639 82 547 -20 q 730 346 730 184 l 730 368 q 639 631 730 529 q 394 734 547 734 q 149 631 241 734 q 58 368 58 529 l 58 346 m 186 368 q 239 554 186 478 q 394 631 291 631 q 549 554 497 631 q 602 368 602 478 l 602 346 q 549 159 602 235 q 394 83 497 83 q 239 159 291 83 q 186 346 186 235 l 186 368 m 498 713 l 498 638 q 540 628 515 632 q 595 624 564 624 q 708 653 661 624 q 755 741 755 682 q 744 820 755 785 q 720 877 733 854 l 621 877 q 632 828 627 852 q 636 772 636 803 q 612 725 636 736 q 555 713 587 713 l 498 713 z "},"Ư":{"ha":925,"x_min":105,"x_max":1013,"o":"m 105 319 q 209 64 105 149 q 463 -20 313 -20 q 716 64 612 -20 q 820 319 820 149 l 820 987 l 690 987 l 690 319 q 627 147 690 203 q 463 91 564 91 q 298 147 361 91 q 235 319 235 203 l 235 987 l 105 987 l 105 319 m 755 987 l 755 912 q 797 902 772 906 q 852 898 821 898 q 965 927 918 898 q 1013 1015 1013 956 q 1001 1093 1013 1059 q 977 1149 990 1126 l 878 1149 q 889 1101 884 1124 q 893 1046 893 1077 q 869 999 893 1010 q 812 987 844 987 l 755 987 z "},"ư":{"ha":772,"x_min":94,"x_max":848,"o":"m 94 253 q 158 48 94 109 q 330 -14 222 -14 q 453 15 397 -14 q 548 92 509 43 l 552 92 l 557 0 l 671 0 l 671 713 l 545 713 l 545 209 q 473 125 519 157 q 367 92 427 92 q 258 129 296 92 q 220 252 220 166 l 220 713 l 94 713 l 94 253 m 590 713 l 590 638 q 632 628 608 632 q 688 624 656 624 q 800 653 753 624 q 848 741 848 682 q 837 820 848 785 q 812 877 825 854 l 713 877 q 724 828 720 852 q 728 772 728 803 q 704 725 728 736 q 647 713 680 713 l 590 713 z "},"Ǆ":{"ha":1721,"x_min":115,"x_max":1676,"o":"m 115 0 l 408 0 q 725 125 598 0 q 851 463 851 251 l 851 525 q 725 862 851 736 q 408 987 598 987 l 115 987 l 115 0 m 245 107 l 245 880 l 408 880 q 635 786 551 880 q 720 525 720 692 l 720 463 q 635 201 720 296 q 408 107 551 107 l 245 107 m 958 0 l 1676 0 l 1676 107 l 1113 107 l 1654 892 l 1654 987 l 966 987 l 966 880 l 1499 880 l 958 95 l 958 0 m 1266 1085 l 1364 1085 l 1538 1316 l 1421 1316 l 1312 1192 l 1200 1316 l 1086 1316 l 1266 1085 z "},"ǅ":{"ha":1602,"x_min":115,"x_max":1558,"o":"m 115 0 l 408 0 q 725 125 598 0 q 851 463 851 251 l 851 525 q 725 862 851 736 q 408 987 598 987 l 115 987 l 115 0 m 245 107 l 245 880 l 408 880 q 635 786 551 880 q 720 525 720 692 l 720 463 q 635 201 720 296 q 408 107 551 107 l 245 107 m 977 0 l 1558 0 l 1558 103 l 1127 103 l 1538 623 l 1538 713 l 982 713 l 982 610 l 1386 610 l 977 92 l 977 0 m 1230 827 l 1305 827 l 1472 1040 l 1369 1040 l 1267 932 l 1166 1040 l 1061 1040 l 1230 827 z "},"ǆ":{"ha":1466,"x_min":58,"x_max":1423,"o":"m 58 346 q 139 88 58 190 q 356 -14 220 -14 q 487 18 431 -14 q 570 93 543 49 l 574 93 l 579 0 l 693 0 l 693 1042 l 567 1042 l 567 629 q 483 700 536 673 q 356 727 431 727 q 139 625 220 727 q 58 368 58 524 l 58 346 m 186 346 l 186 368 q 234 550 186 476 q 383 624 281 624 q 498 587 451 624 q 567 502 546 549 l 567 212 q 498 127 546 164 q 383 90 451 90 q 234 163 281 90 q 186 346 186 237 m 841 0 l 1423 0 l 1423 103 l 991 103 l 1402 623 l 1402 713 l 846 713 l 846 610 l 1251 610 l 841 92 l 841 0 m 1094 827 l 1170 827 l 1336 1040 l 1233 1040 l 1132 932 l 1030 1040 l 926 1040 l 1094 827 z "},"Ǉ":{"ha":1496,"x_min":115,"x_max":1391,"o":"m 115 0 l 713 0 l 713 107 l 245 107 l 245 987 l 115 987 l 115 0 m 767 271 q 853 58 767 136 q 1079 -20 940 -20 q 1304 63 1218 -20 q 1391 288 1391 146 l 1391 987 l 1261 987 l 1261 288 q 1212 142 1261 193 q 1079 91 1164 91 q 946 137 994 91 q 897 271 897 183 l 897 278 l 767 278 l 767 271 z "},"ǈ":{"ha":1089,"x_min":115,"x_max":998,"o":"m 115 0 l 713 0 l 713 107 l 245 107 l 245 987 l 115 987 l 115 0 m 686 -278 q 737 -290 703 -284 q 798 -296 770 -296 q 936 -239 888 -296 q 983 -61 983 -183 l 983 713 l 857 713 l 857 -88 q 834 -166 857 -142 q 770 -190 811 -190 q 725 -185 750 -190 q 686 -176 700 -180 l 686 -278 m 841 929 q 861 876 841 897 q 920 854 882 854 q 978 876 958 854 q 998 929 998 897 q 978 983 998 961 q 920 1004 958 1004 q 861 983 882 1004 q 841 929 841 961 z "},"ǉ":{"ha":677,"x_min":106,"x_max":586,"o":"m 106 0 l 232 0 l 232 1042 l 106 1042 l 106 0 m 274 -278 q 325 -290 291 -284 q 385 -296 358 -296 q 523 -239 476 -296 q 570 -61 570 -183 l 570 713 l 444 713 l 444 -88 q 421 -166 444 -142 q 358 -190 399 -190 q 313 -185 338 -190 q 274 -176 288 -180 l 274 -278 m 429 929 q 449 876 429 897 q 507 854 469 854 q 566 876 545 854 q 586 929 586 897 q 566 983 586 961 q 507 1004 545 1004 q 449 983 469 1004 q 429 929 429 961 z "},"Ǌ":{"ha":1736,"x_min":115,"x_max":1631,"o":"m 115 0 l 243 0 l 243 678 q 242 724 243 699 q 241 770 242 749 l 246 770 q 267 732 256 753 q 292 692 279 712 l 739 0 l 875 0 l 875 987 l 747 987 l 747 309 q 748 263 747 289 q 749 218 748 238 l 743 218 q 723 255 735 235 q 698 296 711 275 l 251 987 l 115 987 l 115 0 m 1007 271 q 1094 58 1007 136 q 1319 -20 1180 -20 q 1545 63 1458 -20 q 1631 288 1631 146 l 1631 987 l 1501 987 l 1501 288 q 1452 142 1501 193 q 1319 91 1404 91 q 1186 137 1234 91 q 1137 271 1137 183 l 1137 278 l 1007 278 l 1007 271 z "},"ǋ":{"ha":1329,"x_min":115,"x_max":1238,"o":"m 115 0 l 243 0 l 243 678 q 242 724 243 699 q 241 770 242 749 l 246 770 q 267 732 256 753 q 292 692 279 712 l 739 0 l 875 0 l 875 987 l 747 987 l 747 309 q 748 263 747 289 q 749 218 748 238 l 743 218 q 723 255 735 235 q 698 296 711 275 l 251 987 l 115 987 l 115 0 m 926 -278 q 977 -290 943 -284 q 1038 -296 1010 -296 q 1176 -239 1128 -296 q 1223 -61 1223 -183 l 1223 713 l 1097 713 l 1097 -88 q 1074 -166 1097 -142 q 1010 -190 1051 -190 q 965 -185 990 -190 q 926 -176 940 -180 l 926 -278 m 1081 929 q 1101 876 1081 897 q 1160 854 1122 854 q 1218 876 1198 854 q 1238 929 1238 897 q 1218 983 1238 961 q 1160 1004 1198 1004 q 1101 983 1122 1004 q 1081 929 1081 961 z "},"ǌ":{"ha":1111,"x_min":100,"x_max":1020,"o":"m 100 0 l 227 0 l 227 505 q 298 589 252 556 q 405 621 345 621 q 514 584 475 621 q 552 462 552 547 l 552 0 l 678 0 l 678 460 q 614 666 678 604 q 442 727 550 727 q 318 699 374 727 q 224 622 262 671 l 220 622 l 214 713 l 100 713 l 100 0 m 708 -278 q 759 -290 725 -284 q 819 -296 792 -296 q 957 -239 910 -296 q 1004 -61 1004 -183 l 1004 713 l 878 713 l 878 -88 q 856 -166 878 -142 q 792 -190 833 -190 q 747 -185 772 -190 q 708 -176 722 -180 l 708 -278 m 863 929 q 883 876 863 897 q 941 854 903 854 q 1000 876 979 854 q 1020 929 1020 897 q 1000 983 1020 961 q 941 1004 979 1004 q 883 983 903 1004 q 863 929 863 961 z "},"Ǧ":{"ha":954,"x_min":78,"x_max":867,"o":"m 78 463 q 195 107 78 235 q 509 -20 312 -20 q 729 20 637 -20 q 867 109 821 61 l 867 494 l 495 494 l 495 387 l 741 387 l 741 156 q 637 106 692 122 q 509 91 583 91 q 288 190 366 91 q 210 463 210 289 l 210 525 q 288 798 210 699 q 496 897 366 897 q 673 835 610 897 q 736 705 736 773 l 736 699 l 867 699 l 866 706 q 760 918 855 828 q 497 1008 665 1008 q 195 880 312 1008 q 78 525 78 753 l 78 463 m 445 1085 l 543 1085 l 717 1316 l 600 1316 l 491 1192 l 378 1316 l 265 1316 l 445 1085 z "},"ǧ":{"ha":793,"x_min":58,"x_max":693,"o":"m 84 -193 q 210 -267 136 -237 q 373 -296 285 -296 q 604 -216 515 -296 q 693 14 693 -136 l 693 713 l 579 713 l 574 621 l 570 621 q 487 696 543 665 q 356 727 431 727 q 139 625 220 727 q 58 368 58 524 l 58 346 q 139 88 58 190 q 356 -14 220 -14 q 483 13 431 -14 q 567 84 536 40 l 567 14 q 514 -134 567 -81 q 370 -186 461 -186 q 248 -159 302 -186 q 163 -98 193 -132 l 84 -193 m 186 346 l 186 368 q 234 550 186 476 q 383 624 281 624 q 498 587 451 624 q 567 502 546 549 l 567 212 q 498 127 546 164 q 383 90 451 90 q 234 163 281 90 q 186 346 186 237 m 361 827 l 437 827 l 603 1040 l 500 1040 l 399 932 l 297 1040 l 193 1040 l 361 827 z "},"Ǫ":{"ha":990,"x_min":78,"x_max":912,"o":"m 78 463 q 195 107 78 235 q 495 -20 312 -20 q 795 107 678 -20 q 912 463 912 235 l 912 525 q 795 880 912 753 q 495 1008 678 1008 q 195 880 312 1008 q 78 525 78 753 l 78 463 m 210 463 l 210 525 q 288 798 210 699 q 495 897 366 897 q 702 798 624 897 q 781 525 781 699 l 781 463 q 702 190 781 289 q 495 91 624 91 q 288 190 366 91 q 210 463 210 289 m 395 -208 q 446 -299 395 -260 q 569 -337 498 -337 q 699 -310 640 -337 q 789 -242 759 -283 l 751 -172 q 664 -220 709 -204 q 587 -235 619 -235 q 532 -217 552 -235 q 511 -165 511 -198 q 533 -103 511 -135 q 627 0 555 -71 l 562 35 q 438 -87 481 -28 q 395 -208 395 -147 z "},"ǫ":{"ha":788,"x_min":58,"x_max":730,"o":"m 58 346 q 149 82 58 184 q 394 -20 241 -20 q 639 82 547 -20 q 730 346 730 184 l 730 368 q 639 631 730 529 q 394 734 547 734 q 149 631 241 734 q 58 368 58 529 l 58 346 m 186 368 q 239 554 186 478 q 394 631 291 631 q 549 554 497 631 q 602 368 602 478 l 602 346 q 549 159 602 235 q 394 83 497 83 q 239 159 291 83 q 186 346 186 235 l 186 368 m 486 39 q 353 -57 394 -4 q 311 -165 311 -111 q 349 -261 311 -228 q 441 -294 387 -294 q 508 -284 481 -294 q 551 -264 534 -275 l 541 -182 q 513 -194 531 -187 q 473 -200 496 -200 q 432 -186 444 -200 q 420 -151 420 -173 q 457 -70 420 -106 q 536 0 493 -33 l 486 39 z "},"Ǻ":{"ha":868,"x_min":0,"x_max":868,"o":"m 0 0 l 130 0 l 404 746 q 418 789 412 768 q 429 833 425 810 l 436 833 q 447 789 441 810 q 461 746 453 768 l 732 0 l 868 0 l 492 994 l 376 994 l 0 0 m 161 258 l 705 258 l 665 365 l 201 365 l 161 258 m 281 1246 q 325 1143 281 1185 q 434 1101 369 1101 q 543 1143 498 1101 q 587 1246 587 1185 q 543 1351 587 1308 q 434 1394 498 1394 q 325 1351 369 1394 q 281 1246 281 1308 m 355 1246 q 377 1302 355 1278 q 434 1326 399 1326 q 491 1302 469 1326 q 513 1246 513 1278 q 491 1192 513 1215 q 434 1168 469 1168 q 377 1193 399 1168 q 355 1246 355 1217 m 292 1516 l 347 1441 l 576 1558 l 497 1669 l 292 1516 z "},"ǻ":{"ha":750,"x_min":61,"x_max":680,"o":"m 61 210 q 132 44 61 102 q 305 -14 203 -14 q 449 20 393 -14 q 530 98 505 54 q 540 44 532 71 q 557 0 548 17 l 680 0 l 680 11 q 661 80 667 41 q 654 163 654 119 l 654 488 q 583 672 654 610 q 383 734 512 734 q 179 670 254 734 q 103 522 103 607 l 103 519 l 229 519 l 229 522 q 263 600 229 566 q 380 633 298 633 q 494 593 461 633 q 528 488 528 553 l 528 439 l 366 439 q 147 379 233 439 q 61 210 61 319 m 187 217 q 236 314 187 278 q 380 350 285 350 l 528 350 l 528 248 q 467 138 528 190 q 332 87 407 87 q 222 121 258 87 q 187 217 187 156 m 222 972 q 266 869 222 911 q 375 827 310 827 q 484 869 439 827 q 528 972 528 911 q 484 1077 528 1034 q 375 1120 439 1120 q 266 1077 310 1120 q 222 972 222 1034 m 296 972 q 318 1028 296 1004 q 375 1053 340 1053 q 432 1028 410 1053 q 454 972 454 1004 q 432 918 454 941 q 375 895 410 895 q 318 919 340 895 q 296 972 296 943 m 269 1293 l 333 1234 l 536 1421 l 432 1492 l 269 1293 z "},"Ǽ":{"ha":1298,"x_min":-10,"x_max":1252,"o":"m 205 239 l 702 239 l 702 358 l 273 358 l 205 239 m -10 0 l 144 0 l 631 840 l 631 0 l 1252 0 l 1252 107 l 761 107 l 761 456 l 1183 456 l 1183 563 l 761 563 l 761 880 l 1245 880 l 1245 987 l 587 987 l -10 0 m 595 1125 l 681 1085 l 849 1288 l 739 1355 l 595 1125 z "},"ǽ":{"ha":1202,"x_min":61,"x_max":1147,"o":"m 187 217 q 236 314 187 278 q 380 350 285 350 l 528 350 l 528 248 q 467 138 528 190 q 332 87 407 87 q 222 121 258 87 q 187 217 187 156 m 61 203 q 132 44 61 102 q 305 -14 203 -14 q 476 27 408 -14 q 572 144 544 67 q 687 20 608 61 q 865 -20 766 -20 q 1037 24 966 -20 q 1142 119 1108 68 l 1061 183 q 981 113 1030 142 q 865 83 932 83 q 703 159 755 83 q 650 346 650 235 l 650 368 q 700 554 650 478 q 842 631 749 631 q 976 576 932 631 q 1021 445 1020 522 l 1020 429 l 599 429 l 599 328 l 1147 328 l 1147 380 q 1069 638 1147 543 q 844 734 990 734 q 688 689 745 734 q 618 591 631 644 q 553 689 611 644 q 383 734 494 734 q 179 670 254 734 q 103 522 103 607 l 103 519 l 229 519 l 229 522 q 263 600 229 566 q 380 633 298 633 q 494 593 461 633 q 528 488 528 553 l 528 439 l 366 439 q 147 379 233 439 q 61 203 61 319 m 504 886 l 568 827 l 771 1014 l 667 1085 l 504 886 z "},"Ǿ":{"ha":990,"x_min":78,"x_max":912,"o":"m 78 463 q 195 107 78 235 q 495 -20 312 -20 q 795 107 678 -20 q 912 463 912 235 l 912 525 q 795 880 912 753 q 495 1008 678 1008 q 195 880 312 1008 q 78 525 78 753 l 78 463 m 210 463 l 210 525 q 288 798 210 699 q 495 897 366 897 q 702 798 624 897 q 781 525 781 699 l 781 463 q 702 190 781 289 q 495 91 624 91 q 288 190 366 91 q 210 463 210 289 m 285 -92 l 400 -92 l 429 16 l 416 19 l 547 527 l 473 573 l 334 37 l 321 41 l 285 -92 m 589 1080 l 560 972 l 574 969 l 473 573 l 547 527 l 655 951 l 669 948 l 705 1080 l 589 1080 m 416 1125 l 503 1085 l 671 1288 l 561 1355 l 416 1125 z "},"ǿ":{"ha":788,"x_min":58,"x_max":730,"o":"m 58 346 q 149 82 58 184 q 394 -20 241 -20 q 639 82 547 -20 q 730 346 730 184 l 730 368 q 639 631 730 529 q 394 734 547 734 q 149 631 241 734 q 58 368 58 529 l 58 346 m 186 368 q 239 554 186 478 q 394 631 291 631 q 549 554 497 631 q 602 368 602 478 l 602 346 q 549 159 602 235 q 394 83 497 83 q 239 159 291 83 q 186 346 186 235 l 186 368 m 165 -69 l 277 -73 l 327 45 l 313 48 l 437 359 l 370 407 l 234 68 l 222 71 l 165 -69 m 508 787 l 465 680 l 478 676 l 370 407 l 437 359 l 557 657 l 571 654 l 624 785 l 508 787 m 288 886 l 352 827 l 555 1014 l 451 1085 l 288 886 z "},"Ȁ":{"ha":868,"x_min":0,"x_max":868,"o":"m 0 0 l 130 0 l 404 746 q 418 789 412 768 q 429 833 425 810 l 436 833 q 447 789 441 810 q 461 746 453 768 l 732 0 l 868 0 l 492 994 l 376 994 l 0 0 m 161 258 l 705 258 l 665 365 l 201 365 l 161 258 m 336 1085 l 412 1136 l 282 1339 l 176 1272 l 336 1085 m 540 1085 l 616 1136 l 486 1339 l 379 1272 l 540 1085 z "},"ȁ":{"ha":750,"x_min":59,"x_max":680,"o":"m 61 210 q 132 44 61 102 q 305 -14 203 -14 q 449 20 393 -14 q 530 98 505 54 q 540 44 532 71 q 557 0 548 17 l 680 0 l 680 11 q 661 80 667 41 q 654 163 654 119 l 654 488 q 583 672 654 610 q 383 734 512 734 q 179 670 254 734 q 103 522 103 607 l 103 519 l 229 519 l 229 522 q 263 600 229 566 q 380 633 298 633 q 494 593 461 633 q 528 488 528 553 l 528 439 l 366 439 q 147 379 233 439 q 61 210 61 319 m 187 217 q 236 314 187 278 q 380 350 285 350 l 528 350 l 528 248 q 467 138 528 190 q 332 87 407 87 q 222 121 258 87 q 187 217 187 156 m 262 827 l 333 880 l 163 1084 l 59 1013 l 262 827 m 491 827 l 562 880 l 392 1084 l 288 1013 l 491 827 z "},"Ȃ":{"ha":868,"x_min":0,"x_max":868,"o":"m 0 0 l 130 0 l 404 746 q 418 789 412 768 q 429 833 425 810 l 436 833 q 447 789 441 810 q 461 746 453 768 l 732 0 l 868 0 l 492 994 l 376 994 l 0 0 m 161 258 l 705 258 l 665 365 l 201 365 l 161 258 m 237 1085 q 316 1165 267 1131 q 435 1198 366 1198 q 548 1163 499 1198 q 627 1085 597 1128 l 694 1132 q 592 1261 662 1209 q 435 1313 522 1313 q 269 1256 337 1313 q 174 1133 201 1200 l 237 1085 z "},"ȃ":{"ha":750,"x_min":61,"x_max":680,"o":"m 61 210 q 132 44 61 102 q 305 -14 203 -14 q 449 20 393 -14 q 530 98 505 54 q 540 44 532 71 q 557 0 548 17 l 680 0 l 680 11 q 661 80 667 41 q 654 163 654 119 l 654 488 q 583 672 654 610 q 383 734 512 734 q 179 670 254 734 q 103 522 103 607 l 103 519 l 229 519 l 229 522 q 263 600 229 566 q 380 633 298 633 q 494 593 461 633 q 528 488 528 553 l 528 439 l 366 439 q 147 379 233 439 q 61 210 61 319 m 187 217 q 236 314 187 278 q 380 350 285 350 l 528 350 l 528 248 q 467 138 528 190 q 332 87 407 87 q 222 121 258 87 q 187 217 187 156 m 212 827 q 277 901 237 869 q 375 933 318 933 q 469 900 429 933 q 533 827 509 866 l 604 863 q 514 992 575 941 q 376 1044 452 1044 q 231 988 290 1044 q 148 864 172 931 l 212 827 z "},"Ȅ":{"ha":788,"x_min":115,"x_max":742,"o":"m 115 0 l 742 0 l 742 107 l 245 107 l 245 456 l 673 456 l 673 563 l 245 563 l 245 880 l 735 880 l 735 987 l 115 987 l 115 0 m 332 1085 l 408 1136 l 278 1339 l 172 1272 l 332 1085 m 536 1085 l 612 1136 l 481 1339 l 375 1272 l 536 1085 z "},"ȅ":{"ha":738,"x_min":58,"x_max":684,"o":"m 58 346 q 146 82 58 184 q 401 -20 235 -20 q 573 24 503 -20 q 678 119 644 68 l 597 183 q 517 113 566 142 q 401 83 469 83 q 239 159 291 83 q 186 346 186 235 l 186 368 q 236 554 186 478 q 386 631 286 631 q 513 576 469 631 q 557 445 557 522 l 557 429 l 135 429 l 135 328 l 684 328 l 684 380 q 605 638 684 543 q 380 734 526 734 q 146 631 235 734 q 58 368 58 529 l 58 346 m 267 827 l 338 880 l 168 1084 l 64 1013 l 267 827 m 496 827 l 567 880 l 397 1084 l 293 1013 l 496 827 z "},"Ȇ":{"ha":788,"x_min":115,"x_max":742,"o":"m 115 0 l 742 0 l 742 107 l 245 107 l 245 456 l 673 456 l 673 563 l 245 563 l 245 880 l 735 880 l 735 987 l 115 987 l 115 0 m 233 1085 q 312 1165 262 1131 q 431 1198 361 1198 q 544 1163 495 1198 q 623 1085 593 1128 l 690 1132 q 588 1261 658 1209 q 431 1313 517 1313 q 265 1256 333 1313 q 170 1133 197 1200 l 233 1085 z "},"ȇ":{"ha":738,"x_min":58,"x_max":684,"o":"m 58 346 q 146 82 58 184 q 401 -20 235 -20 q 573 24 503 -20 q 678 119 644 68 l 597 183 q 517 113 566 142 q 401 83 469 83 q 239 159 291 83 q 186 346 186 235 l 186 368 q 236 554 186 478 q 386 631 286 631 q 513 576 469 631 q 557 445 557 522 l 557 429 l 135 429 l 135 328 l 684 328 l 684 380 q 605 638 684 543 q 380 734 526 734 q 146 631 235 734 q 58 368 58 529 l 58 346 m 217 827 q 282 901 241 869 q 380 933 323 933 q 474 900 433 933 q 538 827 514 866 l 608 863 q 518 992 580 941 q 380 1044 457 1044 q 236 988 295 1044 q 153 864 176 931 l 217 827 z "},"Ȉ":{"ha":368,"x_min":-75,"x_max":366,"o":"m 119 0 l 249 0 l 249 987 l 119 987 l 119 0 m 86 1085 l 162 1136 l 32 1339 l -75 1272 l 86 1085 m 290 1085 l 366 1136 l 235 1339 l 129 1272 l 290 1085 z "},"ȉ":{"ha":339,"x_min":-146,"x_max":357,"o":"m 106 0 l 233 0 l 233 713 l 106 713 l 106 0 m 56 827 l 127 880 l -43 1084 l -146 1013 l 56 827 m 286 827 l 357 880 l 186 1084 l 83 1013 l 286 827 z "},"Ȋ":{"ha":368,"x_min":-76,"x_max":444,"o":"m 119 0 l 249 0 l 249 987 l 119 987 l 119 0 m -13 1085 q 66 1165 16 1131 q 184 1198 115 1198 q 298 1163 249 1198 q 376 1085 347 1128 l 444 1132 q 341 1261 412 1209 q 184 1313 271 1313 q 19 1256 87 1313 q -76 1133 -50 1200 l -13 1085 z "},"ȋ":{"ha":339,"x_min":-58,"x_max":398,"o":"m 106 0 l 233 0 l 233 713 l 106 713 l 106 0 m 7 827 q 72 901 31 869 q 170 933 113 933 q 263 900 223 933 q 328 827 304 866 l 398 863 q 308 992 370 941 q 170 1044 247 1044 q 25 988 85 1044 q -58 864 -34 931 l 7 827 z "},"Ȍ":{"ha":990,"x_min":78,"x_max":912,"o":"m 78 463 q 195 107 78 235 q 495 -20 312 -20 q 795 107 678 -20 q 912 463 912 235 l 912 525 q 795 880 912 753 q 495 1008 678 1008 q 195 880 312 1008 q 78 525 78 753 l 78 463 m 210 463 l 210 525 q 288 798 210 699 q 495 897 366 897 q 702 798 624 897 q 781 525 781 699 l 781 463 q 702 190 781 289 q 495 91 624 91 q 288 190 366 91 q 210 463 210 289 m 397 1085 l 473 1136 l 343 1339 l 237 1272 l 397 1085 m 601 1085 l 677 1136 l 547 1339 l 440 1272 l 601 1085 z "},"ȍ":{"ha":788,"x_min":58,"x_max":730,"o":"m 58 346 q 149 82 58 184 q 394 -20 241 -20 q 639 82 547 -20 q 730 346 730 184 l 730 368 q 639 631 730 529 q 394 734 547 734 q 149 631 241 734 q 58 368 58 529 l 58 346 m 186 368 q 239 554 186 478 q 394 631 291 631 q 549 554 497 631 q 602 368 602 478 l 602 346 q 549 159 602 235 q 394 83 497 83 q 239 159 291 83 q 186 346 186 235 l 186 368 m 281 827 l 352 880 l 182 1084 l 78 1013 l 281 827 m 510 827 l 581 880 l 411 1084 l 307 1013 l 510 827 z "},"Ȏ":{"ha":990,"x_min":78,"x_max":912,"o":"m 78 463 q 195 107 78 235 q 495 -20 312 -20 q 795 107 678 -20 q 912 463 912 235 l 912 525 q 795 880 912 753 q 495 1008 678 1008 q 195 880 312 1008 q 78 525 78 753 l 78 463 m 210 463 l 210 525 q 288 798 210 699 q 495 897 366 897 q 702 798 624 897 q 781 525 781 699 l 781 463 q 702 190 781 289 q 495 91 624 91 q 288 190 366 91 q 210 463 210 289 m 298 1085 q 377 1165 328 1131 q 496 1198 427 1198 q 609 1163 560 1198 q 688 1085 659 1128 l 755 1132 q 653 1261 723 1209 q 496 1313 583 1313 q 330 1256 398 1313 q 235 1133 262 1200 l 298 1085 z "},"ȏ":{"ha":788,"x_min":58,"x_max":730,"o":"m 58 346 q 149 82 58 184 q 394 -20 241 -20 q 639 82 547 -20 q 730 346 730 184 l 730 368 q 639 631 730 529 q 394 734 547 734 q 149 631 241 734 q 58 368 58 529 l 58 346 m 186 368 q 239 554 186 478 q 394 631 291 631 q 549 554 497 631 q 602 368 602 478 l 602 346 q 549 159 602 235 q 394 83 497 83 q 239 159 291 83 q 186 346 186 235 l 186 368 m 231 827 q 296 901 256 869 q 394 933 337 933 q 488 900 448 933 q 552 827 528 866 l 623 863 q 533 992 594 941 q 395 1044 471 1044 q 250 988 309 1044 q 167 864 191 931 l 231 827 z "},"Ȑ":{"ha":848,"x_min":115,"x_max":821,"o":"m 115 0 l 245 0 l 245 403 l 437 403 q 682 484 595 403 q 768 697 768 566 q 682 908 768 829 q 437 987 595 987 l 115 987 l 115 0 m 245 509 l 245 882 l 437 882 q 593 829 549 882 q 637 697 637 776 q 593 564 637 618 q 437 509 549 509 l 245 509 m 675 0 l 821 0 l 563 475 l 434 456 l 675 0 m 313 1085 l 389 1136 l 258 1339 l 152 1272 l 313 1085 m 516 1085 l 592 1136 l 462 1339 l 355 1272 l 516 1085 z "},"ȑ":{"ha":475,"x_min":-33,"x_max":470,"o":"m 100 0 l 227 0 l 227 502 q 290 581 247 549 q 393 613 332 613 q 426 612 411 613 q 454 608 441 610 l 454 724 q 431 730 448 727 q 400 734 415 734 q 295 700 339 734 q 224 622 251 667 l 220 622 l 214 713 l 100 713 l 100 0 m 170 827 l 241 880 l 71 1084 l -33 1013 l 170 827 m 399 827 l 470 880 l 300 1084 l 196 1013 l 399 827 z "},"Ȓ":{"ha":848,"x_min":115,"x_max":821,"o":"m 115 0 l 245 0 l 245 403 l 437 403 q 682 484 595 403 q 768 697 768 566 q 682 908 768 829 q 437 987 595 987 l 115 987 l 115 0 m 245 509 l 245 882 l 437 882 q 593 829 549 882 q 637 697 637 776 q 593 564 637 618 q 437 509 549 509 l 245 509 m 675 0 l 821 0 l 563 475 l 434 456 l 675 0 m 214 1085 q 292 1165 243 1131 q 411 1198 342 1198 q 525 1163 475 1198 q 603 1085 574 1128 l 671 1132 q 568 1261 638 1209 q 411 1313 498 1313 q 245 1256 313 1313 q 151 1133 177 1200 l 214 1085 z "},"ȓ":{"ha":475,"x_min":56,"x_max":511,"o":"m 100 0 l 227 0 l 227 502 q 290 581 247 549 q 393 613 332 613 q 426 612 411 613 q 454 608 441 610 l 454 724 q 431 730 448 727 q 400 734 415 734 q 295 700 339 734 q 224 622 251 667 l 220 622 l 214 713 l 100 713 l 100 0 m 120 827 q 185 901 144 869 q 283 933 226 933 q 377 900 336 933 q 441 827 417 866 l 511 863 q 421 992 483 941 q 283 1044 360 1044 q 139 988 198 1044 q 56 864 79 931 l 120 827 z "},"Ȕ":{"ha":925,"x_min":105,"x_max":820,"o":"m 105 319 q 209 64 105 149 q 463 -20 313 -20 q 716 64 612 -20 q 820 319 820 149 l 820 987 l 690 987 l 690 319 q 627 147 690 203 q 463 91 564 91 q 298 147 361 91 q 235 319 235 203 l 235 987 l 105 987 l 105 319 m 365 1085 l 441 1136 l 311 1339 l 204 1272 l 365 1085 m 568 1085 l 644 1136 l 514 1339 l 408 1272 l 568 1085 z "},"ȕ":{"ha":772,"x_min":70,"x_max":671,"o":"m 94 253 q 158 48 94 109 q 330 -14 222 -14 q 453 15 397 -14 q 548 92 509 43 l 552 92 l 557 0 l 671 0 l 671 713 l 545 713 l 545 209 q 473 125 519 157 q 367 92 427 92 q 258 129 296 92 q 220 252 220 166 l 220 713 l 94 713 l 94 253 m 273 827 l 344 880 l 174 1084 l 70 1013 l 273 827 m 502 827 l 573 880 l 403 1084 l 299 1013 l 502 827 z "},"Ȗ":{"ha":925,"x_min":105,"x_max":820,"o":"m 105 319 q 209 64 105 149 q 463 -20 313 -20 q 716 64 612 -20 q 820 319 820 149 l 820 987 l 690 987 l 690 319 q 627 147 690 203 q 463 91 564 91 q 298 147 361 91 q 235 319 235 203 l 235 987 l 105 987 l 105 319 m 266 1085 q 345 1165 295 1131 q 463 1198 394 1198 q 577 1163 528 1198 q 655 1085 626 1128 l 723 1132 q 620 1261 690 1209 q 463 1313 550 1313 q 297 1256 366 1313 q 203 1133 229 1200 l 266 1085 z "},"ȗ":{"ha":772,"x_min":94,"x_max":671,"o":"m 94 253 q 158 48 94 109 q 330 -14 222 -14 q 453 15 397 -14 q 548 92 509 43 l 552 92 l 557 0 l 671 0 l 671 713 l 545 713 l 545 209 q 473 125 519 157 q 367 92 427 92 q 258 129 296 92 q 220 252 220 166 l 220 713 l 94 713 l 94 253 m 223 827 q 288 901 248 869 q 386 933 329 933 q 480 900 439 933 q 544 827 520 866 l 614 863 q 525 992 586 941 q 387 1044 463 1044 q 242 988 301 1044 q 159 864 182 931 l 223 827 z "},"Ș":{"ha":827,"x_min":61,"x_max":773,"o":"m 61 270 q 159 58 61 136 q 420 -20 258 -20 q 678 58 583 -20 q 773 258 773 136 q 701 447 773 380 q 471 559 629 514 q 261 641 312 604 q 210 743 210 678 q 260 855 210 814 q 414 897 309 897 q 571 848 518 897 q 624 722 624 800 l 624 713 l 754 713 l 754 722 q 662 927 754 846 q 414 1008 570 1008 q 170 931 258 1008 q 81 739 81 854 q 149 561 81 624 q 377 452 216 498 q 588 366 532 407 q 644 258 644 326 q 587 137 644 183 q 420 91 529 91 q 252 136 312 91 q 191 270 191 180 l 191 278 l 61 278 l 61 270 m 292 -405 l 411 -407 l 504 -124 l 359 -125 q 325 -277 337 -220 q 292 -405 312 -334 z "},"ș":{"ha":685,"x_min":54,"x_max":631,"o":"m 54 210 l 54 207 q 129 42 54 104 q 346 -20 203 -20 q 559 41 488 -20 q 631 197 631 102 q 568 342 631 292 q 390 420 505 393 q 235 471 275 448 q 196 536 196 495 q 230 604 196 576 q 339 631 264 631 q 449 602 414 631 q 485 522 485 572 l 485 515 l 610 515 l 610 519 q 536 676 610 618 q 339 734 461 734 q 144 675 217 734 q 71 529 71 617 q 139 392 71 441 q 322 315 207 342 q 472 263 437 288 q 507 190 507 237 q 464 113 507 142 q 346 83 420 83 q 226 114 271 83 q 180 207 180 145 l 180 210 l 54 210 m 250 -405 l 360 -407 l 446 -151 l 309 -153 q 281 -287 294 -239 q 250 -405 269 -334 z "},"Ț":{"ha":798,"x_min":16,"x_max":781,"o":"m 16 880 l 334 880 l 334 0 l 464 0 l 464 880 l 781 880 l 781 987 l 16 987 l 16 880 m 277 -405 l 396 -407 l 489 -124 l 344 -125 q 310 -277 322 -220 q 277 -405 297 -334 z "},"ț":{"ha":441,"x_min":0,"x_max":407,"o":"m 0 617 l 407 617 l 407 713 l 0 713 l 0 617 m 127 176 q 174 27 127 75 q 298 -20 220 -20 q 361 -14 332 -20 q 407 0 389 -8 l 407 103 q 370 92 388 96 q 332 88 351 88 q 273 109 292 88 q 254 176 254 129 l 254 890 l 127 890 l 127 675 l 127 655 l 127 176 m 177 -405 l 288 -407 l 374 -151 l 237 -153 q 209 -287 221 -239 q 177 -405 197 -334 z "},"Ȫ":{"ha":990,"x_min":78,"x_max":912,"o":"m 78 463 q 195 107 78 235 q 495 -20 312 -20 q 795 107 678 -20 q 912 463 912 235 l 912 525 q 795 880 912 753 q 495 1008 678 1008 q 195 880 312 1008 q 78 525 78 753 l 78 463 m 210 463 l 210 525 q 288 798 210 699 q 495 897 366 897 q 702 798 624 897 q 781 525 781 699 l 781 463 q 702 190 781 289 q 495 91 624 91 q 288 190 366 91 q 210 463 210 289 m 260 1117 q 282 1061 260 1082 q 339 1040 303 1040 q 398 1060 378 1040 q 418 1117 418 1080 q 396 1173 418 1152 q 339 1194 375 1194 q 281 1174 301 1194 q 260 1117 260 1154 m 572 1117 q 594 1061 572 1082 q 651 1040 615 1040 q 710 1060 690 1040 q 730 1117 730 1080 q 708 1173 730 1152 q 651 1194 687 1194 q 593 1174 613 1194 q 572 1117 572 1154 m 294 1288 l 696 1288 l 696 1394 l 294 1394 l 294 1288 z "},"ȫ":{"ha":788,"x_min":58,"x_max":730,"o":"m 58 346 q 149 82 58 184 q 394 -20 241 -20 q 639 82 547 -20 q 730 346 730 184 l 730 368 q 639 631 730 529 q 394 734 547 734 q 149 631 241 734 q 58 368 58 529 l 58 346 m 186 368 q 239 554 186 478 q 394 631 291 631 q 549 554 497 631 q 602 368 602 478 l 602 346 q 549 159 602 235 q 394 83 497 83 q 239 159 291 83 q 186 346 186 235 l 186 368 m 174 898 q 193 848 174 869 q 248 827 212 827 q 303 848 284 827 q 322 898 322 869 q 303 949 322 928 q 248 970 284 970 q 193 949 212 970 q 174 898 174 928 m 466 898 q 485 848 466 869 q 540 827 503 827 q 595 848 576 827 q 614 898 614 869 q 595 949 614 928 q 540 970 576 970 q 485 949 503 970 q 466 898 466 928 m 607 1187 l 181 1187 l 181 1084 l 607 1084 l 607 1187 z "},"Ȭ":{"ha":990,"x_min":78,"x_max":912,"o":"m 78 463 q 195 107 78 235 q 495 -20 312 -20 q 795 107 678 -20 q 912 463 912 235 l 912 525 q 795 880 912 753 q 495 1008 678 1008 q 195 880 312 1008 q 78 525 78 753 l 78 463 m 210 463 l 210 525 q 288 798 210 699 q 495 897 366 897 q 702 798 624 897 q 781 525 781 699 l 781 463 q 702 190 781 289 q 495 91 624 91 q 288 190 366 91 q 210 463 210 289 m 265 1150 l 332 1088 q 365 1127 345 1109 q 410 1146 386 1146 q 448 1134 427 1146 q 491 1107 470 1121 q 539 1081 511 1093 q 600 1069 567 1069 q 683 1095 644 1069 q 743 1170 722 1120 l 680 1232 q 649 1192 665 1205 q 606 1178 633 1178 q 562 1190 585 1178 q 519 1217 540 1202 q 470 1242 495 1234 q 422 1249 446 1249 q 334 1224 376 1249 q 265 1150 292 1199 m 294 1343 l 696 1343 l 696 1449 l 294 1449 l 294 1343 z "},"ȭ":{"ha":788,"x_min":58,"x_max":730,"o":"m 58 346 q 149 82 58 184 q 394 -20 241 -20 q 639 82 547 -20 q 730 346 730 184 l 730 368 q 639 631 730 529 q 394 734 547 734 q 149 631 241 734 q 58 368 58 529 l 58 346 m 186 368 q 239 554 186 478 q 394 631 291 631 q 549 554 497 631 q 602 368 602 478 l 602 346 q 549 159 602 235 q 394 83 497 83 q 239 159 291 83 q 186 346 186 235 l 186 368 m 153 899 l 204 837 q 244 880 216 855 q 303 904 271 904 q 346 892 323 904 q 392 868 369 881 q 445 842 413 857 q 510 827 477 827 q 594 852 549 827 q 665 924 639 876 l 610 991 q 570 948 594 966 q 519 930 547 930 q 467 945 494 930 q 418 975 441 960 q 367 1000 393 991 q 314 1008 342 1008 q 222 975 269 1008 q 153 899 175 942 m 607 1225 l 181 1225 l 181 1122 l 607 1122 l 607 1225 z "},"Ȱ":{"ha":990,"x_min":78,"x_max":912,"o":"m 78 463 q 195 107 78 235 q 495 -20 312 -20 q 795 107 678 -20 q 912 463 912 235 l 912 525 q 795 880 912 753 q 495 1008 678 1008 q 195 880 312 1008 q 78 525 78 753 l 78 463 m 210 463 l 210 525 q 288 798 210 699 q 495 897 366 897 q 702 798 624 897 q 781 525 781 699 l 781 463 q 702 190 781 289 q 495 91 624 91 q 288 190 366 91 q 210 463 210 289 m 416 1170 q 437 1116 416 1138 q 495 1095 457 1095 q 553 1116 533 1095 q 574 1170 574 1138 q 553 1223 574 1202 q 495 1245 533 1245 q 437 1223 457 1245 q 416 1170 416 1202 m 294 1335 l 696 1335 l 696 1440 l 294 1440 l 294 1335 z "},"ȱ":{"ha":788,"x_min":58,"x_max":730,"o":"m 58 346 q 149 82 58 184 q 394 -20 241 -20 q 639 82 547 -20 q 730 346 730 184 l 730 368 q 639 631 730 529 q 394 734 547 734 q 149 631 241 734 q 58 368 58 529 l 58 346 m 186 368 q 239 554 186 478 q 394 631 291 631 q 549 554 497 631 q 602 368 602 478 l 602 346 q 549 159 602 235 q 394 83 497 83 q 239 159 291 83 q 186 346 186 235 l 186 368 m 315 912 q 336 859 315 880 q 394 837 356 837 q 452 859 432 837 q 473 912 473 880 q 452 966 473 944 q 394 987 432 987 q 336 966 356 987 q 315 912 315 944 m 607 1201 l 181 1201 l 181 1098 l 607 1098 l 607 1201 z "},"Ȳ":{"ha":833,"x_min":10,"x_max":823,"o":"m 351 0 l 481 0 l 481 369 l 823 987 l 682 987 l 456 570 q 436 532 446 549 q 420 497 427 515 l 416 497 q 399 532 408 515 q 379 570 390 549 l 157 987 l 10 987 l 351 369 l 351 0 m 216 1135 l 617 1135 l 617 1241 l 216 1241 l 216 1135 z "},"ȳ":{"ha":639,"x_min":7,"x_max":639,"o":"m 34 -282 q 74 -292 53 -289 q 122 -296 95 -296 q 259 -243 203 -296 q 349 -95 315 -190 l 639 713 l 519 713 l 362 244 q 346 193 353 217 q 332 149 338 170 l 328 149 q 315 193 322 170 q 298 244 307 217 l 129 713 l 7 713 l 273 3 l 273 3 q 198 -152 233 -116 q 115 -187 163 -187 q 73 -184 95 -187 q 34 -175 52 -180 l 34 -282 m 545 930 l 119 930 l 119 827 l 545 827 l 545 930 z "},"ə":{"ha":738,"x_min":54,"x_max":680,"o":"m 680 368 q 592 631 680 529 q 337 734 503 734 q 164 690 235 734 q 60 595 94 646 l 141 530 q 220 601 172 571 q 337 631 269 631 q 499 554 447 631 q 551 368 551 478 l 551 346 q 502 159 551 235 q 352 83 452 83 q 225 137 269 83 q 181 269 182 191 l 182 285 l 603 285 l 603 385 l 54 385 l 54 334 q 133 75 54 171 q 357 -20 212 -20 q 592 82 503 -20 q 680 346 680 184 l 680 368 z "},"ʹ":{"ha":407,"x_min":117,"x_max":280,"o":"m 152 1019 l 117 675 l 199 672 l 280 1019 l 152 1019 z "},"ʺ":{"ha":534,"x_min":117,"x_max":484,"o":"m 152 1019 l 117 684 l 200 681 l 280 1019 l 152 1019 m 355 1019 l 321 684 l 404 681 l 484 1019 l 355 1019 z "},"ʼ":{"ha":407,"x_min":105,"x_max":313,"o":"m 105 720 l 134 687 q 259 785 205 721 q 313 931 313 848 q 281 1016 313 983 q 208 1048 248 1048 q 138 1022 165 1048 q 111 957 111 996 q 138 891 111 917 q 213 866 165 866 q 168 781 203 821 q 105 720 132 741 z "},"ˆ":{"ha":694,"x_min":143,"x_max":553,"o":"m 385 1040 l 309 1040 l 143 827 l 246 827 l 347 935 l 449 827 l 553 827 l 385 1040 z "},"ˇ":{"ha":694,"x_min":143,"x_max":553,"o":"m 311 827 l 387 827 l 553 1040 l 450 1040 l 349 932 l 248 1040 l 143 1040 l 311 827 z "},"ˉ":{"ha":694,"x_min":134,"x_max":560,"o":"m 560 930 l 134 930 l 134 827 l 560 827 l 560 930 z "},"˘":{"ha":693,"x_min":120,"x_max":576,"o":"m 511 1029 q 446 956 487 988 q 349 924 406 924 q 255 957 295 924 q 191 1029 214 991 l 120 994 q 210 864 149 916 q 348 812 271 812 q 493 869 433 812 q 576 993 552 926 l 511 1029 z "},"˙":{"ha":694,"x_min":269,"x_max":426,"o":"m 269 912 q 289 859 269 880 q 347 837 309 837 q 406 859 385 837 q 426 912 426 880 q 406 966 426 944 q 347 987 385 987 q 289 966 309 987 q 269 912 269 944 z "},"˚":{"ha":694,"x_min":194,"x_max":500,"o":"m 194 972 q 238 869 194 911 q 347 827 282 827 q 456 869 411 827 q 500 972 500 911 q 456 1077 500 1034 q 347 1120 411 1120 q 238 1077 282 1120 q 194 972 194 1034 m 269 972 q 291 1028 269 1004 q 347 1053 313 1053 q 404 1028 382 1053 q 426 972 426 1004 q 404 918 426 941 q 347 895 382 895 q 291 919 313 895 q 269 972 269 943 z "},"˛":{"ha":694,"x_min":186,"x_max":426,"o":"m 361 39 q 228 -57 269 -4 q 186 -165 186 -111 q 224 -261 186 -228 q 317 -294 262 -294 q 383 -284 357 -294 q 426 -264 409 -275 l 416 -182 q 389 -194 406 -187 q 349 -200 371 -200 q 308 -186 319 -200 q 296 -151 296 -173 q 332 -70 296 -106 q 412 0 368 -33 l 361 39 z "},"˜":{"ha":694,"x_min":106,"x_max":618,"o":"m 106 899 l 157 837 q 197 880 170 855 q 256 904 224 904 q 299 892 276 904 q 345 868 322 881 q 398 842 366 857 q 463 827 430 827 q 547 852 502 827 q 618 924 592 876 l 563 991 q 524 948 547 966 q 473 930 500 930 q 420 945 447 930 q 371 975 394 960 q 320 1000 346 991 q 267 1008 295 1008 q 175 975 222 1008 q 106 899 128 942 z "},"˝":{"ha":694,"x_min":180,"x_max":650,"o":"m 180 875 l 237 817 l 440 1003 l 343 1074 l 180 875 m 390 875 l 448 817 l 650 1003 l 553 1074 l 390 875 z "},"̀":{"ha":694,"x_min":189,"x_max":463,"o":"m 392 827 l 463 880 l 293 1084 l 189 1013 l 392 827 z "},"́":{"ha":694,"x_min":241,"x_max":508,"o":"m 241 886 l 305 827 l 508 1014 l 404 1085 l 241 886 z "},"̂":{"ha":694,"x_min":143,"x_max":553,"o":"m 385 1040 l 309 1040 l 143 827 l 246 827 l 347 935 l 449 827 l 553 827 l 385 1040 z "},"̃":{"ha":694,"x_min":106,"x_max":618,"o":"m 106 899 l 157 837 q 197 880 170 855 q 256 904 224 904 q 299 892 276 904 q 345 868 322 881 q 398 842 366 857 q 463 827 430 827 q 547 852 502 827 q 618 924 592 876 l 563 991 q 524 948 547 966 q 473 930 500 930 q 420 945 447 930 q 371 975 394 960 q 320 1000 346 991 q 267 1008 295 1008 q 175 975 222 1008 q 106 899 128 942 z "},"̄":{"ha":694,"x_min":134,"x_max":560,"o":"m 560 930 l 134 930 l 134 827 l 560 827 l 560 930 z "},"̆":{"ha":693,"x_min":120,"x_max":576,"o":"m 511 1029 q 446 956 487 988 q 349 924 406 924 q 255 957 295 924 q 191 1029 214 991 l 120 994 q 210 864 149 916 q 348 812 271 812 q 493 869 433 812 q 576 993 552 926 l 511 1029 z "},"̇":{"ha":694,"x_min":269,"x_max":426,"o":"m 269 912 q 289 859 269 880 q 347 837 309 837 q 406 859 385 837 q 426 912 426 880 q 406 966 426 944 q 347 987 385 987 q 289 966 309 987 q 269 912 269 944 z "},"̈":{"ha":694,"x_min":127,"x_max":568,"o":"m 127 898 q 146 848 127 869 q 201 827 165 827 q 256 848 237 827 q 275 898 275 869 q 256 949 275 928 q 201 970 237 970 q 146 949 165 970 q 127 898 127 928 m 419 898 q 438 848 419 869 q 493 827 456 827 q 548 848 529 827 q 568 898 568 869 q 548 949 568 928 q 493 970 529 970 q 438 949 456 970 q 419 898 419 928 z "},"̉":{"ha":694,"x_min":225,"x_max":575,"o":"m 308 827 l 391 827 l 391 848 q 532 896 488 856 q 575 1005 575 937 q 533 1109 575 1070 q 409 1147 490 1147 q 301 1134 353 1147 q 225 1107 249 1120 l 262 1022 q 307 1039 269 1027 q 388 1050 345 1050 q 445 1038 425 1050 q 465 999 465 1025 q 451 960 465 971 q 399 944 437 949 q 328 913 348 937 q 308 854 308 889 l 308 827 z "},"̊":{"ha":694,"x_min":194,"x_max":500,"o":"m 194 972 q 238 869 194 911 q 347 827 282 827 q 456 869 411 827 q 500 972 500 911 q 456 1077 500 1034 q 347 1120 411 1120 q 238 1077 282 1120 q 194 972 194 1034 m 269 972 q 291 1028 269 1004 q 347 1053 313 1053 q 404 1028 382 1053 q 426 972 426 1004 q 404 918 426 941 q 347 895 382 895 q 291 919 313 895 q 269 972 269 943 z "},"̋":{"ha":694,"x_min":180,"x_max":650,"o":"m 180 875 l 237 817 l 440 1003 l 343 1074 l 180 875 m 390 875 l 448 817 l 650 1003 l 553 1074 l 390 875 z "},"̌":{"ha":694,"x_min":143,"x_max":553,"o":"m 311 827 l 387 827 l 553 1040 l 450 1040 l 349 932 l 248 1040 l 143 1040 l 311 827 z "},"̏":{"ha":694,"x_min":120,"x_max":576,"o":"m 184 827 q 250 901 209 869 q 347 933 290 933 q 441 900 401 933 q 505 827 481 866 l 576 863 q 486 992 547 941 q 348 1044 425 1044 q 203 988 262 1044 q 120 864 144 931 l 184 827 z "},"̑":{"ha":694,"x_min":31,"x_max":534,"o":"m 234 827 l 305 880 l 135 1084 l 31 1013 l 234 827 m 463 827 l 534 880 l 364 1084 l 260 1013 l 463 827 z "},"̛":{"ha":694,"x_min":0,"x_max":258,"o":"m 0 713 l 0 638 q 42 628 18 632 q 98 624 66 624 q 210 653 163 624 q 258 741 258 682 q 247 820 258 785 q 222 877 235 854 l 123 877 q 134 828 130 852 q 138 772 138 803 q 114 725 138 736 q 57 713 90 713 l 0 713 z "},"̣":{"ha":694,"x_min":269,"x_max":426,"o":"m 269 -201 q 289 -254 269 -233 q 347 -276 309 -276 q 406 -254 385 -276 q 426 -201 426 -233 q 406 -147 426 -169 q 347 -125 385 -125 q 289 -147 309 -125 q 269 -201 269 -169 z "},"̤":{"ha":694,"x_min":113,"x_max":582,"o":"m 113 -222 q 134 -278 113 -257 q 191 -299 155 -299 q 250 -279 230 -299 q 270 -222 270 -259 q 249 -166 270 -188 q 191 -145 227 -145 q 133 -165 153 -145 q 113 -222 113 -185 m 425 -222 q 446 -278 425 -257 q 503 -299 467 -299 q 562 -279 542 -299 q 582 -222 582 -259 q 561 -166 582 -188 q 503 -145 539 -145 q 445 -165 465 -145 q 425 -222 425 -185 z "},"̦":{"ha":694,"x_min":254,"x_max":451,"o":"m 254 -405 l 365 -407 l 451 -151 l 314 -153 q 286 -287 298 -239 q 254 -405 274 -334 z "},"̧":{"ha":694,"x_min":231,"x_max":491,"o":"m 298 14 l 271 -106 q 348 -124 328 -111 q 368 -170 368 -136 q 341 -221 368 -205 q 231 -237 314 -237 l 236 -310 q 432 -271 373 -310 q 491 -168 491 -231 q 448 -83 491 -109 q 367 -51 406 -58 l 386 14 l 298 14 z "},"̨":{"ha":694,"x_min":186,"x_max":426,"o":"m 361 39 q 228 -57 269 -4 q 186 -165 186 -111 q 224 -261 186 -228 q 317 -294 262 -294 q 383 -284 357 -294 q 426 -264 409 -275 l 416 -182 q 389 -194 406 -187 q 349 -200 371 -200 q 308 -186 319 -200 q 296 -151 296 -173 q 332 -70 296 -106 q 412 0 368 -33 l 361 39 z "},"̮":{"ha":694,"x_min":87,"x_max":608,"o":"m 545 -86 q 466 -166 515 -132 q 347 -199 416 -199 q 234 -164 283 -199 q 155 -86 184 -129 l 87 -133 q 190 -262 120 -210 q 347 -314 260 -314 q 513 -257 445 -314 q 608 -134 581 -201 l 545 -86 z "},"̱":{"ha":694,"x_min":146,"x_max":548,"o":"m 146 -176 l 548 -176 l 548 -70 l 146 -70 l 146 -176 z "},"Ẁ":{"ha":1229,"x_min":34,"x_max":1195,"o":"m 277 -7 l 403 -7 l 593 726 q 604 769 600 749 q 612 812 608 790 l 617 812 q 625 769 621 790 q 635 726 629 749 l 826 -7 l 952 -7 l 1195 987 l 1066 987 l 905 256 q 897 219 899 233 q 891 183 894 205 l 885 183 q 880 219 882 205 q 871 256 878 233 l 681 987 l 549 987 l 366 256 q 357 219 359 233 q 352 183 355 205 l 345 183 q 340 219 342 205 q 332 256 338 233 l 164 987 l 34 987 l 277 -7 m 585 1086 l 661 1137 l 530 1339 l 424 1273 l 585 1086 z "},"ẁ":{"ha":1048,"x_min":17,"x_max":1031,"o":"m 17 713 l 237 0 l 336 0 l 491 461 q 508 515 500 488 q 522 570 515 543 l 526 570 q 541 515 533 543 q 557 461 549 488 l 713 0 l 811 0 l 1031 713 l 916 713 l 789 244 q 778 200 781 217 q 768 156 774 183 l 764 156 q 754 200 759 183 q 741 244 750 217 l 581 713 l 475 713 l 319 244 q 306 200 311 217 q 296 156 302 183 l 292 156 q 282 200 287 183 q 271 244 278 217 l 139 713 l 17 713 m 569 827 l 640 880 l 470 1084 l 366 1013 l 569 827 z "},"Ẃ":{"ha":1229,"x_min":34,"x_max":1195,"o":"m 277 -7 l 403 -7 l 593 726 q 604 769 600 749 q 612 812 608 790 l 617 812 q 625 769 621 790 q 635 726 629 749 l 826 -7 l 952 -7 l 1195 987 l 1066 987 l 905 256 q 897 219 899 233 q 891 183 894 205 l 885 183 q 880 219 882 205 q 871 256 878 233 l 681 987 l 549 987 l 366 256 q 357 219 359 233 q 352 183 355 205 l 345 183 q 340 219 342 205 q 332 256 338 233 l 164 987 l 34 987 l 277 -7 m 536 1125 l 622 1085 l 790 1288 l 680 1355 l 536 1125 z "},"ẃ":{"ha":1048,"x_min":17,"x_max":1031,"o":"m 17 713 l 237 0 l 336 0 l 491 461 q 508 515 500 488 q 522 570 515 543 l 526 570 q 541 515 533 543 q 557 461 549 488 l 713 0 l 811 0 l 1031 713 l 916 713 l 789 244 q 778 200 781 217 q 768 156 774 183 l 764 156 q 754 200 759 183 q 741 244 750 217 l 581 713 l 475 713 l 319 244 q 306 200 311 217 q 296 156 302 183 l 292 156 q 282 200 287 183 q 271 244 278 217 l 139 713 l 17 713 m 418 886 l 482 827 l 685 1014 l 581 1085 l 418 886 z "},"Ẅ":{"ha":1229,"x_min":34,"x_max":1195,"o":"m 277 -7 l 403 -7 l 593 726 q 604 769 600 749 q 612 812 608 790 l 617 812 q 625 769 621 790 q 635 726 629 749 l 826 -7 l 952 -7 l 1195 987 l 1066 987 l 905 256 q 897 219 899 233 q 891 183 894 205 l 885 183 q 880 219 882 205 q 871 256 878 233 l 681 987 l 549 987 l 366 256 q 357 219 359 233 q 352 183 355 205 l 345 183 q 340 219 342 205 q 332 256 338 233 l 164 987 l 34 987 l 277 -7 m 380 1212 q 401 1156 380 1177 q 458 1135 422 1135 q 517 1155 497 1135 q 537 1212 537 1175 q 516 1268 537 1246 q 458 1289 494 1289 q 400 1269 420 1289 q 380 1212 380 1249 m 692 1212 q 713 1156 692 1177 q 770 1135 734 1135 q 829 1155 809 1135 q 849 1212 849 1175 q 828 1268 849 1246 q 770 1289 806 1289 q 712 1269 732 1289 q 692 1212 692 1249 z "},"ẅ":{"ha":1048,"x_min":17,"x_max":1031,"o":"m 17 713 l 237 0 l 336 0 l 491 461 q 508 515 500 488 q 522 570 515 543 l 526 570 q 541 515 533 543 q 557 461 549 488 l 713 0 l 811 0 l 1031 713 l 916 713 l 789 244 q 778 200 781 217 q 768 156 774 183 l 764 156 q 754 200 759 183 q 741 244 750 217 l 581 713 l 475 713 l 319 244 q 306 200 311 217 q 296 156 302 183 l 292 156 q 282 200 287 183 q 271 244 278 217 l 139 713 l 17 713 m 304 898 q 323 848 304 869 q 378 827 342 827 q 433 848 414 827 q 452 898 452 869 q 433 949 452 928 q 378 970 414 970 q 323 949 342 970 q 304 898 304 928 m 596 898 q 615 848 596 869 q 670 827 633 827 q 725 848 706 827 q 745 898 745 869 q 725 949 745 928 q 670 970 706 970 q 615 949 633 970 q 596 898 596 928 z "},"ẞ":{"ha":983,"x_min":9,"x_max":928,"o":"m 121 723 l 121 241 q 98 146 121 179 q 34 113 75 113 q 21 114 28 113 q 9 117 15 115 l 10 -8 q 28 -10 19 -9 q 46 -11 37 -11 q 194 57 138 -11 q 251 241 251 125 l 251 703 q 294 863 251 812 q 418 914 336 914 q 524 892 490 914 q 559 833 559 871 q 538 772 559 795 q 469 716 517 750 q 380 642 406 671 q 355 564 355 613 q 395 484 355 515 q 589 396 435 453 q 750 321 705 353 q 795 224 795 290 q 748 127 795 163 q 630 92 701 92 q 495 126 538 92 q 453 229 453 161 l 453 237 l 315 237 l 315 229 q 395 41 315 103 q 637 -20 475 -20 q 846 54 764 -20 q 928 228 928 129 q 871 391 928 330 q 682 499 813 452 q 531 558 553 546 q 509 584 509 570 q 527 614 509 597 q 581 655 546 630 q 656 730 621 685 q 691 844 691 774 q 629 969 691 913 q 414 1024 568 1024 q 196 942 271 1024 q 121 723 121 859 z "},"Ạ":{"ha":868,"x_min":0,"x_max":868,"o":"m 0 0 l 130 0 l 404 746 q 418 789 412 768 q 429 833 425 810 l 436 833 q 447 789 441 810 q 461 746 453 768 l 732 0 l 868 0 l 492 994 l 376 994 l 0 0 m 161 258 l 705 258 l 665 365 l 201 365 l 161 258 m 355 -201 q 376 -254 355 -233 q 434 -276 396 -276 q 492 -254 472 -276 q 513 -201 513 -233 q 492 -147 513 -169 q 434 -125 472 -125 q 376 -147 396 -125 q 355 -201 355 -169 z "},"ạ":{"ha":750,"x_min":61,"x_max":680,"o":"m 61 210 q 132 44 61 102 q 305 -14 203 -14 q 449 20 393 -14 q 530 98 505 54 q 540 44 532 71 q 557 0 548 17 l 680 0 l 680 11 q 661 80 667 41 q 654 163 654 119 l 654 488 q 583 672 654 610 q 383 734 512 734 q 179 670 254 734 q 103 522 103 607 l 103 519 l 229 519 l 229 522 q 263 600 229 566 q 380 633 298 633 q 494 593 461 633 q 528 488 528 553 l 528 439 l 366 439 q 147 379 233 439 q 61 210 61 319 m 187 217 q 236 314 187 278 q 380 350 285 350 l 528 350 l 528 248 q 467 138 528 190 q 332 87 407 87 q 222 121 258 87 q 187 217 187 156 m 296 -201 q 317 -254 296 -233 q 375 -276 337 -276 q 433 -254 413 -276 q 454 -201 454 -233 q 433 -147 454 -169 q 375 -125 413 -125 q 317 -147 337 -125 q 296 -201 296 -169 z "},"Ả":{"ha":868,"x_min":0,"x_max":868,"o":"m 0 0 l 130 0 l 404 746 q 418 789 412 768 q 429 833 425 810 l 436 833 q 447 789 441 810 q 461 746 453 768 l 732 0 l 868 0 l 492 994 l 376 994 l 0 0 m 161 258 l 705 258 l 665 365 l 201 365 l 161 258 m 340 1085 l 424 1085 l 424 1106 q 564 1154 521 1114 q 608 1263 608 1194 q 565 1367 608 1328 q 441 1405 523 1405 q 334 1391 386 1405 q 258 1364 281 1377 l 294 1280 q 339 1296 301 1285 q 420 1308 377 1308 q 477 1295 457 1308 q 497 1257 497 1283 q 484 1218 497 1229 q 432 1202 470 1207 q 360 1171 380 1194 q 340 1112 340 1147 l 340 1085 z "},"ả":{"ha":750,"x_min":61,"x_max":680,"o":"m 61 210 q 132 44 61 102 q 305 -14 203 -14 q 449 20 393 -14 q 530 98 505 54 q 540 44 532 71 q 557 0 548 17 l 680 0 l 680 11 q 661 80 667 41 q 654 163 654 119 l 654 488 q 583 672 654 610 q 383 734 512 734 q 179 670 254 734 q 103 522 103 607 l 103 519 l 229 519 l 229 522 q 263 600 229 566 q 380 633 298 633 q 494 593 461 633 q 528 488 528 553 l 528 439 l 366 439 q 147 379 233 439 q 61 210 61 319 m 187 217 q 236 314 187 278 q 380 350 285 350 l 528 350 l 528 248 q 467 138 528 190 q 332 87 407 87 q 222 121 258 87 q 187 217 187 156 m 336 827 l 419 827 l 419 848 q 559 896 516 856 q 603 1005 603 937 q 561 1109 603 1070 q 437 1147 518 1147 q 329 1134 381 1147 q 253 1107 277 1120 l 290 1022 q 334 1039 296 1027 q 416 1050 372 1050 q 472 1038 452 1050 q 492 999 492 1025 q 479 960 492 971 q 427 944 465 949 q 356 913 376 937 q 336 854 336 889 l 336 827 z "},"Ấ":{"ha":868,"x_min":0,"x_max":915,"o":"m 0 0 l 130 0 l 404 746 q 418 789 412 768 q 429 833 425 810 l 436 833 q 447 789 441 810 q 461 746 453 768 l 732 0 l 868 0 l 492 994 l 376 994 l 0 0 m 161 258 l 705 258 l 665 365 l 201 365 l 161 258 m 479 1283 l 382 1283 l 208 1086 l 321 1086 l 433 1179 l 548 1086 l 659 1086 l 479 1283 m 631 1290 l 686 1215 l 915 1332 l 836 1443 l 631 1290 z "},"ấ":{"ha":750,"x_min":61,"x_max":835,"o":"m 61 210 q 132 44 61 102 q 305 -14 203 -14 q 449 20 393 -14 q 530 98 505 54 q 540 44 532 71 q 557 0 548 17 l 680 0 l 680 11 q 661 80 667 41 q 654 163 654 119 l 654 488 q 583 672 654 610 q 383 734 512 734 q 179 670 254 734 q 103 522 103 607 l 103 519 l 229 519 l 229 522 q 263 600 229 566 q 380 633 298 633 q 494 593 461 633 q 528 488 528 553 l 528 439 l 366 439 q 147 379 233 439 q 61 210 61 319 m 187 217 q 236 314 187 278 q 380 350 285 350 l 528 350 l 528 248 q 467 138 528 190 q 332 87 407 87 q 222 121 258 87 q 187 217 187 156 m 413 1040 l 337 1040 l 171 827 l 274 827 l 375 935 l 477 827 l 581 827 l 413 1040 m 568 1030 l 632 972 l 835 1158 l 731 1230 l 568 1030 z "},"Ầ":{"ha":868,"x_min":0,"x_max":868,"o":"m 0 0 l 130 0 l 404 746 q 418 789 412 768 q 429 833 425 810 l 436 833 q 447 789 441 810 q 461 746 453 768 l 732 0 l 868 0 l 492 994 l 376 994 l 0 0 m 161 258 l 705 258 l 665 365 l 201 365 l 161 258 m 479 1283 l 382 1283 l 208 1086 l 321 1086 l 433 1179 l 548 1086 l 659 1086 l 479 1283 m 756 1215 l 809 1294 l 569 1452 l 496 1341 l 756 1215 z "},"ầ":{"ha":750,"x_min":61,"x_max":686,"o":"m 61 210 q 132 44 61 102 q 305 -14 203 -14 q 449 20 393 -14 q 530 98 505 54 q 540 44 532 71 q 557 0 548 17 l 680 0 l 680 11 q 661 80 667 41 q 654 163 654 119 l 654 488 q 583 672 654 610 q 383 734 512 734 q 179 670 254 734 q 103 522 103 607 l 103 519 l 229 519 l 229 522 q 263 600 229 566 q 380 633 298 633 q 494 593 461 633 q 528 488 528 553 l 528 439 l 366 439 q 147 379 233 439 q 61 210 61 319 m 187 217 q 236 314 187 278 q 380 350 285 350 l 528 350 l 528 248 q 467 138 528 190 q 332 87 407 87 q 222 121 258 87 q 187 217 187 156 m 412 1040 l 336 1040 l 170 827 l 273 827 l 374 935 l 476 827 l 581 827 l 412 1040 m 615 972 l 686 1025 l 516 1230 l 412 1158 l 615 972 z "},"Ẩ":{"ha":868,"x_min":0,"x_max":868,"o":"m 0 0 l 130 0 l 404 746 q 418 789 412 768 q 429 833 425 810 l 436 833 q 447 789 441 810 q 461 746 453 768 l 732 0 l 868 0 l 492 994 l 376 994 l 0 0 m 161 258 l 705 258 l 665 365 l 201 365 l 161 258 m 479 1283 l 382 1283 l 208 1086 l 321 1086 l 433 1179 l 548 1086 l 659 1086 l 479 1283 m 603 1234 l 704 1234 l 704 1263 q 808 1300 777 1270 q 840 1390 840 1331 q 802 1481 840 1447 q 693 1514 765 1514 q 597 1502 643 1514 q 530 1479 551 1491 l 562 1398 q 602 1413 568 1403 q 673 1423 635 1423 q 721 1414 707 1423 q 735 1385 735 1405 q 724 1352 735 1361 q 684 1337 713 1342 q 621 1313 638 1330 q 603 1265 603 1296 l 603 1234 z "},"ẩ":{"ha":750,"x_min":61,"x_max":821,"o":"m 61 210 q 132 44 61 102 q 305 -14 203 -14 q 449 20 393 -14 q 530 98 505 54 q 540 44 532 71 q 557 0 548 17 l 680 0 l 680 11 q 661 80 667 41 q 654 163 654 119 l 654 488 q 583 672 654 610 q 383 734 512 734 q 179 670 254 734 q 103 522 103 607 l 103 519 l 229 519 l 229 522 q 263 600 229 566 q 380 633 298 633 q 494 593 461 633 q 528 488 528 553 l 528 439 l 366 439 q 147 379 233 439 q 61 210 61 319 m 187 217 q 236 314 187 278 q 380 350 285 350 l 528 350 l 528 248 q 467 138 528 190 q 332 87 407 87 q 222 121 258 87 q 187 217 187 156 m 412 1040 l 336 1040 l 170 827 l 273 827 l 374 935 l 476 827 l 581 827 l 412 1040 m 554 972 l 637 972 l 637 993 q 778 1041 734 1000 q 821 1149 821 1081 q 779 1253 821 1215 q 655 1292 736 1292 q 547 1278 600 1292 q 471 1251 495 1264 l 508 1166 q 553 1183 515 1172 q 634 1194 591 1194 q 691 1182 671 1194 q 711 1143 711 1170 q 697 1105 711 1116 q 646 1088 684 1094 q 574 1057 594 1081 q 554 998 554 1034 l 554 972 z "},"Ẫ":{"ha":868,"x_min":0,"x_max":868,"o":"m 0 0 l 130 0 l 404 746 q 418 789 412 768 q 429 833 425 810 l 436 833 q 447 789 441 810 q 461 746 453 768 l 732 0 l 868 0 l 492 994 l 376 994 l 0 0 m 161 258 l 705 258 l 665 365 l 201 365 l 161 258 m 479 1283 l 382 1283 l 208 1086 l 321 1086 l 433 1179 l 548 1086 l 659 1086 l 479 1283 m 195 1432 l 261 1370 q 295 1409 274 1390 q 340 1428 315 1428 q 378 1415 356 1428 q 420 1388 399 1402 q 469 1363 441 1375 q 530 1351 496 1351 q 612 1376 574 1351 q 673 1451 651 1401 l 609 1513 q 579 1473 595 1487 q 536 1459 563 1459 q 492 1471 514 1459 q 449 1498 469 1483 q 400 1523 425 1516 q 351 1531 375 1531 q 264 1506 306 1531 q 195 1432 222 1480 z "},"ẫ":{"ha":750,"x_min":61,"x_max":680,"o":"m 61 210 q 132 44 61 102 q 305 -14 203 -14 q 449 20 393 -14 q 530 98 505 54 q 540 44 532 71 q 557 0 548 17 l 680 0 l 680 11 q 661 80 667 41 q 654 163 654 119 l 654 488 q 583 672 654 610 q 383 734 512 734 q 179 670 254 734 q 103 522 103 607 l 103 519 l 229 519 l 229 522 q 263 600 229 566 q 380 633 298 633 q 494 593 461 633 q 528 488 528 553 l 528 439 l 366 439 q 147 379 233 439 q 61 210 61 319 m 187 217 q 236 314 187 278 q 380 350 285 350 l 528 350 l 528 248 q 467 138 528 190 q 332 87 407 87 q 222 121 258 87 q 187 217 187 156 m 412 1040 l 336 1040 l 170 827 l 273 827 l 374 935 l 476 827 l 581 827 l 412 1040 m 119 1179 l 171 1117 q 211 1160 183 1135 q 270 1184 238 1184 q 313 1173 290 1184 q 359 1148 336 1161 q 412 1122 380 1137 q 477 1107 444 1107 q 561 1132 515 1107 q 631 1204 606 1156 l 576 1271 q 537 1229 561 1246 q 486 1211 513 1211 q 434 1225 460 1211 q 385 1255 408 1240 q 334 1280 359 1272 q 281 1289 309 1289 q 189 1255 235 1289 q 119 1179 142 1222 z "},"Ậ":{"ha":868,"x_min":0,"x_max":868,"o":"m 0 0 l 130 0 l 404 746 q 418 789 412 768 q 429 833 425 810 l 436 833 q 447 789 441 810 q 461 746 453 768 l 732 0 l 868 0 l 492 994 l 376 994 l 0 0 m 161 258 l 705 258 l 665 365 l 201 365 l 161 258 m 475 1339 l 378 1339 l 203 1109 l 321 1109 l 429 1232 l 542 1107 l 655 1109 l 475 1339 m 355 -201 q 376 -254 355 -233 q 434 -276 396 -276 q 492 -254 472 -276 q 513 -201 513 -233 q 492 -147 513 -169 q 434 -125 472 -125 q 376 -147 396 -125 q 355 -201 355 -169 z "},"ậ":{"ha":750,"x_min":61,"x_max":680,"o":"m 61 210 q 132 44 61 102 q 305 -14 203 -14 q 449 20 393 -14 q 530 98 505 54 q 540 44 532 71 q 557 0 548 17 l 680 0 l 680 11 q 661 80 667 41 q 654 163 654 119 l 654 488 q 583 672 654 610 q 383 734 512 734 q 179 670 254 734 q 103 522 103 607 l 103 519 l 229 519 l 229 522 q 263 600 229 566 q 380 633 298 633 q 494 593 461 633 q 528 488 528 553 l 528 439 l 366 439 q 147 379 233 439 q 61 210 61 319 m 187 217 q 236 314 187 278 q 380 350 285 350 l 528 350 l 528 248 q 467 138 528 190 q 332 87 407 87 q 222 121 258 87 q 187 217 187 156 m 413 1040 l 337 1040 l 171 827 l 274 827 l 375 935 l 477 827 l 581 827 l 413 1040 m 296 -201 q 317 -254 296 -233 q 375 -276 337 -276 q 433 -254 413 -276 q 454 -201 454 -233 q 433 -147 454 -169 q 375 -125 413 -125 q 317 -147 337 -125 q 296 -201 296 -169 z "},"Ắ":{"ha":868,"x_min":0,"x_max":868,"o":"m 0 0 l 130 0 l 404 746 q 418 789 412 768 q 429 833 425 810 l 436 833 q 447 789 441 810 q 461 746 453 768 l 732 0 l 868 0 l 492 994 l 376 994 l 0 0 m 161 258 l 705 258 l 665 365 l 201 365 l 161 258 m 612 1289 q 541 1221 585 1249 q 434 1193 496 1193 q 332 1222 376 1193 q 262 1289 288 1252 l 187 1244 q 285 1131 218 1177 q 434 1085 351 1085 q 592 1135 527 1085 q 682 1244 656 1185 l 612 1289 m 360 1397 l 416 1322 l 644 1439 l 566 1550 l 360 1397 z "},"ắ":{"ha":750,"x_min":61,"x_max":680,"o":"m 61 210 q 132 44 61 102 q 305 -14 203 -14 q 449 20 393 -14 q 530 98 505 54 q 540 44 532 71 q 557 0 548 17 l 680 0 l 680 11 q 661 80 667 41 q 654 163 654 119 l 654 488 q 583 672 654 610 q 383 734 512 734 q 179 670 254 734 q 103 522 103 607 l 103 519 l 229 519 l 229 522 q 263 600 229 566 q 380 633 298 633 q 494 593 461 633 q 528 488 528 553 l 528 439 l 366 439 q 147 379 233 439 q 61 210 61 319 m 187 217 q 236 314 187 278 q 380 350 285 350 l 528 350 l 528 248 q 467 138 528 190 q 332 87 407 87 q 222 121 258 87 q 187 217 187 156 m 538 1044 q 473 971 513 1003 q 375 939 432 939 q 281 972 321 939 q 217 1044 241 1006 l 146 1008 q 236 879 175 931 q 374 827 298 827 q 519 884 460 827 q 602 1008 578 941 l 538 1044 m 309 1137 l 373 1078 l 576 1265 l 472 1336 l 309 1137 z "},"Ằ":{"ha":868,"x_min":0,"x_max":868,"o":"m 0 0 l 130 0 l 404 746 q 418 789 412 768 q 429 833 425 810 l 436 833 q 447 789 441 810 q 461 746 453 768 l 732 0 l 868 0 l 492 994 l 376 994 l 0 0 m 161 258 l 705 258 l 665 365 l 201 365 l 161 258 m 612 1289 q 541 1221 585 1249 q 434 1193 496 1193 q 332 1222 376 1193 q 262 1289 288 1252 l 187 1244 q 285 1131 218 1177 q 434 1085 351 1085 q 592 1135 527 1085 q 682 1244 656 1185 l 612 1289 m 470 1322 l 523 1401 l 283 1559 l 210 1449 l 470 1322 z "},"ằ":{"ha":750,"x_min":61,"x_max":680,"o":"m 61 210 q 132 44 61 102 q 305 -14 203 -14 q 449 20 393 -14 q 530 98 505 54 q 540 44 532 71 q 557 0 548 17 l 680 0 l 680 11 q 661 80 667 41 q 654 163 654 119 l 654 488 q 583 672 654 610 q 383 734 512 734 q 179 670 254 734 q 103 522 103 607 l 103 519 l 229 519 l 229 522 q 263 600 229 566 q 380 633 298 633 q 494 593 461 633 q 528 488 528 553 l 528 439 l 366 439 q 147 379 233 439 q 61 210 61 319 m 187 217 q 236 314 187 278 q 380 350 285 350 l 528 350 l 528 248 q 467 138 528 190 q 332 87 407 87 q 222 121 258 87 q 187 217 187 156 m 538 1044 q 473 971 514 1003 q 376 939 433 939 q 282 972 322 939 q 218 1044 241 1006 l 147 1008 q 237 879 176 931 q 375 827 298 827 q 520 884 460 827 q 603 1008 579 941 l 538 1044 m 373 1078 l 444 1132 l 274 1336 l 170 1265 l 373 1078 z "},"Ẳ":{"ha":868,"x_min":0,"x_max":868,"o":"m 0 0 l 130 0 l 404 746 q 418 789 412 768 q 429 833 425 810 l 436 833 q 447 789 441 810 q 461 746 453 768 l 732 0 l 868 0 l 492 994 l 376 994 l 0 0 m 161 258 l 705 258 l 665 365 l 201 365 l 161 258 m 612 1289 q 541 1221 585 1249 q 434 1193 496 1193 q 332 1222 376 1193 q 262 1289 288 1252 l 187 1244 q 285 1131 218 1177 q 434 1085 351 1085 q 592 1135 527 1085 q 682 1244 656 1185 l 612 1289 m 387 1322 l 488 1322 l 488 1352 q 592 1389 560 1358 q 623 1479 623 1420 q 586 1570 623 1536 q 477 1603 549 1603 q 380 1591 427 1603 q 313 1568 334 1579 l 346 1487 q 386 1502 352 1492 q 457 1512 419 1512 q 505 1503 490 1512 q 519 1474 519 1494 q 508 1440 519 1450 q 467 1426 497 1431 q 404 1402 422 1419 q 387 1354 387 1385 l 387 1322 z "},"ẳ":{"ha":750,"x_min":61,"x_max":680,"o":"m 61 210 q 132 44 61 102 q 305 -14 203 -14 q 449 20 393 -14 q 530 98 505 54 q 540 44 532 71 q 557 0 548 17 l 680 0 l 680 11 q 661 80 667 41 q 654 163 654 119 l 654 488 q 583 672 654 610 q 383 734 512 734 q 179 670 254 734 q 103 522 103 607 l 103 519 l 229 519 l 229 522 q 263 600 229 566 q 380 633 298 633 q 494 593 461 633 q 528 488 528 553 l 528 439 l 366 439 q 147 379 233 439 q 61 210 61 319 m 187 217 q 236 314 187 278 q 380 350 285 350 l 528 350 l 528 248 q 467 138 528 190 q 332 87 407 87 q 222 121 258 87 q 187 217 187 156 m 538 1044 q 473 971 514 1003 q 376 939 433 939 q 282 972 322 939 q 218 1044 241 1006 l 147 1008 q 237 879 176 931 q 375 827 298 827 q 520 884 460 827 q 603 1008 579 941 l 538 1044 m 317 1078 l 400 1078 l 400 1099 q 541 1147 497 1107 q 584 1256 584 1187 q 542 1360 584 1321 q 418 1398 499 1398 q 310 1384 362 1398 q 234 1358 258 1371 l 271 1273 q 315 1290 277 1278 q 397 1301 353 1301 q 453 1289 433 1301 q 473 1250 473 1276 q 460 1211 473 1222 q 408 1195 446 1200 q 337 1164 357 1187 q 317 1105 317 1140 l 317 1078 z "},"Ẵ":{"ha":868,"x_min":0,"x_max":868,"o":"m 0 0 l 130 0 l 404 746 q 418 789 412 768 q 429 833 425 810 l 436 833 q 447 789 441 810 q 461 746 453 768 l 732 0 l 868 0 l 492 994 l 376 994 l 0 0 m 161 258 l 705 258 l 665 365 l 201 365 l 161 258 m 612 1289 q 542 1221 586 1249 q 435 1193 497 1193 q 333 1222 377 1193 q 262 1289 289 1252 l 188 1244 q 286 1131 219 1177 q 435 1085 352 1085 q 592 1135 528 1085 q 682 1244 657 1185 l 612 1289 m 196 1437 l 262 1375 q 296 1414 275 1396 q 341 1433 317 1433 q 379 1420 357 1433 q 422 1394 401 1408 q 470 1368 442 1380 q 531 1356 498 1356 q 614 1381 575 1356 q 674 1457 652 1407 l 610 1518 q 580 1478 596 1492 q 537 1465 564 1465 q 493 1477 515 1465 q 450 1503 471 1489 q 401 1529 426 1521 q 353 1536 376 1536 q 265 1511 307 1536 q 196 1437 223 1486 z "},"ẵ":{"ha":750,"x_min":61,"x_max":680,"o":"m 61 210 q 132 44 61 102 q 305 -14 203 -14 q 449 20 393 -14 q 530 98 505 54 q 540 44 532 71 q 557 0 548 17 l 680 0 l 680 11 q 661 80 667 41 q 654 163 654 119 l 654 488 q 583 672 654 610 q 383 734 512 734 q 179 670 254 734 q 103 522 103 607 l 103 519 l 229 519 l 229 522 q 263 600 229 566 q 380 633 298 633 q 494 593 461 633 q 528 488 528 553 l 528 439 l 366 439 q 147 379 233 439 q 61 210 61 319 m 187 217 q 236 314 187 278 q 380 350 285 350 l 528 350 l 528 248 q 467 138 528 190 q 332 87 407 87 q 222 121 258 87 q 187 217 187 156 m 538 1044 q 473 971 514 1003 q 376 939 433 939 q 282 972 322 939 q 218 1044 241 1006 l 147 1008 q 237 879 176 931 q 375 827 298 827 q 520 884 460 827 q 603 1008 579 941 l 538 1044 m 113 1184 l 165 1122 q 204 1164 177 1140 q 264 1189 232 1189 q 307 1177 283 1189 q 353 1153 330 1166 q 406 1127 374 1141 q 471 1112 437 1112 q 554 1137 509 1112 q 625 1209 600 1161 l 570 1276 q 531 1233 555 1251 q 480 1215 507 1215 q 428 1230 454 1215 q 378 1260 401 1245 q 328 1285 353 1276 q 275 1293 302 1293 q 182 1260 229 1293 q 113 1184 136 1227 z "},"Ặ":{"ha":868,"x_min":0,"x_max":868,"o":"m 0 0 l 130 0 l 404 746 q 418 789 412 768 q 429 833 425 810 l 436 833 q 447 789 441 810 q 461 746 453 768 l 732 0 l 868 0 l 492 994 l 376 994 l 0 0 m 161 258 l 705 258 l 665 365 l 201 365 l 161 258 m 631 1313 q 553 1233 602 1267 q 434 1200 503 1200 q 320 1235 370 1200 q 242 1313 271 1270 l 174 1266 q 277 1137 207 1189 q 434 1085 347 1085 q 600 1142 532 1085 q 694 1265 668 1198 l 631 1313 m 355 -201 q 376 -254 355 -233 q 434 -276 396 -276 q 492 -254 472 -276 q 513 -201 513 -233 q 492 -147 513 -169 q 434 -125 472 -125 q 376 -147 396 -125 q 355 -201 355 -169 z "},"ặ":{"ha":750,"x_min":61,"x_max":680,"o":"m 61 210 q 132 44 61 102 q 305 -14 203 -14 q 449 20 393 -14 q 530 98 505 54 q 540 44 532 71 q 557 0 548 17 l 680 0 l 680 11 q 661 80 667 41 q 654 163 654 119 l 654 488 q 583 672 654 610 q 383 734 512 734 q 179 670 254 734 q 103 522 103 607 l 103 519 l 229 519 l 229 522 q 263 600 229 566 q 380 633 298 633 q 494 593 461 633 q 528 488 528 553 l 528 439 l 366 439 q 147 379 233 439 q 61 210 61 319 m 187 217 q 236 314 187 278 q 380 350 285 350 l 528 350 l 528 248 q 467 138 528 190 q 332 87 407 87 q 222 121 258 87 q 187 217 187 156 m 540 1029 q 475 956 515 988 q 377 924 434 924 q 283 957 323 924 q 219 1029 243 991 l 149 994 q 238 864 177 916 q 376 812 300 812 q 521 869 462 812 q 604 993 581 926 l 540 1029 m 296 -201 q 317 -254 296 -233 q 375 -276 337 -276 q 433 -254 413 -276 q 454 -201 454 -233 q 433 -147 454 -169 q 375 -125 413 -125 q 317 -147 337 -125 q 296 -201 296 -169 z "},"Ẹ":{"ha":788,"x_min":115,"x_max":742,"o":"m 115 0 l 742 0 l 742 107 l 245 107 l 245 456 l 673 456 l 673 563 l 245 563 l 245 880 l 735 880 l 735 987 l 115 987 l 115 0 m 349 -201 q 369 -254 349 -233 q 427 -276 389 -276 q 486 -254 465 -276 q 506 -201 506 -233 q 486 -147 506 -169 q 427 -125 465 -125 q 369 -147 389 -125 q 349 -201 349 -169 z "},"ẹ":{"ha":738,"x_min":58,"x_max":684,"o":"m 58 346 q 146 82 58 184 q 401 -20 235 -20 q 573 24 503 -20 q 678 119 644 68 l 597 183 q 517 113 566 142 q 401 83 469 83 q 239 159 291 83 q 186 346 186 235 l 186 368 q 236 554 186 478 q 386 631 286 631 q 513 576 469 631 q 557 445 557 522 l 557 429 l 135 429 l 135 328 l 684 328 l 684 380 q 605 638 684 543 q 380 734 526 734 q 146 631 235 734 q 58 368 58 529 l 58 346 m 321 -201 q 342 -254 321 -233 q 400 -276 362 -276 q 458 -254 438 -276 q 479 -201 479 -233 q 458 -147 479 -169 q 400 -125 438 -125 q 342 -147 362 -125 q 321 -201 321 -169 z "},"Ẻ":{"ha":788,"x_min":115,"x_max":742,"o":"m 115 0 l 742 0 l 742 107 l 245 107 l 245 456 l 673 456 l 673 563 l 245 563 l 245 880 l 735 880 l 735 987 l 115 987 l 115 0 m 336 1085 l 420 1085 l 420 1106 q 560 1154 517 1114 q 604 1263 604 1194 q 561 1367 604 1328 q 437 1405 519 1405 q 330 1391 382 1405 q 254 1364 277 1377 l 290 1280 q 335 1296 297 1285 q 416 1308 373 1308 q 473 1295 453 1308 q 493 1257 493 1283 q 479 1218 493 1229 q 428 1202 466 1207 q 356 1171 376 1194 q 336 1112 336 1147 l 336 1085 z "},"ẻ":{"ha":738,"x_min":58,"x_max":684,"o":"m 58 346 q 146 82 58 184 q 401 -20 235 -20 q 573 24 503 -20 q 678 119 644 68 l 597 183 q 517 113 566 142 q 401 83 469 83 q 239 159 291 83 q 186 346 186 235 l 186 368 q 236 554 186 478 q 386 631 286 631 q 513 576 469 631 q 557 445 557 522 l 557 429 l 135 429 l 135 328 l 684 328 l 684 380 q 605 638 684 543 q 380 734 526 734 q 146 631 235 734 q 58 368 58 529 l 58 346 m 340 827 l 424 827 l 424 848 q 564 896 521 856 q 608 1005 608 937 q 565 1109 608 1070 q 441 1147 523 1147 q 334 1134 386 1147 q 258 1107 281 1120 l 294 1022 q 339 1039 301 1027 q 420 1050 377 1050 q 477 1038 457 1050 q 497 999 497 1025 q 484 960 497 971 q 432 944 470 949 q 360 913 380 937 q 340 854 340 889 l 340 827 z "},"Ẽ":{"ha":788,"x_min":115,"x_max":742,"o":"m 115 0 l 742 0 l 742 107 l 245 107 l 245 456 l 673 456 l 673 563 l 245 563 l 245 880 l 735 880 l 735 987 l 115 987 l 115 0 m 154 1160 l 205 1102 q 252 1149 218 1122 q 321 1176 285 1176 q 371 1163 343 1176 q 424 1133 399 1150 q 482 1102 446 1118 q 554 1085 518 1085 q 644 1115 597 1085 q 720 1201 691 1145 l 673 1259 q 627 1213 656 1232 q 567 1194 598 1194 q 502 1213 535 1194 q 449 1244 469 1232 q 393 1273 420 1263 q 334 1283 365 1283 q 230 1245 281 1283 q 154 1160 179 1206 z "},"ẽ":{"ha":738,"x_min":58,"x_max":684,"o":"m 58 346 q 146 82 58 184 q 401 -20 235 -20 q 573 24 503 -20 q 678 119 644 68 l 597 183 q 517 113 566 142 q 401 83 469 83 q 239 159 291 83 q 186 346 186 235 l 186 368 q 236 554 186 478 q 386 631 286 631 q 513 576 469 631 q 557 445 557 522 l 557 429 l 135 429 l 135 328 l 684 328 l 684 380 q 605 638 684 543 q 380 734 526 734 q 146 631 235 734 q 58 368 58 529 l 58 346 m 138 899 l 190 837 q 230 880 202 855 q 289 904 257 904 q 332 892 309 904 q 378 868 355 881 q 431 842 399 857 q 496 827 463 827 q 579 852 534 827 q 650 924 625 876 l 595 991 q 556 948 580 966 q 505 930 532 930 q 453 945 479 930 q 404 975 427 960 q 353 1000 378 991 q 300 1008 328 1008 q 208 975 254 1008 q 138 899 161 942 z "},"Ế":{"ha":788,"x_min":115,"x_max":911,"o":"m 115 0 l 742 0 l 742 107 l 245 107 l 245 456 l 673 456 l 673 563 l 245 563 l 245 880 l 735 880 l 735 987 l 115 987 l 115 0 m 475 1283 l 378 1283 l 203 1086 l 317 1086 l 429 1179 l 544 1086 l 655 1086 l 475 1283 m 627 1290 l 682 1215 l 911 1332 l 832 1443 l 627 1290 z "},"ế":{"ha":738,"x_min":58,"x_max":840,"o":"m 58 346 q 146 82 58 184 q 401 -20 235 -20 q 573 24 503 -20 q 678 119 644 68 l 597 183 q 517 113 566 142 q 401 83 469 83 q 239 159 291 83 q 186 346 186 235 l 186 368 q 236 554 186 478 q 386 631 286 631 q 513 576 469 631 q 557 445 557 522 l 557 429 l 135 429 l 135 328 l 684 328 l 684 380 q 605 638 684 543 q 380 734 526 734 q 146 631 235 734 q 58 368 58 529 l 58 346 m 418 1040 l 342 1040 l 176 827 l 279 827 l 380 935 l 481 827 l 586 827 l 418 1040 m 572 1030 l 637 972 l 840 1158 l 736 1230 l 572 1030 z "},"Ề":{"ha":788,"x_min":115,"x_max":805,"o":"m 115 0 l 742 0 l 742 107 l 245 107 l 245 456 l 673 456 l 673 563 l 245 563 l 245 880 l 735 880 l 735 987 l 115 987 l 115 0 m 475 1283 l 378 1283 l 203 1086 l 317 1086 l 429 1179 l 544 1086 l 655 1086 l 475 1283 m 752 1215 l 805 1294 l 565 1452 l 492 1341 l 752 1215 z "},"ề":{"ha":738,"x_min":58,"x_max":691,"o":"m 58 346 q 146 82 58 184 q 401 -20 235 -20 q 573 24 503 -20 q 678 119 644 68 l 597 183 q 517 113 566 142 q 401 83 469 83 q 239 159 291 83 q 186 346 186 235 l 186 368 q 236 554 186 478 q 386 631 286 631 q 513 576 469 631 q 557 445 557 522 l 557 429 l 135 429 l 135 328 l 684 328 l 684 380 q 605 638 684 543 q 380 734 526 734 q 146 631 235 734 q 58 368 58 529 l 58 346 m 417 1040 l 341 1040 l 175 827 l 278 827 l 379 935 l 481 827 l 585 827 l 417 1040 m 620 972 l 691 1025 l 521 1230 l 417 1158 l 620 972 z "},"Ể":{"ha":788,"x_min":115,"x_max":836,"o":"m 115 0 l 742 0 l 742 107 l 245 107 l 245 456 l 673 456 l 673 563 l 245 563 l 245 880 l 735 880 l 735 987 l 115 987 l 115 0 m 475 1283 l 378 1283 l 203 1086 l 317 1086 l 429 1179 l 544 1086 l 655 1086 l 475 1283 m 599 1234 l 700 1234 l 700 1263 q 804 1300 772 1270 q 836 1390 836 1331 q 798 1481 836 1447 q 689 1514 761 1514 q 593 1502 639 1514 q 526 1479 547 1491 l 558 1398 q 598 1413 564 1403 q 669 1423 631 1423 q 717 1414 703 1423 q 731 1385 731 1405 q 720 1352 731 1361 q 680 1337 709 1342 q 616 1313 634 1330 q 599 1265 599 1296 l 599 1234 z "},"ể":{"ha":738,"x_min":58,"x_max":826,"o":"m 58 346 q 146 82 58 184 q 401 -20 235 -20 q 573 24 503 -20 q 678 119 644 68 l 597 183 q 517 113 566 142 q 401 83 469 83 q 239 159 291 83 q 186 346 186 235 l 186 368 q 236 554 186 478 q 386 631 286 631 q 513 576 469 631 q 557 445 557 522 l 557 429 l 135 429 l 135 328 l 684 328 l 684 380 q 605 638 684 543 q 380 734 526 734 q 146 631 235 734 q 58 368 58 529 l 58 346 m 417 1040 l 341 1040 l 175 827 l 278 827 l 379 935 l 481 827 l 585 827 l 417 1040 m 559 972 l 642 972 l 642 993 q 783 1041 739 1000 q 826 1149 826 1081 q 784 1253 826 1215 q 660 1292 741 1292 q 552 1278 604 1292 q 476 1251 500 1264 l 513 1166 q 557 1183 519 1172 q 639 1194 595 1194 q 695 1182 675 1194 q 715 1143 715 1170 q 702 1105 715 1116 q 650 1088 688 1094 q 579 1057 599 1081 q 559 998 559 1034 l 559 972 z "},"Ễ":{"ha":788,"x_min":115,"x_max":742,"o":"m 115 0 l 742 0 l 742 107 l 245 107 l 245 456 l 673 456 l 673 563 l 245 563 l 245 880 l 735 880 l 735 987 l 115 987 l 115 0 m 475 1283 l 378 1283 l 203 1086 l 317 1086 l 429 1179 l 544 1086 l 655 1086 l 475 1283 m 191 1432 l 257 1370 q 291 1409 270 1390 q 336 1428 311 1428 q 374 1415 352 1428 q 416 1388 395 1402 q 465 1363 437 1375 q 526 1351 492 1351 q 608 1376 570 1351 q 669 1451 647 1401 l 605 1513 q 575 1473 591 1487 q 532 1459 559 1459 q 488 1471 510 1459 q 445 1498 465 1483 q 396 1523 420 1516 q 347 1531 371 1531 q 260 1506 302 1531 q 191 1432 218 1480 z "},"ễ":{"ha":738,"x_min":58,"x_max":684,"o":"m 58 346 q 146 82 58 184 q 401 -20 235 -20 q 573 24 503 -20 q 678 119 644 68 l 597 183 q 517 113 566 142 q 401 83 469 83 q 239 159 291 83 q 186 346 186 235 l 186 368 q 236 554 186 478 q 386 631 286 631 q 513 576 469 631 q 557 445 557 522 l 557 429 l 135 429 l 135 328 l 684 328 l 684 380 q 605 638 684 543 q 380 734 526 734 q 146 631 235 734 q 58 368 58 529 l 58 346 m 417 1040 l 341 1040 l 175 827 l 278 827 l 379 935 l 481 827 l 585 827 l 417 1040 m 124 1179 l 176 1117 q 215 1160 188 1135 q 275 1184 243 1184 q 317 1173 294 1184 q 363 1148 340 1161 q 416 1122 385 1137 q 481 1107 448 1107 q 565 1132 520 1107 q 636 1204 610 1156 l 581 1271 q 542 1229 566 1246 q 491 1211 518 1211 q 439 1225 465 1211 q 389 1255 412 1240 q 339 1280 364 1272 q 286 1289 313 1289 q 193 1255 240 1289 q 124 1179 146 1222 z "},"Ệ":{"ha":788,"x_min":115,"x_max":742,"o":"m 115 0 l 742 0 l 742 107 l 245 107 l 245 456 l 673 456 l 673 563 l 245 563 l 245 880 l 735 880 l 735 987 l 115 987 l 115 0 m 471 1339 l 374 1339 l 199 1109 l 317 1109 l 425 1232 l 538 1107 l 651 1109 l 471 1339 m 349 -201 q 369 -254 349 -233 q 427 -276 389 -276 q 486 -254 465 -276 q 506 -201 506 -233 q 486 -147 506 -169 q 427 -125 465 -125 q 369 -147 389 -125 q 349 -201 349 -169 z "},"ệ":{"ha":738,"x_min":58,"x_max":684,"o":"m 58 346 q 146 82 58 184 q 401 -20 235 -20 q 573 24 503 -20 q 678 119 644 68 l 597 183 q 517 113 566 142 q 401 83 469 83 q 239 159 291 83 q 186 346 186 235 l 186 368 q 236 554 186 478 q 386 631 286 631 q 513 576 469 631 q 557 445 557 522 l 557 429 l 135 429 l 135 328 l 684 328 l 684 380 q 605 638 684 543 q 380 734 526 734 q 146 631 235 734 q 58 368 58 529 l 58 346 m 418 1040 l 342 1040 l 176 827 l 279 827 l 380 935 l 481 827 l 586 827 l 418 1040 m 321 -201 q 342 -254 321 -233 q 400 -276 362 -276 q 458 -254 438 -276 q 479 -201 479 -233 q 458 -147 479 -169 q 400 -125 438 -125 q 342 -147 362 -125 q 321 -201 321 -169 z "},"Ỉ":{"ha":368,"x_min":7,"x_max":357,"o":"m 119 0 l 249 0 l 249 987 l 119 987 l 119 0 m 90 1085 l 174 1085 l 174 1106 q 314 1154 271 1114 q 357 1263 357 1194 q 315 1367 357 1328 q 191 1405 273 1405 q 83 1391 136 1405 q 7 1364 31 1377 l 44 1280 q 89 1296 51 1285 q 170 1308 127 1308 q 227 1295 207 1308 q 247 1257 247 1283 q 233 1218 247 1229 q 182 1202 220 1207 q 110 1171 130 1194 q 90 1112 90 1147 l 90 1085 z "},"ỉ":{"ha":339,"x_min":47,"x_max":397,"o":"m 106 0 l 233 0 l 233 713 l 106 713 l 106 0 m 130 827 l 214 827 l 214 848 q 354 896 311 856 q 397 1005 397 937 q 355 1109 397 1070 q 231 1147 313 1147 q 123 1134 176 1147 q 47 1107 71 1120 l 84 1022 q 129 1039 91 1027 q 210 1050 167 1050 q 267 1038 247 1050 q 287 999 287 1025 q 273 960 287 971 q 222 944 260 949 q 150 913 170 937 q 130 854 130 889 l 130 827 z "},"Ị":{"ha":368,"x_min":105,"x_max":262,"o":"m 119 0 l 249 0 l 249 987 l 119 987 l 119 0 m 105 -201 q 125 -254 105 -233 q 184 -276 146 -276 q 242 -254 222 -276 q 262 -201 262 -233 q 242 -147 262 -169 q 184 -125 222 -125 q 125 -147 146 -125 q 105 -201 105 -169 z "},"ị":{"ha":339,"x_min":91,"x_max":248,"o":"m 106 0 l 233 0 l 233 713 l 106 713 l 106 0 m 91 929 q 111 876 91 897 q 170 854 132 854 q 228 876 208 854 q 248 929 248 897 q 228 983 248 961 q 170 1004 208 1004 q 111 983 132 1004 q 91 929 91 961 m 91 -201 q 111 -254 91 -233 q 170 -276 132 -276 q 228 -254 208 -276 q 248 -201 248 -233 q 228 -147 248 -169 q 170 -125 208 -125 q 111 -147 132 -125 q 91 -201 91 -169 z "},"Ọ":{"ha":990,"x_min":78,"x_max":912,"o":"m 78 463 q 195 107 78 235 q 495 -20 312 -20 q 795 107 678 -20 q 912 463 912 235 l 912 525 q 795 880 912 753 q 495 1008 678 1008 q 195 880 312 1008 q 78 525 78 753 l 78 463 m 210 463 l 210 525 q 288 798 210 699 q 495 897 366 897 q 702 798 624 897 q 781 525 781 699 l 781 463 q 702 190 781 289 q 495 91 624 91 q 288 190 366 91 q 210 463 210 289 m 416 -201 q 437 -254 416 -233 q 495 -276 457 -276 q 553 -254 533 -276 q 574 -201 574 -233 q 553 -147 574 -169 q 495 -125 533 -125 q 437 -147 457 -125 q 416 -201 416 -169 z "},"ọ":{"ha":788,"x_min":58,"x_max":730,"o":"m 58 346 q 149 82 58 184 q 394 -20 241 -20 q 639 82 547 -20 q 730 346 730 184 l 730 368 q 639 631 730 529 q 394 734 547 734 q 149 631 241 734 q 58 368 58 529 l 58 346 m 186 368 q 239 554 186 478 q 394 631 291 631 q 549 554 497 631 q 602 368 602 478 l 602 346 q 549 159 602 235 q 394 83 497 83 q 239 159 291 83 q 186 346 186 235 l 186 368 m 315 -201 q 336 -254 315 -233 q 394 -276 356 -276 q 452 -254 432 -276 q 473 -201 473 -233 q 452 -147 473 -169 q 394 -125 432 -125 q 336 -147 356 -125 q 315 -201 315 -169 z "},"Ỏ":{"ha":990,"x_min":78,"x_max":912,"o":"m 78 463 q 195 107 78 235 q 495 -20 312 -20 q 795 107 678 -20 q 912 463 912 235 l 912 525 q 795 880 912 753 q 495 1008 678 1008 q 195 880 312 1008 q 78 525 78 753 l 78 463 m 210 463 l 210 525 q 288 798 210 699 q 495 897 366 897 q 702 798 624 897 q 781 525 781 699 l 781 463 q 702 190 781 289 q 495 91 624 91 q 288 190 366 91 q 210 463 210 289 m 401 1085 l 485 1085 l 485 1106 q 625 1154 582 1114 q 669 1263 669 1194 q 626 1367 669 1328 q 503 1405 584 1405 q 395 1391 447 1405 q 319 1364 342 1377 l 355 1280 q 400 1296 362 1285 q 481 1308 438 1308 q 538 1295 518 1308 q 558 1257 558 1283 q 545 1218 558 1229 q 493 1202 531 1207 q 421 1171 441 1194 q 401 1112 401 1147 l 401 1085 z "},"ỏ":{"ha":788,"x_min":58,"x_max":730,"o":"m 58 346 q 149 82 58 184 q 394 -20 241 -20 q 639 82 547 -20 q 730 346 730 184 l 730 368 q 639 631 730 529 q 394 734 547 734 q 149 631 241 734 q 58 368 58 529 l 58 346 m 186 368 q 239 554 186 478 q 394 631 291 631 q 549 554 497 631 q 602 368 602 478 l 602 346 q 549 159 602 235 q 394 83 497 83 q 239 159 291 83 q 186 346 186 235 l 186 368 m 355 827 l 438 827 l 438 848 q 578 896 535 856 q 622 1005 622 937 q 579 1109 622 1070 q 456 1147 537 1147 q 348 1134 400 1147 q 272 1107 296 1120 l 309 1022 q 353 1039 315 1027 q 435 1050 391 1050 q 491 1038 471 1050 q 511 999 511 1025 q 498 960 511 971 q 446 944 484 949 q 375 913 395 937 q 355 854 355 889 l 355 827 z "},"Ố":{"ha":990,"x_min":78,"x_max":976,"o":"m 78 463 q 195 107 78 235 q 495 -20 312 -20 q 795 107 678 -20 q 912 463 912 235 l 912 525 q 795 880 912 753 q 495 1008 678 1008 q 195 880 312 1008 q 78 525 78 753 l 78 463 m 210 463 l 210 525 q 288 798 210 699 q 495 897 366 897 q 702 798 624 897 q 781 525 781 699 l 781 463 q 702 190 781 289 q 495 91 624 91 q 288 190 366 91 q 210 463 210 289 m 541 1283 l 443 1283 l 269 1086 l 382 1086 l 494 1179 l 609 1086 l 720 1086 l 541 1283 m 692 1290 l 747 1215 l 976 1332 l 897 1443 l 692 1290 z "},"ố":{"ha":788,"x_min":58,"x_max":854,"o":"m 58 346 q 149 82 58 184 q 394 -20 241 -20 q 639 82 547 -20 q 730 346 730 184 l 730 368 q 639 631 730 529 q 394 734 547 734 q 149 631 241 734 q 58 368 58 529 l 58 346 m 186 368 q 239 554 186 478 q 394 631 291 631 q 549 554 497 631 q 602 368 602 478 l 602 346 q 549 159 602 235 q 394 83 497 83 q 239 159 291 83 q 186 346 186 235 l 186 368 m 432 1040 l 356 1040 l 190 827 l 293 827 l 394 935 l 496 827 l 600 827 l 432 1040 m 587 1030 l 651 972 l 854 1158 l 750 1230 l 587 1030 z "},"Ồ":{"ha":990,"x_min":78,"x_max":912,"o":"m 78 463 q 195 107 78 235 q 495 -20 312 -20 q 795 107 678 -20 q 912 463 912 235 l 912 525 q 795 880 912 753 q 495 1008 678 1008 q 195 880 312 1008 q 78 525 78 753 l 78 463 m 210 463 l 210 525 q 288 798 210 699 q 495 897 366 897 q 702 798 624 897 q 781 525 781 699 l 781 463 q 702 190 781 289 q 495 91 624 91 q 288 190 366 91 q 210 463 210 289 m 541 1283 l 443 1283 l 269 1086 l 382 1086 l 494 1179 l 609 1086 l 720 1086 l 541 1283 m 817 1215 l 870 1294 l 630 1452 l 557 1341 l 817 1215 z "}}}
